<svg width="150" height="214" viewBox="0 0 150 214" fill="none" xmlns="http://www.w3.org/2000/svg">
  <path fill-rule="evenodd" clip-rule="evenodd" d="M0 44.8898L44.9498 0H150V214H0V44.8898ZM42.8571 42.8V12.1768L12.1931 42.8H42.8571ZM7.14286 206.867H142.857V7.13333H50V49.9333H7.14286V206.867ZM36.3273 84.7327L46.4277 94.8231L56.5281 84.7327L61.5784 89.7762L51.4779 99.8666L61.5784 109.957L56.5281 115.001L46.4277 104.91L36.3273 115.001L31.2771 109.957L41.3775 99.8666L31.2771 89.7762L36.3273 84.7327ZM89.8987 115.001L99.9991 104.91L110.1 115.001L115.15 109.957L105.049 99.8666L115.15 89.7762L110.1 84.7327L99.9991 94.8231L89.8987 84.7327L84.8485 89.7762L94.9489 99.8666L84.8485 109.957L89.8987 115.001ZM48.9525 152.322L43.9023 147.278L47.2209 143.964C62.5721 128.668 87.4256 128.668 102.777 143.964L106.095 147.278L101.045 152.322L97.7265 149.008C85.1655 136.496 64.8321 136.496 52.2711 149.008L48.9525 152.322Z" fill="#A9AFBD"/>
</svg>
