<svg width="24" height="24" viewBox="0 0 24 24" fill="none" xmlns="http://www.w3.org/2000/svg">
  <path d="M12.0002 2.25C10.0719 2.25 8.18682 2.82183 6.58344 3.89317C4.98006 4.96451 3.73038 6.48726 2.99242 8.26884C2.25447 10.0504 2.06139 12.0108 2.43759 13.9021C2.8138 15.7934 3.7424 17.5307 5.10596 18.8943C6.46952 20.2579 8.2068 21.1865 10.0981 21.5627C11.9894 21.9389 13.9498 21.7458 15.7314 21.0078C17.513 20.2699 19.0357 19.0202 20.1071 17.4168C21.1784 15.8134 21.7502 13.9284 21.7502 12C21.7473 9.41504 20.7192 6.93679 18.8913 5.10894C17.0635 3.28109 14.5852 2.25293 12.0002 2.25ZM12.0003 18C11.7778 18 11.5603 17.9341 11.3753 17.8104C11.1903 17.6868 11.0461 17.5111 10.9609 17.3056C10.8758 17.1 10.8535 16.8738 10.8969 16.6556C10.9403 16.4373 11.0475 16.2369 11.2048 16.0795C11.3621 15.9222 11.5626 15.8151 11.7808 15.7717C11.9991 15.7282 12.2253 15.7505 12.4308 15.8357C12.6364 15.9208 12.8121 16.065 12.9357 16.25C13.0593 16.435 13.1253 16.6525 13.1253 16.875C13.1253 17.1734 13.0068 17.4596 12.7958 17.6705C12.5848 17.8815 12.2987 18 12.0003 18ZM12.7503 13.4165V13.5005C12.7503 13.6994 12.6712 13.8901 12.5306 14.0308C12.3899 14.1714 12.1992 14.2505 12.0003 14.2505C11.8013 14.2505 11.6106 14.1714 11.4699 14.0308C11.3293 13.8901 11.2503 13.6994 11.2503 13.5005V12.7505C11.2503 12.5515 11.3293 12.3608 11.4699 12.2201C11.6106 12.0795 11.8013 12.0005 12.0003 12.0005C12.3711 12.0005 12.7336 11.8905 13.0419 11.6845C13.3503 11.4784 13.5906 11.1856 13.7325 10.843C13.8744 10.5004 13.9116 10.1234 13.8392 9.75966C13.7669 9.39595 13.5883 9.06186 13.3261 8.79963C13.0639 8.53741 12.7298 8.35883 12.366 8.28649C12.0023 8.21414 11.6253 8.25127 11.2827 8.39318C10.9401 8.5351 10.6473 8.77542 10.4412 9.08376C10.2352 9.39211 10.1253 9.75462 10.1253 10.1255C10.1253 10.3244 10.0462 10.5151 9.90558 10.6558C9.76493 10.7964 9.57417 10.8755 9.37525 10.8755C9.17634 10.8755 8.98558 10.7964 8.84492 10.6558C8.70427 10.5151 8.62525 10.3244 8.62525 10.1255C8.62534 9.49014 8.80474 8.86774 9.14283 8.32985C9.48092 7.79196 9.96397 7.36042 10.5364 7.08487C11.1089 6.80931 11.7475 6.70093 12.3788 6.77219C13.0101 6.84344 13.6085 7.09144 14.1051 7.48767C14.6017 7.88389 14.9764 8.41225 15.1861 9.01196C15.3958 9.61168 15.432 10.2584 15.2904 10.8778C15.1489 11.4971 14.8354 12.0639 14.3861 12.5131C13.9367 12.9622 13.3697 13.2753 12.7503 13.4165Z" fill="#66C9FF"/>
</svg>
