<svg width="32" height="32" viewBox="0 0 32 32" fill="none" xmlns="http://www.w3.org/2000/svg">
  <path fill-rule="evenodd" clip-rule="evenodd" d="M26.8707 3.62092C27.2095 3.48783 27.5781 3.44971 27.937 3.51067C28.2958 3.57163 28.6312 3.72934 28.907 3.96683C29.1828 4.20432 29.3886 4.51257 29.5022 4.85837C29.6157 5.20416 29.6328 5.5744 29.5515 5.92917L28.612 5.71387L29.5515 5.92917L24.8498 26.4457C24.7724 26.7834 24.6086 27.0953 24.3744 27.3506C24.1403 27.606 23.8438 27.7961 23.5141 27.9025C23.1844 28.0088 22.8326 28.0276 22.4934 27.9572C22.1542 27.8867 21.8391 27.7293 21.579 27.5004L10.5408 17.7868L4.14018 16.5066C3.71653 16.4219 3.33172 16.2023 3.04331 15.8806C2.7549 15.5589 2.5784 15.1525 2.54023 14.7222C2.50206 14.2918 2.60427 13.8607 2.83155 13.4933C3.05884 13.1259 3.39899 12.842 3.8011 12.684L4.16676 13.6147L3.80111 12.684L26.8707 3.62092ZM27.602 5.48242L4.53241 14.5455L11.1961 15.8782C11.3685 15.9127 11.5287 15.992 11.6606 16.1081L22.9003 25.999L27.602 5.48242Z" fill="#1DB0FF"/>
  <path fill-rule="evenodd" clip-rule="evenodd" d="M28.8247 3.98538C29.1481 4.43311 29.0473 5.0582 28.5995 5.38155L11.5855 17.6695C11.1378 17.9928 10.5127 17.892 10.1893 17.4443C9.86598 16.9965 9.9668 16.3715 10.4145 16.0481L27.4285 3.76019C27.8763 3.43684 28.5014 3.53766 28.8247 3.98538Z" fill="#1DB0FF"/>
  <path fill-rule="evenodd" clip-rule="evenodd" d="M11 15.8589C11.5523 15.8589 12 16.3066 12 16.8589V24.9978L12.7071 25.7049L12 24.9978L15.9063 21.0916C16.2968 20.701 16.93 20.701 17.3205 21.0916C17.711 21.4821 17.711 22.1152 17.3205 22.5058L13.4142 26.412L12.7487 25.7465L13.4142 26.412C13.1345 26.6918 12.7781 26.8822 12.3902 26.9594C12.0022 27.0366 11.6001 26.997 11.2346 26.8456C10.8692 26.6942 10.5568 26.4379 10.3371 26.109C10.1173 25.7801 10 25.3934 10 24.9978V16.8589C10 16.3066 10.4477 15.8589 11 15.8589Z" fill="#1DB0FF"/>
</svg>
