<svg width="32" height="32" viewBox="0 0 32 32" fill="none" xmlns="http://www.w3.org/2000/svg">
  <path fill-rule="evenodd" clip-rule="evenodd" d="M22.8366 7.44603C22.02 7.02432 21.083 6.89662 20.1834 7.08441C19.2837 7.2722 18.4761 7.76402 17.8963 8.47719C17.3166 9.19033 17.0001 10.0813 17 11.0004C17 11.0004 17 11.0003 17 11.0004V13C17 13.294 16.8706 13.573 16.6463 13.763C16.4221 13.953 16.1255 14.0347 15.8356 13.9864C12.6109 13.449 9.9572 11.8453 8.13215 10.4113C7.59226 9.98712 7.12034 9.5742 6.72269 9.20217C6.42716 13.2433 7.67494 15.8537 9.0219 17.4893C9.81533 18.4527 10.6657 19.1044 11.3145 19.5135C11.6383 19.7176 11.9094 19.8597 12.0942 19.9487C12.1865 19.9932 12.2569 20.0243 12.3013 20.0431C12.3234 20.0525 12.339 20.0588 12.3475 20.0622L12.3544 20.0649C12.8557 20.2551 13.1183 20.8072 12.9487 21.3162C12.3082 23.2375 10.4601 24.3893 9.03878 25.0354C8.81793 25.1358 8.60053 25.227 8.39048 25.3096C9.25539 25.675 10.4567 26 12 26C20.3559 26 25 19.5442 25 13C25 12.7348 25.1053 12.4804 25.2929 12.2929L27.5858 9.99998L25.5839 9.99996C25.1863 9.99995 24.8265 9.76443 24.6674 9.40007C24.2997 8.55776 23.6532 7.86775 22.8366 7.44603ZM5.99997 25C5.29287 25.7071 5.29322 25.7075 5.29358 25.7078L5.29601 25.7102L5.29992 25.7141L5.31004 25.724C5.3178 25.7315 5.32761 25.7409 5.33947 25.752C5.36318 25.7742 5.39509 25.8034 5.43522 25.8385C5.51545 25.9087 5.62867 26.0028 5.77497 26.1125C6.06744 26.3319 6.49325 26.6147 7.05276 26.8944C8.17505 27.4556 9.82721 28 12 28C21.4631 28 26.7974 20.7363 26.9943 13.4199L30.7071 9.70711C30.9931 9.42112 31.0786 8.991 30.9239 8.61733C30.7691 8.24365 30.4044 8.00001 30 8.00001L26.1974 7.99996C25.6253 7.0092 24.7791 6.19824 23.7543 5.669C22.5294 5.03647 21.1241 4.84494 19.7747 5.1266C18.4253 5.40827 17.2139 6.14595 16.3444 7.21563C15.4749 8.2853 15.0001 9.62175 15 11.0003V11.7606C12.7313 11.1531 10.8031 9.9664 9.3678 8.83869C8.53492 8.18428 7.88091 7.55983 7.43733 7.10146C7.21584 6.87259 7.04769 6.68603 6.9368 6.55905C6.88138 6.49558 6.84034 6.44708 6.81417 6.41572L6.78614 6.38182L6.78063 6.37504C6.78073 6.37516 6.78039 6.37474 6.78063 6.37504C6.78079 6.37524 6.78084 6.37531 5.99997 7.00001L6.78063 6.37504C6.78073 6.37516 6.78039 6.37474 6.78063 6.37504C6.53574 6.06966 6.13464 5.93457 5.75505 6.03046C5.37508 6.12645 5.08621 6.43554 5.0161 6.82112C3.9644 12.6055 5.53771 16.4046 7.47804 18.7607C8.43462 19.9223 9.45925 20.7081 10.2479 21.2053C10.3884 21.2939 10.5217 21.3735 10.6462 21.4446M5.80386 24.0194C5.80416 24.0194 5.80355 24.0195 5.80386 24.0194C5.44265 24.092 5.14966 24.3575 5.04288 24.7102C4.93601 25.0632 5.03209 25.4463 5.29287 25.7071L5.99997 25" fill="#1DB0FF"/>
</svg>
