<svg width="32" height="32" viewBox="0 0 32 32" fill="none" xmlns="http://www.w3.org/2000/svg">
<path d="M27 6H5C4.44772 6 4 6.44772 4 7V25C4 25.5523 4.44772 26 5 26H27C27.5523 26 28 25.5523 28 25V7C28 6.44772 27.5523 6 27 6Z" stroke="#040B1D" stroke-width="2" stroke-linecap="round" stroke-linejoin="round"/>
<path d="M4 21L10.2929 14.7071C10.3857 14.6142 10.496 14.5406 10.6173 14.4903C10.7386 14.4401 10.8687 14.4142 11 14.4142C11.1313 14.4142 11.2613 14.4401 11.3827 14.4903C11.504 14.5406 11.6142 14.6142 11.7071 14.7071L17.2929 20.2929C17.3857 20.3857 17.496 20.4594 17.6173 20.5096C17.7386 20.5599 17.8687 20.5858 18 20.5858C18.1313 20.5858 18.2613 20.5599 18.3827 20.5096C18.504 20.4594 18.6142 20.3857 18.7071 20.2929L21.2929 17.7071C21.3857 17.6142 21.496 17.5406 21.6173 17.4903C21.7386 17.4401 21.8687 17.4142 22 17.4142C22.1313 17.4142 22.2613 17.4401 22.3827 17.4903C22.504 17.5406 22.6142 17.6142 22.7071 17.7071L28 23" stroke="#040B1D" stroke-width="2" stroke-linecap="round" stroke-linejoin="round"/>
<path d="M19.5 14C20.3284 14 21 13.3284 21 12.5C21 11.6716 20.3284 11 19.5 11C18.6716 11 18 11.6716 18 12.5C18 13.3284 18.6716 14 19.5 14Z" fill="#040B1D"/>
</svg>
