<svg width="34" height="34" viewBox="0 0 34 34" fill="none" xmlns="http://www.w3.org/2000/svg">
  <path d="M7.96587 2.40918H6.70436L6.56443 2.54954L3.19922 11.0994V12.0806L3.33914 12.2205H4.18044L4.32081 12.0806L5.16211 9.97781L5.4424 9.83789H9.22694L9.50722 9.97781L10.3485 12.0806L10.4889 12.2205H11.3302L11.4706 12.0806V11.0994L8.10535 2.54954L7.96587 2.40918ZM8.80717 8.57638H5.86349L5.72313 8.43645L7.26493 4.51155H7.40529L8.94709 8.43645L8.80717 8.57638Z" fill="black"/>
  <path d="M26.6773 3.53016C28.0787 3.53016 28.92 4.23065 29.2012 5.21277L29.3411 5.35313H30.4627L30.6026 5.21277C30.3223 3.53016 28.92 2.26953 26.6781 2.26953C23.7349 2.26953 22.0527 4.3719 22.0527 7.31735C22.0527 10.2628 23.7353 12.3652 26.6781 12.3652C29.0608 12.3652 30.3223 10.9633 30.6026 9.28158L30.4627 9.14121H29.3402L29.2003 9.27715C28.92 10.2584 28.2191 11.0992 26.6764 11.0992C24.574 11.0992 23.4528 9.55743 23.4528 7.3147C23.4528 5.07196 24.5749 3.53016 26.6773 3.53016Z" fill="black"/>
  <path d="M26.6693 26.4637L26.529 26.604V27.5848L26.6693 27.7252H29.4727L29.6126 27.8655C29.6126 29.267 28.9121 30.5285 26.8093 30.5285C24.8473 30.5285 23.7261 28.9867 23.7261 26.7439C23.7261 24.5012 24.8473 22.9598 26.9496 22.9598C28.4914 22.9598 29.3323 23.6603 29.6126 24.6425L29.753 24.7828H30.8741L31.0145 24.6425C30.7342 23.241 29.6126 21.6992 26.9496 21.6992C24.0064 21.6992 22.3242 23.8016 22.3242 26.747C22.3242 29.6925 24.0068 31.7949 26.8093 31.7949C28.0708 31.7949 28.9121 31.3742 29.6126 30.6733H29.753L29.8929 31.5146L30.0332 31.6545H30.8746L31.0149 31.5146V26.604L30.8746 26.4637H26.6693Z" fill="black"/>
  <path d="M14.356 17.4927V16.5115L14.2156 16.3711H0.480209L0.339844 16.5115V17.4927L0.480209 17.6326H14.2156L14.356 17.4927Z" fill="#6F32FF"/>
  <path d="M33.6685 17.4927V16.5115L33.5281 16.3711H19.7923L19.6523 16.5115V17.4927L19.7923 17.6326H33.5281L33.6685 17.4927Z" fill="#6F32FF"/>
  <path d="M17.4946 19.6504H16.5134L16.373 19.7908V33.5266L16.5134 33.6665H17.4946L17.6346 33.5266V19.7908L17.4946 19.6504Z" fill="#6F32FF"/>
  <path d="M17.4946 0.333008H16.5134L16.373 0.473373V14.2088L16.5134 14.3491H17.4946L17.6346 14.2088V0.473373L17.4946 0.333008Z" fill="#6F32FF"/>
</svg>
