<svg  width="40" height="40"  viewBox="0 0 40 40" fill="none" xmlns="http://www.w3.org/2000/svg">
  <path d="M9.15162 2.49097H7.6378L7.4699 2.6594L3.43164 12.9192V14.0967L3.59955 14.2646H4.60911L4.77755 14.0967L5.78711 11.5733L6.12346 11.4054H10.6649L11.0012 11.5733L12.0108 14.0967L12.1793 14.2646H13.1888L13.3573 14.0967V12.9192L9.319 2.6594L9.15162 2.49097ZM10.1612 9.8916H6.62877L6.46033 9.7237L8.31049 5.01381H8.47893L10.3291 9.7237L10.1612 9.8916Z" fill="#999999"/>
  <path d="M31.6041 3.83688C33.2859 3.83688 34.2954 4.67747 34.6328 5.85601L34.8007 6.02445H36.1466L36.3146 5.85601C35.9782 3.83688 34.2954 2.32413 31.6052 2.32413C28.0733 2.32413 26.0547 4.84698 26.0547 8.38151C26.0547 11.9161 28.0738 14.4389 31.6052 14.4389C34.4644 14.4389 35.9782 12.7566 36.3146 10.7386L36.1466 10.5701H34.7997L34.6318 10.7333C34.2954 11.9107 33.4543 12.9198 31.6031 12.9198C29.0802 12.9198 27.7348 11.0696 27.7348 8.37832C27.7348 5.68704 29.0813 3.83688 31.6041 3.83688Z" fill="#999999"/>
  <path d="M31.595 31.3565L31.4266 31.525V32.7019L31.595 32.8704H34.959L35.1269 33.0388C35.1269 34.7205 34.2863 36.2343 31.7629 36.2343C29.4085 36.2343 28.0631 34.3842 28.0631 31.6929C28.0631 29.0016 29.4085 27.152 31.9314 27.152C33.7815 27.152 34.7906 27.9926 35.1269 29.1711L35.2953 29.3395H36.6407L36.8092 29.1711C36.4728 27.4894 35.1269 25.6392 31.9314 25.6392C28.3995 25.6392 26.3809 28.1621 26.3809 31.6966C26.3809 35.2311 28.4 37.754 31.7629 37.754C33.2767 37.754 34.2863 37.2492 35.1269 36.4081H35.2953L35.4633 37.4177L35.6317 37.5856H36.6413L36.8097 37.4177V31.525L36.6413 31.3565H31.595Z" fill="#999999"/>
  <path d="M16.8193 20.5914V19.4139L16.6509 19.2455H0.168438L0 19.4139V20.5914L0.168438 20.7593H16.6509L16.8193 20.5914Z" fill="#999999"/>
  <path d="M39.9932 20.5914V19.4139L39.8248 19.2455H23.3417L23.1738 19.4139V20.5914L23.3417 20.7593H39.8248L39.9932 20.5914Z" fill="#999999"/>
  <path d="M20.5842 23.1807H19.4067L19.2383 23.3491V39.8321L19.4067 40H20.5842L20.7521 39.8321V23.3491L20.5842 23.1807Z" fill="#999999"/>
  <path d="M20.5842 0H19.4067L19.2383 0.168438V16.6509L19.4067 16.8193H20.5842L20.7521 16.6509V0.168438L20.5842 0Z" fill="#999999"/>
</svg>
