<svg id="Layer_1" data-name="Layer 1" xmlns="http://www.w3.org/2000/svg"
     viewBox="0 0 1401.96 327.11"><defs><style>.cls-1{fill:#abff80;}</style></defs><path d="M991.12,467.56V456.67l-2.34-2.34H977.89l-2.34,2.34-2.35-2.34H962.31L960,456.67l-2.35-2.34h0L960,452V441.1l-2.35-2.35H946.74l-2.35,2.35-2.34-2.35H931.16l-2.34,2.35-2.35-2.35H915.58l-2.34,2.35-2.35-2.35H900l-2.35,2.35-2.34-2.35H884.43l-2.34,2.35-2.35-2.35H868.85l-2.34,2.35-2.35-2.35H853.28l-2.35,2.35-2.34-2.35H837.7l-2.34,2.35V452l2.34,2.35h0l-2.34,2.34v10.89l2.34,2.35h0l-2.34,2.34v10.89l2.34,2.34-2.34,2.35v10.88l2.34,2.35-2.34,2.34v10.89l2.34,2.35h0L835.36,519v10.89l2.34,2.34h0l-2.34,2.35v10.88l2.34,2.35h0l-2.34,2.34V561l2.34,2.34h0l-2.34,2.35V576.6l2.34,2.34-2.34,2.35v10.88l2.34,2.35h0l-2.34,2.34v10.89l2.34,2.34h0l-2.34,2.35v10.89l2.34,2.34h0L835.36,628V638.9l2.34,2.35h10.89l2.34-2.35V628l-2.34-2.35h0l2.34-2.34V612.44l-2.34-2.35h0l2.34-2.34V596.86l-2.34-2.34h0l2.34-2.35V581.29l-2.34-2.35,2.34-2.34V565.71l-2.34-2.35,2.34-2.34,2.35,2.34h10.88l2.35-2.34,2.34,2.34h10.89l2.35-2.34,2.34,2.34h10.89l2.34-2.34,2.35,2.34h10.88l2.35-2.34,2.34,2.34h10.89l2.35-2.34,2.34,2.34h10.89l2.34-2.34,2.35,2.34h10.88L960,561V550.13l-2.35-2.34h0l2.35-2.35,2.34,2.35H973.2l2.35-2.35V534.56l-2.35-2.35,2.35-2.34,2.34,2.34h10.89l2.34-2.34V519l-2.34-2.34h0l2.34-2.35V503.4l-2.34-2.34,2.34-2.35V487.83l-2.34-2.35,2.34-2.34V472.25l-2.34-2.34h0Zm-13.23,2.35-2.34,2.34v10.89l2.34,2.34-2.34,2.35v10.88l2.34,2.35-2.34,2.34v10.89l2.34,2.35h0L975.55,519l-2.35-2.34H962.31L960,519v10.89l2.34,2.34L960,534.56l-2.35-2.35H946.74l-2.35,2.35v10.88l2.35,2.35h0l-2.35,2.34-2.34-2.34H931.16l-2.34,2.34-2.35-2.34H915.58l-2.34,2.34-2.35-2.34H900l-2.35,2.34-2.34-2.34H884.43l-2.34,2.34-2.35-2.34H868.85l-2.34,2.34-2.35-2.34H853.28l-2.35,2.34-2.34-2.34,2.34-2.35V534.56l-2.34-2.35h0l2.34-2.34V519l-2.34-2.34h0l2.34-2.35V503.4l-2.34-2.34,2.34-2.35V487.83l-2.34-2.35,2.34-2.34V472.25l-2.34-2.34h0l2.34-2.35V456.67l-2.34-2.34h0l2.34-2.35,2.35,2.35h10.88l2.35-2.35,2.34,2.35h10.89l2.35-2.35,2.34,2.35h10.89l2.34-2.35,2.35,2.35h10.88l2.35-2.35,2.34,2.35h10.89l2.35-2.35,2.34,2.35h10.89l2.34-2.35,2.35,2.35-2.35,2.34v10.89l2.35,2.35h10.88l2.35-2.35,2.34,2.35H973.2l2.35-2.35,2.34,2.35Z" transform="translate(-259.02 -376.45)"/><path d="M1224.77,519l-2.34-2.34h-10.89l-2.35,2.34-2.34-2.34h0l2.34-2.35V503.4l-2.34-2.34h0l2.34-2.35V487.83l-2.34-2.35,2.34-2.34V472.25l-2.34-2.34H1196l-2.34,2.34-2.35-2.34h0l2.35-2.35V456.67l-2.35-2.34h-10.88l-2.35,2.34-2.34-2.34h-10.89l-2.34,2.34-2.35-2.34,2.35-2.35V441.1l-2.35-2.35h-10.89l-2.34,2.35-2.35-2.35h-10.88l-2.35,2.35-2.34-2.35h-10.89l-2.34,2.35-2.35-2.35H1102.5l-2.34,2.35-2.35-2.35h-10.88l-2.35,2.35V452l2.35,2.35h0l-2.35,2.34-2.34-2.34h-10.89l-2.34,2.34-2.35-2.34h-10.89l-2.34,2.34v10.89l2.34,2.35h0l-2.34,2.34-2.35-2.34H1040.2l-2.35,2.34v10.89l2.35,2.34-2.35,2.35v10.88l2.35,2.35h0l-2.35,2.34v10.89l2.35,2.35h0l-2.35,2.34-2.34-2.34h-10.89l-2.34,2.34v10.89l2.34,2.34-2.34,2.35v10.88l2.34,2.35-2.34,2.34V561l2.34,2.34h10.89l2.34-2.34,2.35,2.34-2.35,2.35V576.6l2.35,2.34-2.35,2.35v10.88l2.35,2.35-2.35,2.34v10.89l2.35,2.34h10.88l2.35-2.34,2.34,2.34-2.34,2.35v10.89l2.34,2.34h10.89l2.35-2.34,2.34,2.34h10.89l2.34-2.34,2.35,2.34h0l-2.35,2.35V638.9l2.35,2.35h10.88l2.35-2.35,2.34,2.35h10.89l2.35-2.35,2.34,2.35H1129l2.34-2.35,2.35,2.35h10.88l2.35-2.35,2.34,2.35h10.89l2.34-2.35V628l-2.34-2.35h0l2.34-2.34,2.35,2.34h10.89l2.34-2.34,2.35,2.34h10.88l2.35-2.34V612.44l-2.35-2.35,2.35-2.34,2.34,2.34h10.89l2.34-2.34V596.86l-2.34-2.34,2.34-2.35V581.29l-2.34-2.35h0l2.34-2.34V565.71l-2.34-2.35h0l2.34-2.34,2.35,2.34h10.89l2.34-2.34V550.13l-2.34-2.34h0l2.34-2.35V534.56l-2.34-2.35,2.34-2.34Zm-13.23,28.81h0l-2.35,2.34-2.34-2.34H1196l-2.34,2.34V561l2.34,2.34-2.34,2.35V576.6l2.34,2.34-2.34,2.35v10.88l2.34,2.35-2.34,2.34-2.35-2.34h-10.88l-2.35,2.34v10.89l2.35,2.34h0l-2.35,2.35-2.34-2.35h-10.89l-2.35,2.35-2.34-2.35h-10.89l-2.34,2.35v10.89l2.34,2.34h0l-2.34,2.35-2.35-2.35h-10.88l-2.35,2.35-2.34-2.35h-10.89l-2.34,2.35-2.35-2.35H1102.5l-2.34,2.35-2.35-2.35h0l2.35-2.34V612.44l-2.35-2.35h-10.88l-2.35,2.35-2.34-2.35h-10.89l-2.34,2.35-2.35-2.35,2.35-2.34V596.86l-2.35-2.34h-10.89l-2.34,2.34-2.35-2.34,2.35-2.35V581.29l-2.35-2.35,2.35-2.34V565.71l-2.35-2.35,2.35-2.34V550.13l-2.35-2.34H1040.2l-2.35,2.34-2.34-2.34,2.34-2.35V534.56l-2.34-2.35h0l2.34-2.34,2.35,2.34h10.88l2.35-2.34V519l-2.35-2.34h0l2.35-2.35V503.4l-2.35-2.34,2.35-2.35V487.83l-2.35-2.35,2.35-2.34,2.34,2.34h10.89l2.35-2.34V472.25l-2.35-2.34h0l2.35-2.35,2.34,2.35h10.89l2.34-2.35,2.35,2.35h10.88l2.35-2.35V456.67l-2.35-2.34h0l2.35-2.35,2.34,2.35h10.89l2.35-2.35,2.34,2.35H1129l2.34-2.35,2.35,2.35h10.88l2.35-2.35,2.34,2.35-2.34,2.34v10.89l2.34,2.35h10.89l2.35-2.35,2.34,2.35h10.89l2.34-2.35h0l2.35,2.35h0l-2.35,2.34v10.89l2.35,2.34h10.88l2.35-2.34,2.34,2.34-2.34,2.35v10.88l2.34,2.35h0l-2.34,2.34v10.89l2.34,2.35-2.34,2.34v10.89l2.34,2.34h10.89l2.34-2.34,2.35,2.34h0l-2.35,2.35v10.88Z" transform="translate(-259.02 -376.45)"/><path d="M1458.42,529.87V519l-2.34-2.34h-10.89l-2.35,2.34-2.34-2.34h0l2.34-2.35V503.4l-2.34-2.34h0l2.34-2.35V487.83l-2.34-2.35,2.34-2.34V472.25l-2.34-2.34h-10.89l-2.34,2.34-2.35-2.34h0l2.35-2.35V456.67l-2.35-2.34H1414l-2.35,2.34-2.34-2.34h-10.89l-2.35,2.34-2.34-2.34h0l2.34-2.35V441.1l-2.34-2.35h-10.89l-2.34,2.35-2.35-2.35h-10.88L1365,441.1l-2.34-2.35h-10.89l-2.35,2.35-2.34-2.35h-10.89l-2.34,2.35-2.35-2.35h-10.88l-2.35,2.35V452l2.35,2.35h0l-2.35,2.34-2.34-2.34H1305l-2.34,2.34-2.35-2.34h-10.89l-2.34,2.34v10.89l2.34,2.35h0l-2.34,2.34-2.35-2.34h-10.88l-2.35,2.34v10.89l2.35,2.34-2.35,2.35v10.88l2.35,2.35h0l-2.35,2.34v10.89l2.35,2.35h0L1271.5,519l-2.34-2.34h-10.89l-2.35,2.34v10.89l2.35,2.34h0l-2.35,2.35v10.88l2.35,2.35h0l-2.35,2.34V561l2.35,2.34h10.89l2.34-2.34,2.35,2.34h0l-2.35,2.35V576.6l2.35,2.34-2.35,2.35v10.88l2.35,2.35-2.35,2.34v10.89l2.35,2.34h10.88l2.35-2.34,2.34,2.34-2.34,2.35v10.89l2.34,2.34h10.89l2.34-2.34,2.35,2.34h10.89l2.34-2.34,2.35,2.34h0l-2.35,2.35V638.9l2.35,2.35h10.88l2.35-2.35,2.34,2.35H1347l2.34-2.35,2.35,2.35h10.89l2.34-2.35,2.35,2.35h10.88l2.35-2.35,2.34,2.35h10.89l2.34-2.35V628l-2.34-2.35h0l2.34-2.34,2.35,2.34h10.89l2.34-2.34,2.35,2.34h10.88l2.35-2.34V612.44l-2.35-2.35,2.35-2.34,2.34,2.34h10.89l2.34-2.34V596.86l-2.34-2.34,2.34-2.35V581.29l-2.34-2.35,2.34-2.34V565.71l-2.34-2.35h0l2.34-2.34,2.35,2.34h10.89l2.34-2.34V550.13l-2.34-2.34h0l2.34-2.35V534.56l-2.34-2.35h0Zm-13.23,2.34-2.35,2.35v10.88l2.35,2.35h0l-2.35,2.34-2.34-2.34h-10.89l-2.34,2.34V561l2.34,2.34h0l-2.34,2.35V576.6l2.34,2.34-2.34,2.35v10.88l2.34,2.35-2.34,2.34-2.35-2.34H1414l-2.35,2.34v10.89l2.35,2.34h0l-2.35,2.35-2.34-2.35h-10.89l-2.35,2.35-2.34-2.35h-10.89l-2.34,2.35v10.89l2.34,2.34h0l-2.34,2.35-2.35-2.35h-10.88L1365,628l-2.34-2.35h-10.89l-2.35,2.35-2.34-2.35h-10.89l-2.34,2.35-2.35-2.35,2.35-2.34V612.44l-2.35-2.35h-10.88l-2.35,2.35-2.34-2.35H1305l-2.35,2.35-2.34-2.35h0l2.34-2.34V596.86l-2.34-2.34h-10.89l-2.34,2.34-2.35-2.34,2.35-2.35V581.29l-2.35-2.35,2.35-2.34V565.71l-2.35-2.35,2.35-2.34V550.13l-2.35-2.34h-10.88l-2.35,2.34-2.34-2.34h0l2.34-2.35V534.56l-2.34-2.35h0l2.34-2.34,2.35,2.34h10.88l2.35-2.34V519l-2.35-2.34h0l2.35-2.35V503.4l-2.35-2.34h0l2.35-2.35V487.83l-2.35-2.35,2.35-2.34,2.34,2.34h10.89l2.34-2.34V472.25l-2.34-2.34h0l2.35-2.35,2.34,2.35h10.89l2.34-2.35h0l2.35,2.35h10.88l2.35-2.35V456.67l-2.35-2.34h0l2.35-2.35,2.34,2.35H1347l2.34-2.35,2.35,2.35h10.89L1365,452l2.35,2.35h10.88l2.35-2.35,2.34,2.35h0l-2.34,2.34v10.89l2.34,2.35h10.89l2.34-2.35,2.35,2.35h10.89l2.34-2.35,2.35,2.35h0l-2.35,2.34v10.89l2.35,2.34h10.88l2.35-2.34,2.34,2.34-2.34,2.35v10.88l2.34,2.35h0l-2.34,2.34v10.89l2.34,2.35h0l-2.34,2.34v10.89l2.34,2.34h10.89l2.34-2.34,2.35,2.34Z" transform="translate(-259.02 -376.45)"/><polygon points="1352.82 249.23 1341.93 249.23 1339.59 251.57 1337.24 249.23 1326.36 249.23 1324.01 251.57 1321.67 249.23 1310.78 249.23 1308.44 251.57 1306.09 249.23 1295.2 249.23 1292.86 251.57 1290.52 249.23 1279.63 249.23 1277.28 251.57 1274.94 249.23 1264.05 249.23 1261.71 251.57 1259.36 249.23 1248.47 249.23 1246.13 251.57 1243.79 249.23 1243.79 249.23 1246.13 246.88 1246.13 235.99 1243.79 233.65 1243.79 233.65 1246.13 231.3 1246.13 220.42 1243.79 218.07 1246.13 215.73 1246.13 204.84 1243.79 202.5 1246.13 200.15 1246.13 189.26 1243.79 186.92 1243.79 186.92 1246.13 184.57 1246.13 173.69 1243.79 171.34 1243.79 171.34 1246.13 169 1246.13 158.11 1243.79 155.77 1243.79 155.77 1246.13 153.42 1246.13 142.53 1243.79 140.19 1243.79 140.19 1246.13 137.84 1246.13 126.96 1243.79 124.61 1243.79 124.61 1246.13 122.27 1246.13 111.38 1243.79 109.04 1246.13 106.69 1246.13 95.81 1243.79 93.46 1243.85 93.46 1246.19 91.11 1246.19 80.23 1243.85 77.88 1243.79 77.88 1246.13 75.54 1246.13 64.65 1243.79 62.31 1232.9 62.31 1230.55 64.65 1230.55 75.54 1232.9 77.88 1232.96 77.88 1230.62 80.23 1230.62 91.11 1232.96 93.46 1232.9 93.46 1230.55 95.81 1230.55 106.69 1232.9 109.04 1230.55 111.38 1230.55 122.27 1232.9 124.61 1232.9 124.61 1230.55 126.96 1230.55 137.84 1232.9 140.19 1232.9 140.19 1230.55 142.53 1230.55 153.42 1232.9 155.77 1232.9 155.77 1230.55 158.11 1230.55 169 1232.9 171.34 1232.9 171.34 1230.55 173.69 1230.55 184.57 1232.9 186.92 1232.9 186.92 1230.55 189.26 1230.55 200.15 1232.9 202.5 1230.55 204.84 1230.55 215.73 1232.9 218.07 1230.55 220.42 1230.55 231.3 1232.9 233.65 1232.9 233.65 1230.55 235.99 1230.55 246.88 1232.9 249.23 1232.9 249.23 1230.55 251.57 1230.55 262.46 1232.9 264.8 1243.79 264.8 1246.13 262.46 1248.47 264.8 1259.36 264.8 1261.71 262.46 1264.05 264.8 1274.94 264.8 1277.28 262.46 1279.63 264.8 1290.52 264.8 1292.86 262.46 1295.2 264.8 1306.09 264.8 1308.44 262.46 1310.78 264.8 1321.67 264.8 1324.01 262.46 1326.36 264.8 1337.24 264.8 1339.59 262.46 1341.93 264.8 1352.82 264.8 1355.17 262.46 1355.17 251.57 1352.82 249.23"/><path d="M632.86,529.87l2.34,2.34h10.89l2.35-2.34V519l-2.35-2.34h0l2.35-2.35V503.4l-2.35-2.34,2.35-2.35V487.83l-2.35-2.35,2.35-2.34V472.25l-2.35-2.34H635.2l-2.34,2.34-2.35-2.34h0l2.35-2.35V456.67l-2.35-2.34H619.63l-2.35,2.34-2.34-2.34h0l2.34-2.35V441.1l-2.34-2.35H604.05l-2.34,2.35-2.35-2.35H588.48l-2.35,2.35-2.35-2.35H572.9l-2.35,2.35-2.34-2.35H557.32L555,441.1l-2.35-2.35H541.75l-2.35,2.35-2.35-2.35H526.17l-2.35,2.35-2.34-2.35H510.59l-2.34,2.35V452l2.34,2.35h0l-2.34,2.34v10.89l2.34,2.35h0l-2.34,2.34v10.89l2.34,2.34-2.34,2.35v10.88l2.34,2.35-2.34,2.34v10.89l2.34,2.35L508.25,519v10.89l2.34,2.34h0l-2.34,2.35v10.88l2.34,2.35-2.34,2.34V561l2.34,2.34h0l-2.34,2.35V576.6l2.34,2.34-2.34,2.35v10.88l2.34,2.35h0l-2.34,2.34v10.89l2.34,2.34-2.34,2.35v10.89l2.34,2.34L508.25,628V638.9l2.34,2.35h10.89l2.34-2.35V628l-2.34-2.35,2.34-2.34V612.44l-2.34-2.35,2.34-2.34V596.86l-2.34-2.34h0l2.34-2.35V581.29l-2.34-2.35,2.34-2.34V565.71l-2.34-2.35h0l2.34-2.34,2.35,2.34h10.88L539.4,561l2.35,2.34h10.88L555,561l2.34,2.34h10.89l2.34-2.34,2.35,2.34h10.88l2.35-2.34,2.34,2.34h10.89l2.35-2.34,2.34,2.34-2.34,2.35V576.6l2.34,2.34-2.34,2.35v10.88l2.34,2.35h10.89l2.34-2.35,2.35,2.35h0l-2.35,2.34v10.89l2.35,2.34h10.88l2.35-2.34,2.34,2.34h0l-2.34,2.35v10.89l2.34,2.34h0L632.86,628V638.9l2.34,2.35h10.89l2.35-2.35V628l-2.35-2.35h0l2.35-2.34V612.44l-2.35-2.35h0l2.35-2.34V596.86l-2.35-2.34H635.2l-2.34,2.34-2.35-2.34h0l2.35-2.35V581.29l-2.35-2.35H619.63l-2.35,2.35-2.34-2.35,2.34-2.34V565.71l-2.34-2.35,2.34-2.34V550.13l-2.34-2.34,2.34-2.35,2.35,2.35h10.88l2.35-2.35V534.56l-2.35-2.35h0Zm-13.23-13.23L617.28,519v10.89l2.35,2.34h0l-2.35,2.35-2.34-2.35H604.05l-2.34,2.35v10.88l2.34,2.35-2.34,2.34-2.35-2.34H588.47l-2.34,2.34-2.35-2.34H572.9l-2.35,2.34-2.34-2.34H557.32L555,550.13l-2.35-2.34H541.75l-2.35,2.34-2.35-2.34H526.17l-2.35,2.34-2.34-2.34,2.34-2.35V534.56l-2.34-2.35h0l2.34-2.34V519l-2.34-2.34,2.34-2.35V503.4l-2.34-2.34,2.34-2.35V487.83l-2.34-2.35,2.34-2.34V472.25l-2.34-2.34h0l2.34-2.35V456.67l-2.34-2.34,2.34-2.35,2.35,2.35h10.88L539.4,452l2.35,2.35h10.88L555,452l2.34,2.35h10.89l2.34-2.35,2.35,2.35h10.88l2.35-2.35,2.35,2.35h10.88l2.35-2.35,2.34,2.35-2.34,2.34v10.89l2.34,2.35h10.89l2.34-2.35,2.35,2.35h0l-2.35,2.34v10.89l2.35,2.34h10.88l2.35-2.34,2.34,2.34-2.34,2.35v10.88l2.34,2.35-2.34,2.34v10.89l2.34,2.35h0L632.86,519l-2.35-2.34Z" transform="translate(-259.02 -376.45)"/><polygon points="542.84 62.31 531.95 62.31 529.61 64.65 527.26 62.31 516.37 62.31 514.03 64.65 511.68 62.31 500.8 62.31 498.45 64.65 496.11 62.31 485.22 62.31 482.88 64.65 480.53 62.31 469.64 62.31 467.3 64.65 464.95 62.31 454.07 62.31 451.72 64.65 449.38 62.31 438.49 62.31 436.15 64.65 433.8 62.31 422.91 62.31 420.57 64.65 418.22 62.31 407.34 62.31 404.99 64.65 404.99 75.54 407.34 77.88 418.22 77.88 420.57 75.54 422.91 77.88 433.8 77.88 436.15 75.54 438.49 77.88 449.38 77.88 451.72 75.54 454.07 77.88 464.95 77.88 467.3 75.54 469.64 77.88 467.3 80.23 467.3 91.11 469.64 93.46 469.64 93.46 467.3 95.81 467.3 106.69 469.64 109.04 467.3 111.38 467.3 122.27 469.64 124.61 467.3 126.96 467.3 137.84 469.64 140.19 467.3 142.53 467.3 153.42 469.64 155.77 469.64 155.77 467.3 158.11 467.3 169 469.64 171.34 467.3 173.69 467.3 184.57 469.64 186.92 467.3 189.26 467.3 200.15 469.64 202.5 467.3 204.84 467.3 215.73 469.64 218.07 469.64 218.07 467.3 220.42 467.3 231.3 469.64 233.65 469.64 233.65 467.3 235.99 467.3 246.88 469.64 249.23 469.64 249.23 467.3 251.57 467.3 262.46 469.64 264.8 480.53 264.8 482.88 262.46 482.88 251.57 480.53 249.23 480.53 249.23 482.88 246.88 482.88 235.99 480.53 233.65 480.53 233.65 482.88 231.3 482.88 220.42 480.53 218.07 480.53 218.07 482.88 215.73 482.88 204.84 480.53 202.5 482.88 200.15 482.88 189.26 480.53 186.92 482.88 184.57 482.88 173.69 480.53 171.34 482.88 169 482.88 158.11 480.53 155.77 480.53 155.77 482.88 153.42 482.88 142.53 480.53 140.19 482.88 137.84 482.88 126.96 480.53 124.61 482.88 122.27 482.88 111.38 480.53 109.04 482.88 106.69 482.88 95.81 480.53 93.46 480.53 93.46 482.88 91.11 482.88 80.23 480.53 77.88 482.88 75.54 485.22 77.88 496.11 77.88 498.45 75.54 500.8 77.88 511.68 77.88 514.03 75.54 516.37 77.88 527.26 77.88 529.61 75.54 531.95 77.88 542.84 77.88 545.18 75.54 545.18 64.65 542.84 62.31"/><path d="M477.09,612.44l-2.34-2.35,2.34-2.34V596.86l-2.34-2.34,2.34-2.35V581.29l-2.34-2.35H463.86l-2.34,2.35-2.35-2.35,2.35-2.34V565.71l-2.35-2.35,2.35-2.34V550.13l-2.35-2.34,2.35-2.35V534.56l-2.35-2.35h0l2.35-2.34V519l-2.35-2.34H448.29L445.94,519l-2.34-2.34,2.34-2.35V503.4l-2.34-2.34H432.71l-2.35,2.34L428,501.06l2.34-2.35V487.83L428,485.48l2.34-2.34V472.25L428,469.91l2.34-2.35V456.67L428,454.33l2.34-2.35V441.1L428,438.75H417.13l-2.34,2.35-2.35-2.35H401.56l-2.35,2.35-2.34-2.35H386l-2.35,2.35-2.34-2.35H370.4l-2.34,2.35V452l2.34,2.35-2.34,2.34v10.89l2.34,2.35-2.34,2.34v10.89l2.34,2.34-2.34,2.35v10.88l2.34,2.35-2.34,2.34-2.35-2.34H354.83l-2.35,2.34v10.89l2.35,2.35L352.48,519l-2.34-2.34H339.25L336.9,519v10.89l2.35,2.34-2.35,2.35v10.88l2.35,2.35-2.35,2.34V561l2.35,2.34-2.35,2.35V576.6l2.35,2.34-2.35,2.35-2.34-2.35H323.67l-2.34,2.35v10.88l2.34,2.35-2.34,2.34v10.89l2.34,2.34-2.34,2.35v10.89l2.34,2.34L321.33,628V638.9l2.34,2.35h10.89l2.34-2.35V628l-2.34-2.35,2.34-2.34V612.44l-2.34-2.35,2.34-2.34V596.86l-2.34-2.34,2.34-2.35,2.35,2.35h10.89l2.34-2.35V581.29l-2.34-2.35,2.34-2.34V565.71l-2.34-2.35,2.34-2.34,2.35,2.34h10.88l2.35-2.34,2.34,2.34h10.89l2.34-2.34,2.35,2.34h10.89l2.34-2.34,2.35,2.34h10.88l2.35-2.34,2.34,2.34H428l2.34-2.34,2.35,2.34H443.6l2.34-2.34,2.35,2.34h0l-2.35,2.35V576.6l2.35,2.34-2.35,2.35v10.88l2.35,2.35h10.88l2.35-2.35,2.34,2.35-2.34,2.34v10.89l2.34,2.34-2.34,2.35v10.89l2.34,2.34L461.52,628V638.9l2.34,2.35h10.89l2.34-2.35V628l-2.34-2.35,2.34-2.34Zm-28.8-80.23-2.35,2.35v10.88l2.35,2.35-2.35,2.34-2.34-2.34H432.71l-2.35,2.34L428,547.79H417.13l-2.34,2.34-2.35-2.34H401.56l-2.35,2.34-2.34-2.34H386l-2.35,2.34-2.34-2.34H370.4l-2.34,2.34-2.35-2.34H354.83l-2.35,2.34-2.34-2.34,2.34-2.35V534.56l-2.34-2.35,2.34-2.34,2.35,2.34h10.88l2.35-2.34V519l-2.35-2.34,2.35-2.35,2.34,2.35h10.89l2.34-2.35V503.4l-2.34-2.34,2.34-2.35V487.83l-2.34-2.35,2.34-2.34V472.25l-2.34-2.34,2.34-2.35V456.67l-2.34-2.34,2.34-2.35,2.35,2.35h10.89l2.34-2.35,2.35,2.35h10.88l2.35-2.35,2.34,2.35-2.34,2.34v10.89l2.34,2.35-2.34,2.34v10.89l2.34,2.34-2.34,2.35v10.88l2.34,2.35-2.34,2.34v10.89l2.34,2.35H428l2.34-2.35,2.35,2.35L430.36,519v10.89l2.35,2.34H443.6l2.34-2.34,2.35,2.34Z" transform="translate(-259.02 -376.45)"/><path class="cls-1" d="M850.93,519v10.89l2.35,2.34h0l-2.35,2.35v10.88l2.35,2.35h10.88l2.35-2.35,2.34,2.35h10.89l2.35-2.35,2.34,2.35h10.89l2.34-2.35,2.35,2.35h10.88l2.35-2.35,2.34,2.35h10.89l2.35-2.35,2.34,2.35h10.89l2.34-2.35V534.56l-2.34-2.35h0l2.34-2.34,2.35,2.34h10.88l2.35-2.34V519l-2.35-2.34h0l2.35-2.35,2.34,2.35H973.2l2.35-2.35V503.4l-2.35-2.34,2.35-2.35V487.83l-2.35-2.35,2.35-2.34V472.25l-2.35-2.34H962.31L960,472.25l-2.35-2.34H946.74l-2.35,2.34-2.34-2.34h0l2.34-2.35V456.67l-2.34-2.34H931.16l-2.34,2.34-2.35-2.34H915.58l-2.34,2.34-2.35-2.34H900l-2.35,2.34-2.34-2.34H884.43l-2.34,2.34-2.35-2.34H868.85l-2.34,2.34-2.35-2.34H853.28l-2.35,2.34v10.89l2.35,2.35h0l-2.35,2.34v10.89l2.35,2.34-2.35,2.35v10.88l2.35,2.35-2.35,2.34v10.89l2.35,2.35Zm109-35.84,2.34,2.34L960,487.83l-2.35-2.35Zm0,15.57,2.34,2.35L960,503.4l-2.35-2.34ZM944.39,519l-2.34-2.34,2.34-2.35,2.35,2.35Zm0-35.84,2.35,2.34-2.35,2.35-2.34-2.35Zm0,15.57,2.35,2.35-2.35,2.34-2.34-2.34Zm-13.23,33.5-2.34,2.35-2.35-2.35h0l2.35-2.34,2.34,2.34Zm-4.69-15.57,2.35-2.35,2.34,2.35h0L928.82,519l-2.35-2.34Zm0-46.73,2.35-2.35,2.34,2.35h0l-2.34,2.34-2.35-2.34Zm2.35,13.23,2.34,2.34-2.34,2.35-2.35-2.35Zm0,15.57,2.34,2.35-2.34,2.34-2.35-2.34Zm-13.24,33.5-2.34,2.35-2.35-2.35h0l2.35-2.34,2.34,2.34Zm-4.69-15.57,2.35-2.35,2.34,2.35L913.24,519l-2.35-2.34Zm0-46.73,2.35-2.35,2.34,2.35h0l-2.34,2.34-2.35-2.34Zm2.35,13.23,2.34,2.34-2.34,2.35-2.35-2.35Zm0,15.57,2.34,2.35-2.34,2.34-2.35-2.34ZM900,532.21l-2.35,2.35-2.34-2.35h0l2.34-2.34,2.35,2.34Zm-4.69-15.57,2.34-2.35,2.35,2.35h0L897.66,519Zm0-46.73,2.34-2.35,2.35,2.35h0l-2.35,2.34-2.34-2.34Zm2.34,13.23,2.35,2.34-2.35,2.35-2.34-2.35Zm0,15.57,2.35,2.35-2.35,2.34-2.34-2.34Zm-13.23,33.5-2.34,2.35-2.35-2.35h0l2.35-2.34,2.34,2.34Zm-4.69-15.57,2.35-2.35,2.34,2.35L882.09,519l-2.35-2.34Zm0-46.73,2.35-2.35,2.34,2.35h0l-2.34,2.34-2.35-2.34Zm2.35,13.23,2.34,2.34-2.34,2.35-2.35-2.35Zm0,15.57,2.34,2.35-2.34,2.34-2.35-2.34Zm-13.24,33.5-2.34,2.35-2.35-2.35h0l2.35-2.34,2.34,2.34Zm-4.69-15.57,2.35-2.35,2.34,2.35h0L866.51,519Zm0-46.73,2.35-2.35,2.34,2.35h0l-2.34,2.34-2.35-2.34Zm2.35,13.23,2.34,2.34-2.34,2.35-2.35-2.35Zm0,15.57,2.34,2.35-2.34,2.34-2.35-2.34Z" transform="translate(-259.02 -376.45)"/><path class="cls-1" d="M1082.24,469.91h-10.89l-2.34,2.34v10.89l2.34,2.34-2.34,2.35-2.35-2.35h-10.89l-2.34,2.35v10.88l2.34,2.35h0l-2.34,2.34v10.89l2.34,2.35-2.34,2.34v10.89l2.34,2.34h0l-2.34,2.35-2.35-2.35H1040.2l-2.35,2.35v10.88l2.35,2.35h10.88l2.35-2.35,2.34,2.35-2.34,2.34V561l2.34,2.34-2.34,2.35V576.6l2.34,2.34-2.34,2.35v10.88l2.34,2.35h10.89l2.35-2.35,2.34,2.35-2.34,2.34v10.89l2.34,2.34h10.89l2.34-2.34,2.35,2.34h10.88l2.35-2.34,2.34,2.34-2.34,2.35v10.89l2.34,2.34h10.89l2.34-2.34,2.35,2.34H1129l2.34-2.34,2.35,2.34h10.88l2.35-2.34V612.44l-2.35-2.35h0l2.35-2.34,2.34,2.34h10.89l2.34-2.34,2.35,2.34h10.89l2.34-2.34V596.86l-2.34-2.34,2.34-2.35,2.35,2.35h10.88l2.35-2.35V581.29l-2.35-2.35h0l2.35-2.34V565.71l-2.35-2.35h0l2.35-2.34V550.13l-2.35-2.34,2.35-2.35,2.34,2.35h10.89l2.34-2.35V534.56l-2.34-2.35H1196l-2.34,2.35-2.35-2.35,2.35-2.34V519l-2.35-2.34h0l2.35-2.35V503.4l-2.35-2.34h0l2.35-2.35V487.83l-2.35-2.35h-10.88l-2.35,2.35-2.34-2.35,2.34-2.34V472.25l-2.34-2.34h-10.89l-2.35,2.34-2.34-2.34h-10.89l-2.34,2.34-2.35-2.34h0l2.35-2.35V456.67l-2.35-2.34h-10.88l-2.35,2.34-2.34-2.34h-10.89l-2.34,2.34-2.35-2.34H1102.5l-2.34,2.34v10.89l2.34,2.35h0l-2.34,2.34-2.35-2.34h-10.88l-2.35,2.34Zm-15.58,46.73,2.35-2.35,2.34,2.35L1069,519l-2.35-2.34Zm2.35,64.65-2.35-2.35,2.35-2.34,2.34,2.34Zm0-15.58-2.35-2.35L1069,561l2.34,2.34Zm-2.35-17.92,2.35-2.35,2.34,2.35-2.34,2.34Zm4.69-15.58-2.34,2.35-2.35-2.35,2.35-2.34,2.34,2.34Zm0-31.15L1069,503.4l-2.35-2.34h0l2.35-2.35,2.34,2.35Zm75.54,95.8-2.35-2.34h0l2.35-2.35,2.34,2.35Zm15.57,0-2.34-2.34,2.34-2.35,2.35,2.35Zm13.24-80.22,2.34-2.35,2.35,2.35L1178,519l-2.34-2.34Zm2.34,64.65-2.34-2.35h0l2.34-2.34,2.35,2.34Zm0-15.58-2.34-2.35h0L1178,561l2.35,2.34Zm-2.34-17.92,2.34-2.35,2.35,2.35-2.35,2.34Zm4.69-15.58-2.35,2.35-2.34-2.35,2.34-2.34,2.35,2.34Zm-4.69-31.15,2.34-2.35,2.35,2.35h0L1178,503.4l-2.34-2.34Zm-10.89,77.88-2.35,2.35-2.34-2.35h0l2.35-2.34,2.34,2.34Zm0-15.58-2.34,2.35-2.35-2.35h0l2.34-2.34,2.35,2.34Zm-2.35-17.92,2.35,2.35-2.35,2.34-2.34-2.34Zm-2.34-13.23,2.34-2.34,2.35,2.34-2.35,2.35Zm2.34-49.07,2.35,2.34-2.35,2.35-2.34-2.35Zm-2.34,17.92,2.34-2.35,2.35,2.35h0l-2.35,2.34-2.34-2.34Zm2.34,13.23,2.35,2.35h0l-2.35,2.34-2.34-2.34h0Zm-13.23,64.65-2.34,2.35-2.35-2.35h0l2.35-2.34,2.34,2.34Zm0-15.58-2.34,2.35-2.35-2.35h0l2.35-2.34,2.34,2.34Zm-2.34-17.92,2.34,2.35-2.34,2.34-2.35-2.34Zm-2.35-13.23,2.35-2.34,2.34,2.34-2.34,2.35Zm2.35-49.07,2.34,2.34-2.34,2.35-2.35-2.35Zm-2.35,17.92,2.35-2.35,2.34,2.35h0l-2.34,2.34-2.35-2.34Zm2.35,13.23,2.34,2.35h0l-2.34,2.34-2.35-2.34h0Zm-13.23,64.65-2.35,2.35-2.34-2.35,2.34-2.34,2.35,2.34Zm0,15.58-2.35,2.34-2.34-2.34,2.34-2.35ZM1129,563.36l2.34-2.34,2.35,2.34h0l-2.35,2.35Zm2.34-95.8,2.35,2.35h0l-2.35,2.34-2.34-2.34Zm0,15.58,2.35,2.34-2.35,2.35-2.34-2.35ZM1129,501.06l2.34-2.35,2.35,2.35h0l-2.35,2.34-2.34-2.34Zm2.34,13.23,2.35,2.35h0l-2.35,2.34-2.34-2.34h0ZM1129,532.21l2.34-2.34,2.35,2.34-2.35,2.35-2.34-2.35Zm2.34,13.23,2.35,2.35-2.35,2.34-2.34-2.34h0ZM1129,610.09l2.34-2.34,2.35,2.34-2.35,2.35-2.34-2.35Zm-13.24,2.35-2.34-2.35,2.35-2.34,2.34,2.34Zm0-15.58-2.35-2.34,2.35-2.35,2.34,2.35Zm2.34-17.92-2.34,2.35-2.35-2.35,2.35-2.34,2.34,2.34Zm-4.69-15.58,2.35-2.34,2.34,2.34h0l-2.34,2.35Zm0-93.45,2.35-2.35,2.34,2.35h0l-2.34,2.34-2.35-2.34Zm2.35,13.23,2.34,2.34-2.34,2.35-2.35-2.35Zm-2.35,17.92,2.35-2.35,2.34,2.35h0l-2.35,2.34-2.34-2.34Zm4.69,15.58-2.34,2.34-2.35-2.34h0l2.34-2.35,2.35,2.35Zm-4.69,15.57,2.35-2.34,2.34,2.34-2.35,2.35-2.34-2.35Zm2.34,13.23,2.35,2.35-2.34,2.34-2.35-2.34h0Zm-17.92-28.8,2.35-2.35,2.34,2.35h0l-2.34,2.34-2.35-2.34Zm2.35,28.8,2.34,2.35-2.34,2.34-2.35-2.34Zm-2.35-13.23,2.35-2.34,2.34,2.34-2.34,2.35Zm2.35,28.81,2.34,2.34-2.34,2.35-2.35-2.35Zm0,35.84-2.35-2.34,2.35-2.35,2.34,2.35Zm2.34-17.92h0l-2.34,2.35-2.35-2.35,2.35-2.34Zm-2.34-95.8,2.34,2.34-2.34,2.35-2.35-2.35Zm-2.35,17.92,2.35-2.35,2.34,2.35h0l-2.34,2.34-2.35-2.34Zm-15.57,0,2.34-2.35,2.35,2.35h0l-2.35,2.34-2.34-2.34Zm2.34,44.38,2.35,2.35-2.35,2.34-2.34-2.34Zm-2.34-13.23,2.34-2.34,2.35,2.34-2.35,2.35Zm2.34,28.81,2.35,2.34-2.35,2.35-2.34-2.35Zm-2.34-44.38,2.34-2.35,2.35,2.35h0l-2.35,2.34-2.34-2.34Zm2.34,80.22-2.34-2.34,2.34-2.35,2.35,2.35Zm2.35-17.92-2.35,2.35-2.34-2.35,2.34-2.34,2.35,2.34Zm0-93.46-2.35,2.35-2.34-2.35,2.34-2.34,2.35,2.34Z" transform="translate(-259.02 -376.45)"/><path class="cls-1" d="M1271.5,545.44l2.35,2.35h10.88l2.35-2.35,2.34,2.35h0l-2.34,2.34V561l2.34,2.34h0l-2.34,2.35V576.6l2.34,2.34-2.34,2.35v10.88l2.34,2.35h10.89l2.34-2.35,2.35,2.35-2.35,2.34v10.89l2.35,2.34h10.89l2.34-2.34,2.35,2.34h10.88l2.35-2.34,2.34,2.34-2.34,2.35v10.89l2.34,2.34H1347l2.34-2.34,2.35,2.34h10.89l2.34-2.34,2.35,2.34h10.88l2.35-2.34V612.44l-2.35-2.35,2.35-2.34,2.34,2.34h10.89l2.34-2.34,2.35,2.34h10.89l2.34-2.34V596.86l-2.34-2.34,2.34-2.35,2.35,2.35h10.88l2.35-2.35V581.29l-2.35-2.35,2.35-2.34V565.71l-2.35-2.35h0l2.35-2.34V550.13l-2.35-2.34h0l2.35-2.35,2.34,2.35h10.89l2.34-2.35V534.56l-2.34-2.35h-10.89l-2.34,2.35-2.35-2.35h0l2.35-2.34V519l-2.35-2.34h0l2.35-2.35V503.4l-2.35-2.34h0l2.35-2.35V487.83l-2.35-2.35H1414l-2.35,2.35-2.34-2.35,2.34-2.34V472.25l-2.34-2.34h-10.89l-2.35,2.34-2.34-2.34h-10.89l-2.34,2.34-2.35-2.34h0l2.35-2.35V456.67l-2.35-2.34h-10.88l-2.35,2.34-2.34-2.34h-10.89l-2.35,2.34-2.34-2.34h-10.89l-2.34,2.34v10.89l2.34,2.35h0l-2.34,2.34-2.35-2.34h-10.88l-2.35,2.34-2.34-2.34H1305l-2.35,2.34v10.89l2.35,2.34-2.35,2.35-2.34-2.35h-10.89l-2.34,2.35v10.88l2.34,2.35h0l-2.34,2.34v10.89l2.34,2.35h0l-2.34,2.34v10.89l2.34,2.34h0l-2.34,2.35-2.35-2.35h-10.88l-2.35,2.35Zm109,51.42-2.35-2.34h0l2.35-2.35,2.34,2.35Zm0-15.57-2.35-2.35,2.35-2.34,2.34,2.34Zm2.34-17.93-2.34,2.35-2.35-2.35h0l2.35-2.34,2.34,2.34Zm-2.34-13.23-2.35-2.34h0l2.35-2.35,2.34,2.35h0Zm15.57,46.73-2.34-2.34,2.34-2.35,2.35,2.35Zm0-15.57-2.34-2.35,2.34-2.34,2.35,2.34Zm2.35-17.93-2.35,2.35-2.34-2.35h0l2.34-2.34,2.35,2.34Zm-2.35-13.23-2.34-2.34h0l2.34-2.35,2.35,2.35h0Zm13.24-33.49,2.34-2.35,2.35,2.35h0l-2.35,2.34-2.34-2.34Zm2.34,64.65-2.34-2.35,2.34-2.34,2.35,2.34Zm2.35-17.93-2.35,2.35-2.34-2.35h0l2.34-2.34,2.35,2.34Zm-4.69-15.57,2.34-2.35,2.35,2.35h0l-2.35,2.34-2.34-2.34Zm4.69-15.58h0l-2.35,2.35-2.34-2.35h0l2.34-2.34Zm-4.69-31.15,2.34-2.35,2.35,2.35h0l-2.35,2.34-2.34-2.34Zm-10.89,31.15-2.35,2.35-2.34-2.35h0l2.34-2.34,2.35,2.34Zm-2.35-49.07,2.35,2.34-2.35,2.35-2.34-2.35Zm-2.34,17.92,2.34-2.35,2.35,2.35h0l-2.35,2.34-2.34-2.34Zm2.34,13.23,2.35,2.35h0l-2.35,2.34-2.34-2.34h0Zm-13.23,17.92-2.34,2.35-2.35-2.35h0l2.35-2.34,2.34,2.34Zm-2.34-49.07,2.34,2.34-2.34,2.35-2.35-2.35Zm-2.35,17.92,2.35-2.35,2.34,2.35h0l-2.34,2.34-2.35-2.34Zm2.35,13.23,2.34,2.35h0l-2.34,2.34-2.35-2.34h0ZM1365,612.44l-2.34-2.35,2.34-2.34,2.35,2.34Zm0-15.58-2.34-2.34,2.34-2.35,2.35,2.35Zm0-15.57-2.34-2.35,2.34-2.34,2.35,2.34Zm2.35-17.93-2.35,2.35-2.34-2.35h0L1365,561l2.35,2.34Zm-4.69-93.45,2.34-2.35,2.35,2.35h0l-2.35,2.34-2.34-2.34Zm2.34,13.23,2.35,2.34-2.35,2.35-2.34-2.35Zm-2.34,17.92,2.34-2.35,2.35,2.35h0L1365,503.4l-2.34-2.34Zm2.34,13.23,2.35,2.35h0L1365,519l-2.34-2.34h0Zm2.35,17.92h0l-2.35,2.35-2.34-2.35h0l2.34-2.34ZM1365,545.44l2.35,2.35h0l-2.35,2.34-2.34-2.34h0Zm-15.58,67-2.34-2.35,2.34-2.34,2.35,2.34Zm0-20.27,2.35,2.35-2.35,2.34-2.34-2.34ZM1347,578.94l2.34-2.34,2.35,2.34-2.35,2.35Zm4.69-15.58-2.35,2.35-2.34-2.35h0l2.34-2.34,2.35,2.34Zm-2.35-13.23-2.34-2.34h0l2.34-2.35,2.35,2.35h0Zm2.35-17.92-2.35,2.35-2.34-2.35h0l2.34-2.34,2.35,2.34ZM1349.38,519l-2.34-2.34h0l2.34-2.35,2.35,2.35h0ZM1347,469.91l2.34-2.35,2.35,2.35h0l-2.35,2.34-2.34-2.34Zm2.34,13.23,2.35,2.34-2.35,2.35-2.34-2.35ZM1347,501.06l2.34-2.35,2.35,2.35h0l-2.35,2.34-2.34-2.34Zm-13.23,95.8-2.35-2.34,2.35-2.35,2.34,2.35Zm0-15.57-2.35-2.35,2.35-2.34,2.34,2.34Zm2.34-17.93-2.34,2.35-2.35-2.35h0l2.35-2.34,2.34,2.34Zm-2.34-13.23-2.35-2.34h0l2.35-2.35,2.34,2.35h0Zm2.34-17.92-2.34,2.35-2.35-2.35h0l2.35-2.34,2.34,2.34Zm0-15.57-2.34,2.34-2.35-2.34h0l2.35-2.35,2.34,2.35Zm-2.34-33.5,2.34,2.34-2.34,2.35-2.35-2.35Zm-2.35,17.92,2.35-2.35,2.34,2.35h0l-2.34,2.34-2.35-2.34Zm-31.15,15.58,2.34-2.35,2.35,2.35h0l-2.35,2.34-2.34-2.34Zm2.34,64.65-2.34-2.35,2.34-2.34,2.35,2.34Zm2.35-17.93-2.35,2.35-2.34-2.35h0l2.34-2.34,2.35,2.34Zm-4.69-15.57,2.34-2.35,2.35,2.35h0l-2.35,2.34-2.34-2.34Zm17.92,49.07-2.34-2.34,2.34-2.35,2.35,2.35Zm0-15.57-2.34-2.35,2.34-2.34,2.35,2.34Zm2.35-17.93-2.35,2.35-2.34-2.35h0l2.34-2.34,2.35,2.34Zm-2.35-13.23-2.34-2.34h0l2.34-2.35,2.35,2.35h0Zm2.35-17.92-2.35,2.35-2.34-2.35h0l2.34-2.34,2.35,2.34ZM1318.23,519l-2.34-2.34h0l2.34-2.35,2.35,2.35h0Zm0-35.84,2.35,2.34h0l-2.35,2.35-2.34-2.35Zm-2.34,17.92,2.34-2.35,2.35,2.35h0l-2.35,2.34-2.34-2.34ZM1305,532.21h0l-2.35,2.35-2.34-2.35h0l2.34-2.34Zm-4.69-31.15,2.34-2.35,2.35,2.35h0l-2.35,2.34-2.34-2.34Z" transform="translate(-259.02 -376.45)"/><path class="cls-1" d="M365.71,547.79l2.35-2.35,2.34,2.35h10.89l2.34-2.35,2.35,2.35h10.89l2.34-2.35,2.35,2.35h10.88l2.35-2.35,2.34,2.35H428l2.34-2.35,2.35,2.35h10.88l2.35-2.35V534.56l-2.35-2.35H432.71l-2.35,2.35L428,532.21h0l2.34-2.34V519L428,516.64H417.13L414.79,519l-2.35-2.34,2.35-2.35V503.4l-2.35-2.34,2.35-2.35V487.83l-2.35-2.35,2.35-2.34V472.25l-2.35-2.34,2.35-2.35V456.67l-2.35-2.34H401.56l-2.35,2.34-2.34-2.34H386l-2.35,2.34v10.89l2.35,2.35-2.35,2.34v10.89l2.35,2.34-2.35,2.35v10.88l2.35,2.35-2.35,2.34v10.89l2.35,2.35L383.63,519l-2.34-2.34H370.4L368.06,519v10.89l2.34,2.34-2.34,2.35-2.35-2.35H354.83l-2.35,2.35v10.88l2.35,2.35Zm49.08-17.92,2.34,2.34h0l-2.34,2.35-2.35-2.35ZM399.21,503.4l-2.34-2.34,2.34-2.35,2.35,2.35Zm2.35,13.24L399.21,519l-2.34-2.34,2.34-2.35Zm-4.69-31.16,2.34-2.34,2.35,2.34-2.35,2.35Zm2.34-17.92,2.35,2.35-2.35,2.34-2.34-2.34Zm-2.34,64.65,2.34-2.34,2.35,2.34-2.35,2.35-2.34-2.35Zm-13.24-2.34,2.35,2.34h0l-2.35,2.35-2.34-2.35Z" transform="translate(-259.02 -376.45)"/><path class="cls-1" d="M537.05,547.79l2.35-2.35,2.35,2.35h10.88l2.35-2.35,2.34,2.35h10.89l2.34-2.35,2.35,2.35h10.88l2.35-2.35,2.34,2.35h10.89l2.35-2.35V534.56l-2.35-2.35h0l2.35-2.34,2.34,2.34h10.89l2.34-2.34V519l-2.34-2.34h0l2.34-2.35,2.35,2.35h10.88l2.35-2.35V503.4l-2.35-2.34,2.35-2.35V487.83l-2.35-2.35H619.63l-2.35,2.35-2.34-2.35,2.34-2.34V472.25l-2.34-2.34H604.05l-2.34,2.34-2.35-2.34h0l2.35-2.35V456.67l-2.35-2.34H588.48l-2.35,2.34-2.35-2.34H572.9l-2.35,2.34-2.34-2.34H557.32L555,456.67l-2.35-2.34H541.75l-2.35,2.34-2.35-2.34H526.17l-2.35,2.34v10.89l2.35,2.35h0l-2.35,2.34v10.89l2.35,2.34-2.35,2.35v10.88l2.35,2.35-2.35,2.34v10.89l2.35,2.35h0L523.82,519v10.89l2.35,2.34h0l-2.35,2.35v10.88l2.35,2.35Zm80.23-49.08,2.35,2.35-2.35,2.34-2.34-2.34ZM601.71,519l-2.35-2.34,2.35-2.35,2.34,2.35Zm0-35.84,2.34,2.34-2.34,2.35-2.35-2.35Zm0,15.57,2.34,2.35-2.34,2.34-2.35-2.34Zm-13.24,33.5-2.34,2.35-2.35-2.35h0l2.35-2.34,2.35,2.34Zm-2.34-33.5,2.34,2.35-2.34,2.34-2.35-2.34Zm-2.35-13.23,2.35-2.34,2.34,2.34-2.34,2.35Zm2.35,33.5-2.35-2.34,2.35-2.35,2.34,2.35h0Zm-2.35-49.07,2.35-2.35,2.35,2.35h0l-2.34,2.34-2.35-2.34Zm-10.88,62.3-2.35,2.35-2.34-2.35h0l2.34-2.34,2.35,2.34ZM570.55,519l-2.34-2.34h0l2.34-2.35,2.35,2.35Zm0-15.58-2.34-2.34,2.34-2.35,2.35,2.35Zm-2.34-17.92,2.34-2.34,2.35,2.34-2.35,2.35Zm0-15.57,2.34-2.35,2.35,2.35h0l-2.35,2.34-2.34-2.34Zm-10.89,62.3L555,534.56l-2.35-2.35h0l2.35-2.34,2.34,2.34ZM555,498.71l2.34,2.35L555,503.4l-2.35-2.34Zm-2.35-13.23,2.35-2.34,2.34,2.34L555,487.83ZM555,519l-2.35-2.34,2.35-2.35,2.34,2.35h0Zm-2.35-49.07,2.35-2.35,2.34,2.35h0L555,472.25l-2.35-2.34Zm-10.88,62.3-2.35,2.35-2.35-2.35h0l2.35-2.34,2.35,2.34ZM539.4,519l-2.35-2.34h0l2.35-2.35,2.35,2.35Zm0-15.58-2.35-2.34,2.35-2.35,2.35,2.35Zm-2.35-17.92,2.35-2.34,2.35,2.34-2.35,2.35Zm0-15.57,2.35-2.35,2.35,2.35h0l-2.35,2.34-2.35-2.34Z" transform="translate(-259.02 -376.45)"/><path class="cls-1" d="M1661,467.56V456.67l-2.35-2.34h-.06l2.35-2.35V441.1l-2.35-2.35h0l2.35-2.34V425.52l-2.35-2.34,2.35-2.35V409.94l-2.35-2.34,2.35-2.35V394.37l-2.35-2.35,2.35-2.34V378.79l-2.35-2.34h-10.89l-2.34,2.34-2.35-2.34h-10.88l-2.35,2.34-2.34-2.34h-10.89l-2.34,2.34-2.35-2.34H1601l-2.34,2.34-2.35-2.34h-10.88l-2.35,2.34-2.34-2.34H1569.8l-2.34,2.34-2.35-2.34h-10.89l-2.34,2.34-2.35-2.34h-10.88l-2.35,2.34-2.34-2.34h-10.89l-2.34,2.34-2.35-2.34h-10.89l-2.34,2.34-2.35-2.34h-10.88l-2.35,2.34-2.34-2.34h-10.89l-2.34,2.34-2.35-2.34h-10.88l-2.35,2.34-2.35-2.34h-10.88l-2.35,2.34-2.34-2.34h-10.89l-2.34,2.34-2.35-2.34H1414l-2.35,2.34-2.35-2.34h-10.88l-2.35,2.34-2.34-2.34h-10.89l-2.34,2.34-2.35-2.34h-10.88l-2.35,2.34-2.35-2.34h-10.88l-2.35,2.34-2.34-2.34h-10.89l-2.34,2.34-2.35-2.34h-10.88l-2.35,2.34-2.34-2.34H1305l-2.35,2.34-2.34-2.34h-10.89l-2.34,2.34-2.35-2.34h-10.88l-2.35,2.34-2.34-2.34h-10.89l-2.35,2.34-2.34-2.34h-10.89l-2.34,2.34-2.35-2.34h-10.88l-2.35,2.34-2.34-2.34h-10.89l-2.35,2.34-2.34-2.34H1196l-2.34,2.34-2.35-2.34h-10.88l-2.35,2.34-2.34-2.34h-10.89l-2.35,2.34-2.34-2.34h-10.89l-2.34,2.34-2.35-2.34h-10.88l-2.35,2.34-2.34-2.34h-10.89l-2.35,2.34-2.34-2.34H1102.5l-2.34,2.34-2.35-2.34h-10.88l-2.35,2.34-2.34-2.34h-10.89l-2.35,2.34-2.34-2.34h-10.89l-2.34,2.34-2.35-2.34H1040.2l-2.35,2.34-2.34-2.34h-10.89l-2.35,2.34-2.34-2.34H1009l-2.34,2.34-2.35-2.34H993.47l-2.35,2.34-2.34-2.34H977.89l-2.35,2.34-2.34-2.34H962.31L960,378.79l-2.35-2.34H946.74l-2.35,2.34-2.34-2.34H931.16l-2.35,2.34-2.34-2.34H915.58l-2.34,2.34-2.35-2.34H900l-2.35,2.34-2.34-2.34H884.43l-2.34,2.34-2.35-2.34H868.85l-2.34,2.34-2.35-2.34H853.28l-2.35,2.34-2.34-2.34H837.7l-2.34,2.34L833,376.45H822.12l-2.34,2.34-2.35-2.34H806.55l-2.35,2.34-2.34-2.34H791l-2.34,2.34-2.35-2.34H775.39l-2.34,2.34-2.35-2.34H759.82l-2.35,2.34-2.34-2.34H744.24l-2.34,2.34-2.35-2.34H728.66l-2.34,2.34L724,376.45H713.09l-2.35,2.34-2.34-2.34H697.51l-2.34,2.34-2.35-2.34H681.93l-2.34,2.34-2.35-2.34H666.36L664,378.79l-2.34-2.34H650.78l-2.34,2.34-2.35-2.34H635.2l-2.34,2.34-2.35-2.34H619.63l-2.35,2.34-2.34-2.34H604.05l-2.34,2.34-2.35-2.34H588.47l-2.34,2.34-2.35-2.34H572.9l-2.35,2.34-2.34-2.34H557.32L555,378.79l-2.35-2.34H541.74l-2.34,2.34-2.35-2.34H526.17l-2.35,2.34-2.34-2.34H510.59l-2.34,2.34-2.35-2.34H495l-2.35,2.34-2.35-2.34H479.44l-2.35,2.34-2.34-2.34H463.86l-2.34,2.34-2.35-2.34H448.29l-2.35,2.34-2.35-2.34H432.71l-2.35,2.34L428,376.45H417.13l-2.34,2.34-2.35-2.34H401.56l-2.35,2.34-2.34-2.34H386l-2.35,2.34-2.34-2.34H370.4l-2.34,2.34-2.35-2.34H354.83l-2.35,2.34-2.34-2.34H339.25l-2.35,2.34-2.34-2.34H323.67l-2.34,2.34L319,376.45H308.1l-2.35,2.34-2.34-2.34H292.52l-2.35,2.34-2.34-2.34H276.94l-2.34,2.34-2.35-2.34H261.37L259,378.79v10.89l2.35,2.34L259,394.37v10.88l2.35,2.35L259,409.94v10.89l2.35,2.35L259,425.52v10.89l2.35,2.34L259,441.1V452l2.35,2.35L259,456.67v10.89l2.35,2.35L259,472.25v10.89l2.35,2.34L259,487.83v10.88l2.35,2.35L259,503.4v10.89l2.35,2.35L259,519v10.89l2.35,2.34h0L259,534.56v10.88l2.35,2.35L259,550.13V561l2.35,2.34L259,565.71V576.6l2.35,2.34L259,581.29v10.88l2.35,2.35h0L259,596.86v10.89l2.35,2.34L259,612.44v10.89l2.35,2.34L259,628V638.9l2.35,2.35L259,643.59v10.89l2.35,2.34L259,659.17v10.89l2.35,2.34L259,674.75v10.88l2.35,2.35L259,690.32v10.89l2.35,2.34h10.88l2.35-2.34,2.34,2.34h10.89l2.34-2.34,2.35,2.34h10.89l2.34-2.34,2.35,2.34H319l2.35-2.34h0l2.34,2.34h10.89l2.34-2.34,2.35,2.34h10.89l2.34-2.34,2.35,2.34h10.88l2.35-2.34,2.34,2.34h10.89l2.34-2.34,2.35,2.34h10.89l2.34-2.34h0l2.35,2.34h10.88l2.35-2.34,2.34,2.34H428l2.34-2.34,2.35,2.34H443.6l2.34-2.34,2.35,2.34h10.88l2.35-2.34,2.34,2.34h10.89l2.34-2.34,2.35,2.34h10.89l2.34-2.34,2.35,2.34H505.9l2.35-2.34,2.34,2.34h10.89l2.34-2.34,2.35,2.34h10.88l2.35-2.34h0l2.35,2.34h10.88l2.35-2.34,2.34,2.34h10.89l2.34-2.34,2.35,2.34h10.88l2.35-2.34,2.35,2.34h10.88l2.35-2.34,2.34,2.34h10.89l2.34-2.34,2.35,2.34h10.88l2.35-2.34,2.35,2.34h10.88l2.35-2.34,2.34,2.34h10.89l2.34-2.34,2.35,2.34h10.88l2.35-2.34,2.34,2.34h10.89l2.35-2.34,2.34,2.34H708.4l2.34-2.34,2.35,2.34H724l2.35-2.34,2.34,2.34h10.89l2.35-2.34,2.34,2.34h10.89l2.34-2.34,2.35,2.34H770.7l2.35-2.34,2.34,2.34h10.89l2.35-2.34,2.34,2.34h10.89l2.34-2.34,2.35,2.34h10.88l2.35-2.34,2.34,2.34H833l2.35-2.34,2.34,2.34h10.89l2.34-2.34,2.35,2.34h10.88l2.35-2.34,2.34,2.34h10.89l2.35-2.34,2.34,2.34h10.89l2.34-2.34,2.35,2.34h10.88l2.35-2.34,2.34,2.34h10.89l2.35-2.34,2.34,2.34h10.89l2.34-2.34,2.35,2.34h10.88l2.35-2.34,2.34,2.34H973.2l2.35-2.34,2.34,2.34h10.89l2.34-2.34,2.35,2.34h10.88l2.35-2.34,2.34,2.34h10.89l2.35-2.34,2.34,2.34h10.89l2.34-2.34,2.35,2.34h10.88l2.35-2.34,2.34,2.34h10.89l2.35-2.34,2.34,2.34h10.89l2.34-2.34,2.35,2.34h10.88l2.35-2.34,2.34,2.34h10.89l2.35-2.34,2.34,2.34H1129l2.34-2.34,2.35,2.34h10.88l2.35-2.34,2.34,2.34h10.89l2.35-2.34,2.34,2.34h10.89l2.34-2.34,2.35,2.34h10.88l2.35-2.34,2.34,2.34h10.89l2.34-2.34,2.35,2.34h10.89l2.34-2.34,2.35,2.34H1238l2.35-2.34,2.34,2.34h10.89l2.34-2.34,2.35,2.34h10.89l2.34-2.34,2.35,2.34h10.88l2.35-2.34,2.34,2.34h10.89l2.34-2.34,2.35,2.34h10.89l2.34-2.34,2.35,2.34h10.88l2.35-2.34,2.34,2.34H1347l2.34-2.34,2.35,2.34h10.89l2.34-2.34,2.35,2.34h10.88l2.35-2.34,2.34,2.34h10.89l2.34-2.34,2.35,2.34h10.89l2.34-2.34,2.35,2.34h10.88l2.35-2.34,2.34,2.34h10.89l2.34-2.34,2.35,2.34h10.89l2.34-2.34,2.35,2.34h10.88l2.35-2.34,2.34,2.34h10.89l2.34-2.34,2.35,2.34h10.89l2.34-2.34,2.35,2.34h10.88l2.35-2.34,2.34,2.34H1534l2.34-2.34,2.35,2.34h10.89l2.34-2.34,2.35,2.34h10.88l2.35-2.34,2.34,2.34h10.89l2.34-2.34,2.35,2.34h10.89l2.34-2.34,2.35,2.34h10.88l2.35-2.34,2.34,2.34h10.89l2.34-2.34,2.35,2.34H1643l2.34-2.34,2.35,2.34h10.88l2.35-2.34V690.32l-2.35-2.34,2.35-2.35V674.75l-2.35-2.35,2.35-2.34V659.17l-2.35-2.35,2.35-2.34V643.59l-2.35-2.34,2.35-2.35V628l-2.35-2.35h0l2.35-2.34V612.44l-2.35-2.35h0l2.35-2.34V596.86l-2.35-2.34,2.35-2.35V581.29l-2.35-2.35,2.35-2.34V565.71l-2.35-2.35h0l2.35-2.34V550.13l-2.35-2.34h0l2.35-2.35V534.56l-2.35-2.35h0l2.35-2.34V519l-2.35-2.34h0l2.35-2.35V503.4l-2.35-2.34h0l2.35-2.35V487.83l-2.35-2.35,2.35-2.34V472.25l-2.35-2.34h.06ZM539.4,592.17l2.34,2.35h0l-2.35,2.34-2.35-2.34h0Zm-2.35-13.23,2.35-2.34,2.34,2.34-2.34,2.35ZM555,612.44l-2.35-2.35,2.35-2.34,2.34,2.34Zm2.34,13.23L555,628l-2.35-2.35,2.35-2.34ZM555,596.86l-2.35-2.34h0l2.35-2.35,2.34,2.35h0Zm0-15.57-2.35-2.35L555,576.6l2.34,2.34Zm0,57.61,2.34,2.35h0L555,643.59l-2.35-2.34h0Zm15.57-46.73,2.35,2.35h0l-2.35,2.34-2.34-2.34h0Zm-2.34-13.23,2.34-2.34,2.35,2.34-2.35,2.35Zm2.34,33.5-2.34-2.35,2.34-2.34,2.35,2.34Zm2.35,13.23L570.55,628l-2.34-2.35,2.34-2.34Zm-2.35,13.23,2.35,2.35h0l-2.35,2.34-2.34-2.34h0Zm15.58-26.46-2.35-2.35,2.35-2.34,2.34,2.34Zm2.34,13.23L586.13,628l-2.35-2.35,2.35-2.34Zm-2.34-28.81-2.35-2.34h0l2.35-2.35,2.34,2.35h0Zm0-15.57-2.35-2.35,2.35-2.34,2.34,2.34Zm0,57.61,2.35,2.35h0l-2.35,2.34-2.35-2.34h0Zm15.58-26.46-2.35-2.35,2.35-2.34,2.34,2.34Zm2.34,13.23L601.71,628l-2.35-2.35,2.35-2.34,2.34,2.34Zm-2.34,13.23,2.34,2.35h0l-2.34,2.34-2.35-2.34h0Zm15.57,0,2.35,2.35h0l-2.35,2.34-2.34-2.34h0Zm-2.34-13.23,2.34-2.34,2.35,2.34h0L617.28,628Zm4.69,31.15-2.35,2.35-2.34-2.35,2.34-2.34Zm-15.58,0-2.34,2.35-2.35-2.35,2.35-2.34Zm-15.57,0-2.35,2.35-2.35-2.35,2.35-2.34Zm-15.58,0-2.35,2.35-2.34-2.35,2.34-2.34Zm-15.58,0L555,659.17l-2.35-2.35,2.35-2.34ZM539.4,612.44l-2.35-2.35h0l2.35-2.34,2.35,2.34Zm2.35,13.23L539.4,628l-2.35-2.35,2.35-2.34ZM539.4,638.9l2.35,2.35h0l-2.35,2.34-2.35-2.34h0Zm2.35,17.92-2.35,2.35-2.35-2.35,2.35-2.34h0Zm-2.35,13.24h0l2.35,2.34-2.35,2.35-2.35-2.35Zm15.58,0,2.34,2.34L555,674.75l-2.35-2.35Zm15.57,0,2.35,2.34-2.35,2.35-2.34-2.35Zm15.58,0,2.35,2.34-2.35,2.35-2.35-2.35Zm15.58,0,2.34,2.34-2.34,2.35-2.35-2.35Zm15.57,0,2.35,2.34-2.35,2.35-2.34-2.35Zm49.08-60L664,612.44l-2.34-2.35h0l2.34-2.34,2.35,2.34Zm0,15.58L664,628l-2.34-2.35h0l2.34-2.34,2.35,2.34ZM664,596.86l-2.34-2.34h0l2.34-2.35,2.35,2.35h0Zm2.35-64.65L664,534.56l-2.34-2.35h0l2.34-2.34,2.35,2.34ZM664,498.71l2.35,2.35L664,503.4l-2.34-2.34Zm-2.34-13.23,2.34-2.34,2.35,2.34L664,487.83ZM664,519l-2.34-2.34,2.34-2.35,2.35,2.35h0Zm2.35-49.07L664,472.25l-2.34-2.34h0l2.34-2.35,2.35,2.35ZM664,545.44l2.35,2.35L664,550.13l-2.34-2.34ZM664,561h0l2.35,2.34L664,565.71l-2.34-2.35Zm0,15.58,2.35,2.34L664,581.29l-2.34-2.35Zm0,62.3,2.35,2.35h0L664,643.59l-2.34-2.34h0Zm17.92-169-2.34,2.34-2.35-2.34h0l2.35-2.35,2.34,2.35Zm0,46.73L679.59,519l-2.35-2.34h0l2.35-2.35Zm0-31.16-2.34,2.35-2.35-2.35,2.35-2.34Zm-2.34,13.23,2.34,2.35-2.34,2.34-2.35-2.34Zm-2.35,33.5,2.35-2.34,2.34,2.34h0l-2.34,2.35-2.35-2.35Zm2.35,13.23,2.34,2.35-2.34,2.34-2.35-2.34Zm0,15.58,2.34,2.34-2.34,2.35-2.35-2.35Zm0,15.58,2.34,2.34-2.34,2.35-2.35-2.35Zm0,15.57,2.34,2.35h0l-2.34,2.34-2.35-2.34h0Zm2.34,17.92-2.34,2.35-2.35-2.35h0l2.35-2.34,2.34,2.34Zm0,15.58L679.59,628l-2.35-2.35h0l2.35-2.34,2.34,2.34Zm-2.34,13.23,2.34,2.35h0l-2.34,2.34-2.35-2.34h0Zm17.92-28.81-2.34,2.35-2.35-2.35h0l2.35-2.34,2.34,2.34Zm0,15.58L695.17,628l-2.35-2.35h0l2.35-2.34,2.34,2.34Zm-2.34-28.81-2.35-2.34h0l2.35-2.35,2.34,2.35h0Zm2.34-64.65-2.34,2.35-2.35-2.35h0l2.35-2.34,2.34,2.34Zm-2.34-33.5,2.34,2.35-2.34,2.34-2.35-2.34Zm-2.35-13.23,2.35-2.34,2.34,2.34-2.34,2.35Zm2.35,33.5-2.35-2.34,2.35-2.35,2.34,2.35h0Zm2.34-49.07-2.34,2.34-2.35-2.34h0l2.35-2.35,2.34,2.35Zm-2.34,75.53,2.34,2.35-2.34,2.34-2.35-2.34Zm0,15.58,2.34,2.34-2.34,2.35-2.35-2.35Zm0,15.58,2.34,2.34-2.34,2.35-2.35-2.35Zm0,62.3,2.34,2.35h0l-2.34,2.34-2.35-2.34h0Zm17.92-169-2.35,2.34-2.34-2.34h0l2.34-2.35,2.35,2.35Zm0,46.73L710.74,519l-2.34-2.34h0l2.34-2.35Zm0-31.16-2.35,2.35-2.34-2.35,2.34-2.34Zm-2.35,13.23,2.35,2.35-2.35,2.34-2.34-2.34Zm-2.34,33.5,2.34-2.34,2.35,2.34h0l-2.35,2.35-2.34-2.35Zm2.34,13.23,2.35,2.35-2.35,2.34-2.34-2.34Zm0,15.58,2.35,2.34-2.35,2.35-2.34-2.35Zm0,15.58,2.35,2.34-2.35,2.35-2.34-2.35Zm0,15.57,2.35,2.35h0l-2.35,2.34-2.34-2.34h0Zm2.35,17.92-2.35,2.35-2.34-2.35h0l2.34-2.34,2.35,2.34Zm0,15.58L710.74,628l-2.34-2.35h0l2.34-2.34,2.35,2.34Zm-2.35,13.23,2.35,2.35h0l-2.35,2.34-2.34-2.34h0Zm2.35,17.92-2.35,2.35-2.34-2.35,2.34-2.34Zm-15.58,0-2.34,2.35-2.35-2.35,2.35-2.34Zm-15.58,0-2.34,2.35-2.35-2.35,2.35-2.34Zm-15.57,0L664,659.17l-2.34-2.35,2.34-2.34Zm-33.5,13.24,2.35,2.34-2.35,2.35-2.35-2.35Zm-2.35-13.24,2.35-2.34,2.35,2.34-2.35,2.35Zm17.93,13.24,2.34,2.34-2.34,2.35-2.35-2.35Zm-2.35-13.24,2.35-2.34,2.34,2.34-2.34,2.35ZM664,670.06l2.35,2.34L664,674.75l-2.34-2.35Zm15.58,0,2.34,2.34-2.34,2.35-2.35-2.35Zm15.58,0,2.34,2.34-2.34,2.35-2.35-2.35Zm15.57,0,2.35,2.34-2.35,2.35-2.34-2.35Zm46.73-140.19,2.35,2.34h0l-2.35,2.35-2.34-2.35h0Zm-2.34-13.23,2.34-2.35,2.35,2.35h0L757.47,519Zm4.69-46.73-2.35,2.34-2.34-2.34h0l2.34-2.35,2.35,2.35Zm-2.35,13.23,2.35,2.34-2.35,2.35-2.34-2.35Zm0,15.57,2.35,2.35h0l-2.35,2.34-2.34-2.34Zm0,46.73,2.35,2.35-2.35,2.34-2.34-2.34h0Zm2.35,17.92-2.35,2.35-2.34-2.35,2.34-2.34Zm-2.35,13.24,2.35,2.34-2.35,2.35-2.34-2.35Zm0,15.57,2.35,2.35h0l-2.35,2.34-2.34-2.34h0Zm-2.34,17.92,2.34-2.34,2.35,2.34h0l-2.35,2.35-2.34-2.35Zm2.34,13.24,2.35,2.34h0L757.47,628l-2.34-2.35h0Zm0,15.57,2.35,2.35h0l-2.35,2.34-2.34-2.34h0Zm31.16-109,2.34,2.34h0l-2.34,2.35-2.35-2.35h0Zm-2.35-13.23,2.35-2.35,2.34,2.35h0L788.63,519ZM791,469.91l-2.34,2.34-2.35-2.34h0l2.35-2.35,2.34,2.35Zm-2.34,13.23,2.34,2.34-2.34,2.35-2.35-2.35Zm0,15.57,2.34,2.35h0l-2.34,2.34-2.35-2.34Zm0,46.73,2.34,2.35-2.34,2.34-2.35-2.34h0ZM791,563.36l-2.34,2.35-2.35-2.35,2.35-2.34Zm-2.34,13.24,2.34,2.34-2.34,2.35-2.35-2.35Zm0,15.57,2.34,2.35h0l-2.34,2.34-2.35-2.34h0Zm-2.35,17.92,2.35-2.34,2.34,2.34h0l-2.34,2.35-2.35-2.35Zm2.35,13.24,2.34,2.34h0L788.63,628l-2.35-2.35h0Zm0,15.57,2.34,2.35h0l-2.34,2.34-2.35-2.34h0Zm17.92-28.81-2.35,2.35-2.34-2.35h0l2.34-2.34,2.35,2.34Zm0,15.58L804.2,628l-2.34-2.35h0l2.34-2.34,2.35,2.34Zm-2.35-28.81-2.34-2.34h0l2.34-2.35,2.35,2.35h0Zm0-46.73-2.34-2.34,2.34-2.35,2.35,2.35h0Zm2.35,13.23-2.35,2.35-2.34-2.35L804.2,561Zm0-31.15-2.35,2.35-2.34-2.35h0l2.34-2.34,2.35,2.34Zm-4.69-15.57,2.34-2.35,2.35,2.35L804.2,519l-2.34-2.34Zm4.69-46.73-2.35,2.34-2.34-2.34h0l2.34-2.35,2.35,2.35Zm-2.35,13.23,2.35,2.34-2.35,2.35-2.34-2.35Zm0,15.57,2.35,2.35-2.35,2.34-2.34-2.34h0Zm0,77.89,2.35,2.34-2.35,2.35-2.34-2.35Zm0,62.3,2.35,2.35h0l-2.35,2.34-2.34-2.34h0Zm15.58-109,2.34,2.34h0l-2.34,2.35-2.35-2.35h0Zm-2.35-13.23,2.35-2.35,2.34,2.35h0L819.78,519Zm4.69-46.73-2.34,2.34-2.35-2.34h0l2.35-2.35,2.34,2.35Zm-2.34,13.23,2.34,2.34-2.34,2.35-2.35-2.35Zm0,15.57,2.34,2.35h0l-2.34,2.34-2.35-2.34Zm0,46.73,2.34,2.35-2.34,2.34-2.35-2.34Zm2.34,64.65-2.34,2.35-2.35-2.35h0l2.35-2.34,2.34,2.34Zm0,15.58L819.78,628l-2.35-2.35h0l2.35-2.34,2.34,2.34Zm-2.34-28.81-2.35-2.34h0l2.35-2.35,2.34,2.35h0Zm0-35.84,2.34,2.34-2.34,2.35-2.35-2.35Zm0,15.58,2.34,2.34-2.34,2.35-2.35-2.35Zm0,62.3,2.34,2.35h0l-2.34,2.34-2.35-2.34h0Zm2.34,17.92-2.34,2.35-2.35-2.35,2.35-2.34Zm-15.57,0-2.35,2.35-2.34-2.35,2.34-2.34Zm-15.58,0-2.34,2.35-2.35-2.35,2.35-2.34Zm-15.58-46.73-2.34,2.35-2.35-2.35h0l2.35-2.34,2.34,2.34Zm0,15.58L773.05,628l-2.35-2.35h0l2.35-2.34,2.34,2.34Zm-2.34-28.81-2.35-2.34h0l2.35-2.35,2.34,2.35h0Zm0-46.73-2.35-2.34,2.35-2.35,2.34,2.35h0Zm2.34,13.23-2.34,2.35-2.35-2.35,2.35-2.34Zm0-31.15-2.34,2.35-2.35-2.35h0l2.35-2.34,2.34,2.34Zm-4.69-15.57,2.35-2.35,2.34,2.35L773.05,519l-2.35-2.34Zm4.69-46.73-2.34,2.34-2.35-2.34h0l2.35-2.35,2.34,2.35Zm-2.34,13.23,2.34,2.34-2.34,2.35-2.35-2.35Zm0,15.57,2.34,2.35-2.34,2.34-2.35-2.34h0Zm0,77.89,2.34,2.34-2.34,2.35-2.35-2.35Zm0,62.3,2.34,2.35h0l-2.34,2.34-2.35-2.34h0Zm2.34,17.92-2.34,2.35-2.35-2.35,2.35-2.34Zm-15.57,0-2.35,2.35-2.34-2.35,2.34-2.34Zm-33.5,13.24,2.34,2.34-2.34,2.35L724,672.4ZM724,656.82l2.35-2.34,2.34,2.34-2.34,2.35Zm17.93,13.24,2.34,2.34-2.34,2.35-2.35-2.35Zm-2.35-13.24,2.35-2.34,2.34,2.34-2.34,2.35Zm17.92,13.24,2.35,2.34-2.35,2.35-2.34-2.35Zm15.58,0,2.34,2.34-2.34,2.35-2.35-2.35Zm15.58,0L791,672.4l-2.34,2.35-2.35-2.35Zm15.57,0,2.35,2.34-2.35,2.35-2.34-2.35Zm15.58,0,2.34,2.34-2.34,2.35-2.35-2.35Zm49.07-60-2.34,2.35-2.35-2.35h0l2.35-2.34,2.34,2.34Zm0,15.58L866.51,628l-2.35-2.35h0l2.35-2.34,2.34,2.34Zm-2.34-28.81-2.35-2.34h0l2.35-2.35,2.34,2.35h0Zm0-15.57-2.35-2.35,2.35-2.34,2.34,2.34Zm0,57.61,2.34,2.35h0l-2.34,2.34-2.35-2.34h0Zm17.92-28.81-2.34,2.35-2.35-2.35h0l2.35-2.34,2.34,2.34Zm0,15.58L882.09,628l-2.35-2.35h0l2.35-2.34,2.34,2.34Zm-2.34-28.81-2.35-2.34h0l2.35-2.35,2.34,2.35h0Zm0-15.57-2.35-2.35,2.35-2.34,2.34,2.34Zm0,57.61,2.34,2.35h0l-2.34,2.34-2.35-2.34h0ZM900,610.09l-2.35,2.35-2.34-2.35h0l2.34-2.34,2.35,2.34Zm0,15.58L897.66,628l-2.34-2.35h0l2.34-2.34,2.35,2.34Zm-2.35-28.81-2.34-2.34h0l2.34-2.35,2.35,2.35h0Zm0-15.57-2.34-2.35,2.34-2.34,2.35,2.34Zm0,57.61,2.35,2.35h0l-2.35,2.34-2.34-2.34h0Zm15.58-57.61-2.35-2.35,2.35-2.34,2.34,2.34Zm2.34,13.23-2.34,2.34-2.35-2.34h0l2.35-2.35,2.34,2.35Zm-4.69,15.57,2.35-2.34,2.34,2.34h0l-2.34,2.35-2.35-2.35Zm2.35,13.24,2.34,2.34h0L913.24,628l-2.35-2.35h0Zm0,15.57,2.34,2.35h0l-2.34,2.34-2.35-2.34h0Zm17.92-28.81-2.34,2.35-2.35-2.35h0l2.35-2.34,2.34,2.34Zm0,15.58L928.82,628l-2.35-2.35h0l2.35-2.34,2.34,2.34Zm-2.34-28.81-2.35-2.34h0l2.35-2.35,2.34,2.35h0Zm0-15.57-2.35-2.35,2.35-2.34,2.34,2.34Zm0,57.61,2.34,2.35h0l-2.34,2.34-2.35-2.34h0Zm15.57-46.73,2.35,2.35h0l-2.35,2.34-2.34-2.34h0Zm-2.34-13.23,2.34-2.34,2.35,2.34-2.35,2.35Zm0,31.15,2.34-2.34,2.35,2.34h0l-2.35,2.35-2.34-2.35Zm2.34,13.24,2.35,2.34h0L944.39,628l-2.34-2.35h0Zm0,15.57,2.35,2.35h0l-2.35,2.34-2.34-2.34h0Zm17.92-28.81L960,612.44l-2.35-2.35h0l2.35-2.34,2.34,2.34Zm0,15.58L960,628l-2.35-2.35h0l2.35-2.34,2.34,2.34ZM960,596.86l-2.35-2.34h0l2.35-2.35,2.34,2.35h0Zm0-15.57-2.35-2.35L960,576.6l2.34,2.34Zm0,57.61,2.34,2.35h0L960,643.59l-2.35-2.34h0Zm15.58-62.3,2.34,2.34-2.34,2.35-2.35-2.35Zm-2.35-13.24h0l2.35-2.34,2.34,2.34h0l-2.34,2.35Zm2.35,28.81,2.34,2.35h0l-2.34,2.34-2.35-2.34h0Zm-2.35,17.92,2.35-2.34,2.34,2.34h0l-2.34,2.35-2.35-2.35Zm2.35,13.24,2.34,2.34h0L975.55,628l-2.35-2.35h0Zm0,15.57,2.34,2.35h0l-2.34,2.34-2.35-2.34h0Zm17.92-28.81-2.35,2.35-2.34-2.35h0l2.34-2.34,2.35,2.34Zm0,15.58L991.12,628l-2.34-2.35h0l2.34-2.34,2.35,2.34Zm-2.35-28.81-2.34-2.34h0l2.34-2.35,2.35,2.35h0Zm0-35.84,2.35,2.34-2.35,2.35-2.34-2.35h0Zm-2.34-13.23,2.34-2.35,2.35,2.35-2.35,2.34Zm2.34,28.81,2.35,2.34-2.35,2.35-2.34-2.35Zm0,62.3,2.35,2.35h0l-2.35,2.34-2.34-2.34h0Zm15.58-171.34,2.34,2.35h0l-2.34,2.34-2.35-2.34h0Zm-2.35-13.23,2.35-2.35,2.34,2.35-2.34,2.34Zm2.35,80.23-2.35-2.35,2.35-2.34,2.34,2.34h0Zm2.34,13.23-2.34,2.34-2.35-2.34,2.35-2.35Zm-4.69-31.15,2.35-2.35,2.34,2.35h0L1006.7,519l-2.35-2.34Zm2.35-33.5,2.34,2.34-2.34,2.35-2.35-2.35Zm0,15.57,2.34,2.35-2.34,2.34-2.35-2.34Zm-2.35,64.65,2.35-2.34,2.34,2.34h0l-2.34,2.35-2.35-2.35Zm2.35,13.24,2.34,2.34-2.34,2.35-2.35-2.35Zm0,15.57,2.34,2.35h0l-2.34,2.34-2.35-2.34h0Zm-2.35,17.92,2.35-2.34,2.34,2.34h0l-2.34,2.35-2.35-2.35Zm2.35,13.24,2.34,2.34h0L1006.7,628l-2.35-2.35h0Zm0,15.57,2.34,2.35h0l-2.34,2.34-2.35-2.34h0Zm15.58-26.46-2.35-2.35h0l2.35-2.34,2.34,2.34Zm2.34,13.23-2.34,2.35-2.35-2.35h0l2.35-2.34Zm-2.34-28.81-2.35-2.34h0l2.35-2.35,2.34,2.35Zm0-15.57-2.35-2.35,2.35-2.34,2.34,2.34Zm0,57.61,2.34,2.35h0l-2.34,2.34-2.35-2.34h0Zm15.57,0,2.35,2.35h0l-2.35,2.34-2.34-2.34h0Zm-2.34-13.23,2.34-2.34,2.35,2.34-2.35,2.35Zm33.5,17.92-2.35-2.34h0l2.35-2.35,2.34,2.35h0Zm2.34,13.23-2.34,2.35-2.35-2.35,2.35-2.34Zm-17.92-13.23-2.35-2.34h0l2.35-2.35,2.34,2.35h0Zm2.34,13.23-2.34,2.35-2.35-2.35,2.35-2.34Zm-15.57,0-2.35,2.35-2.34-2.35,2.34-2.34Zm-15.58,0-2.34,2.35-2.35-2.35,2.35-2.34Zm-15.58,0-2.34,2.35-2.35-2.35,2.35-2.34Zm-15.57,0-2.35,2.35-2.34-2.35,2.34-2.34Zm-15.58,0-2.34,2.35-2.35-2.35,2.35-2.34Zm-15.58,0L960,659.17l-2.35-2.35,2.35-2.34Zm-15.57,0-2.35,2.35-2.34-2.35,2.34-2.34Zm-15.58,0-2.34,2.35-2.35-2.35,2.35-2.34Zm-15.58,0-2.34,2.35-2.35-2.35,2.35-2.34Zm-15.57,0-2.35,2.35-2.34-2.35,2.34-2.34Zm-15.58,0-2.34,2.35-2.35-2.35,2.35-2.34Zm-15.58,0-2.34,2.35-2.35-2.35,2.35-2.34Zm-33.49,13.24,2.34,2.34-2.34,2.35L833,672.4ZM833,656.82l2.35-2.34,2.34,2.34-2.34,2.35Zm17.92,13.24,2.35,2.34-2.35,2.35-2.34-2.35Zm-2.34-13.24,2.34-2.34,2.35,2.34-2.35,2.35Zm17.92,13.24,2.34,2.34-2.34,2.35-2.35-2.35Zm15.58,0,2.34,2.34-2.34,2.35-2.35-2.35Zm15.57,0L900,672.4l-2.35,2.35-2.34-2.35Zm15.58,0,2.34,2.34-2.34,2.35-2.35-2.35Zm15.58,0,2.34,2.34-2.34,2.35-2.35-2.35Zm15.57,0,2.35,2.34-2.35,2.35-2.34-2.35Zm15.58,0,2.34,2.34L960,674.75l-2.35-2.35Zm15.58,0,2.34,2.34-2.34,2.35-2.35-2.35Zm15.57,0,2.35,2.34-2.35,2.35-2.34-2.35Zm15.58,0,2.34,2.34-2.34,2.35-2.35-2.35Zm15.58,0,2.34,2.34-2.34,2.35-2.35-2.35Zm15.57,0,2.35,2.34-2.35,2.35-2.34-2.35Zm15.58,0,2.34,2.34-2.34,2.35-2.35-2.35Zm15.58,0,2.34,2.34-2.34,2.35-2.35-2.35Zm15.57,0,2.35,2.34-2.35,2.35-2.34-2.35Zm-2.34-13.24,2.34-2.34,2.35,2.34-2.35,2.35Zm17.92,13.24,2.34,2.34-2.34,2.35-2.35-2.35Zm-2.35-13.24,2.35-2.34,2.34,2.34-2.34,2.35Zm111.38-17.92,2.35,2.35h0l-2.35,2.34-2.34-2.34h0Zm-2.34-13.23,2.34-2.34,2.35,2.34-2.35,2.35Zm17.92-127,2.35,2.35h0l-2.35,2.34-2.34-2.34h0Zm-2.34-13.23,2.34-2.34,2.35,2.34-2.35,2.35Zm17.92,13.23,2.34,2.35h0l-2.34,2.34-2.35-2.34h0ZM1238,485.48l2.35-2.34,2.34,2.34-2.34,2.35Zm4.69,31.16-2.34,2.34-2.35-2.34h0l2.35-2.35,2.34,2.35ZM1238,532.21l2.35-2.34,2.34,2.34h0l-2.34,2.35-2.35-2.35Zm33.5,106.69,2.35,2.35h0l-2.35,2.34-2.34-2.34h0Zm-2.34-13.23,2.34-2.34,2.35,2.34L1271.5,628Zm173.68,13.23,2.35,2.35h0l-2.35,2.34-2.34-2.34h0Zm-2.34-13.23,2.34-2.34,2.35,2.34-2.35,2.35Zm17.92,28.81,2.35,2.34-2.35,2.35-2.34-2.35Zm-2.34-13.23,2.34-2.35,2.35,2.35h0l-2.35,2.34Zm20.26-77.89-2.34,2.35-2.35-2.35h0L1474,561l2.34,2.34ZM1474,581.29l-2.35-2.35,2.35-2.34,2.34,2.34Zm2.34,13.23-2.34,2.34-2.35-2.34,2.35-2.35ZM1474,550.13l-2.35-2.34h0l2.35-2.35,2.34,2.35h0Zm-2.35,60,2.35-2.34,2.34,2.34h0l-2.34,2.35-2.35-2.35Zm2.35,13.24,2.34,2.34h0L1474,628l-2.35-2.35h0Zm0,15.57,2.34,2.35h0l-2.34,2.34-2.35-2.34h0Zm2.34,17.92-2.34,2.35-2.35-2.35,2.35-2.34Zm-17.92-64.65,2.35,2.35-2.35,2.34-2.34-2.34Zm-2.34-13.23,2.34-2.34,2.35,2.34-2.35,2.35Zm2.34,28.81,2.35,2.34h0l-2.35,2.35-2.34-2.35h0Zm0,15.58,2.35,2.34-2.35,2.35-2.34-2.35h0Zm-13.23,33.49-2.35,2.35-2.34-2.35,2.34-2.34Zm-17.92-13.23-2.35-2.34h0l2.35-2.35,2.34,2.35h0Zm2.34,13.23-2.34,2.35-2.35-2.35,2.35-2.34Zm-17.92-13.23-2.34-2.34h0l2.34-2.35,2.35,2.35Zm2.35,13.23-2.35,2.35-2.34-2.35,2.34-2.34Zm-189.27-2.34,2.35,2.34-2.35,2.35-2.34-2.35Zm93.46,0,2.35,2.34-2.35,2.35-2.34-2.35Zm-15.58-10.89-2.34-2.34h0l2.34-2.35,2.35,2.35Zm2.35,13.23-2.35,2.35-2.34-2.35,2.34-2.34Zm-17.92-13.23-2.35-2.34h0l2.35-2.35,2.34,2.35Zm2.34,13.23-2.34,2.35-2.35-2.35,2.35-2.34Zm-15.57,0-2.35,2.35-2.34-2.35,2.34-2.34Zm-17.93-64.65,2.35,2.35-2.35,2.34-2.34-2.34Zm-2.34-13.23,2.34-2.34,2.35,2.34-2.35,2.35Zm2.34,28.81,2.35,2.34-2.35,2.35-2.34-2.35h0Zm0,15.58,2.35,2.34-2.35,2.35-2.34-2.35Zm0,15.57,2.35,2.35h0l-2.35,2.34-2.34-2.34h0Zm2.35,17.92-2.35,2.35-2.34-2.35,2.34-2.34Zm-17.92-60-2.35-2.34,2.35-2.35,2.34,2.35Zm2.34,13.23-2.34,2.35-2.35-2.35h0l2.35-2.34Zm-2.34-28.8-2.35-2.35,2.35-2.34,2.34,2.34Zm0-15.58-2.35-2.35,2.35-2.34,2.34,2.34h0Zm0-20.27,2.34,2.35h0l-2.34,2.34-2.35-2.34h0Zm0,77.89,2.34,2.34-2.34,2.35-2.35-2.35h0Zm0,15.57,2.34,2.35h0l-2.34,2.34-2.35-2.34h0Zm2.34,17.92-2.34,2.35-2.35-2.35,2.35-2.34Zm-17.92-64.65,2.35,2.35-2.35,2.34-2.34-2.34Zm-2.34-13.23,2.34-2.34,2.35,2.34-2.35,2.35Zm2.34,28.81,2.35,2.34h0l-2.35,2.35-2.34-2.35Zm0,15.58,2.35,2.34-2.35,2.35-2.34-2.35Zm0,15.57,2.35,2.35h0l-2.35,2.34-2.34-2.34Zm-13.23,17.92-2.35,2.35-2.34-2.35,2.34-2.34Zm-17.92-13.23-2.35-2.34h0l2.35-2.35,2.34,2.35h0Zm2.34,13.23-2.34,2.35-2.35-2.35,2.35-2.34ZM1178,643.59l-2.34-2.34h0l2.34-2.35,2.35,2.35h0Zm2.35,13.23-2.35,2.35-2.34-2.35,2.34-2.34Zm-64.65,13.24,2.34,2.34-2.34,2.35-2.35-2.35Zm-2.35-13.24,2.35-2.34,2.34,2.34-2.34,2.35Zm17.92,13.24,2.35,2.34-2.35,2.35L1129,672.4ZM1129,656.82l2.34-2.34,2.35,2.34-2.35,2.35Zm17.92,13.24,2.34,2.34-2.34,2.35-2.35-2.35Zm-2.35-13.24,2.35-2.34,2.34,2.34-2.34,2.35Zm17.93,13.24,2.34,2.34-2.34,2.35-2.35-2.35Zm-2.35-13.24,2.35-2.34,2.34,2.34-2.34,2.35ZM1178,670.06l2.35,2.34-2.35,2.35-2.34-2.35Zm15.58,0,2.34,2.34-2.34,2.35-2.35-2.35Zm15.57,0,2.35,2.34-2.35,2.35-2.34-2.35Zm15.58,0,2.35,2.34-2.35,2.35-2.34-2.35Zm15.58,0,2.34,2.34-2.34,2.35L1238,672.4Zm15.57,0,2.35,2.34-2.35,2.35-2.34-2.35Zm15.58,0,2.35,2.34-2.35,2.35-2.34-2.35Zm15.58,0,2.34,2.34-2.34,2.35-2.35-2.35Zm15.57,0,2.35,2.34-2.35,2.35-2.34-2.35Zm15.58,0,2.35,2.34-2.35,2.35-2.34-2.35Zm15.58,0,2.34,2.34-2.34,2.35-2.35-2.35Zm-2.35-13.24,2.35-2.34,2.34,2.34-2.34,2.35Zm17.92,13.24,2.35,2.34-2.35,2.35L1347,672.4ZM1347,656.82l2.34-2.34,2.35,2.34-2.35,2.35ZM1365,670.06l2.35,2.34-2.35,2.35-2.34-2.35Zm-2.34-13.24,2.34-2.34,2.35,2.34-2.35,2.35Zm17.92,13.24,2.34,2.34-2.34,2.35-2.35-2.35Zm-2.35-13.24,2.35-2.34,2.34,2.34-2.34,2.35Zm17.92,13.24,2.35,2.34-2.35,2.35-2.34-2.35Zm-2.34-13.24,2.34-2.34,2.35,2.34-2.35,2.35Zm17.92,13.24,2.35,2.34-2.35,2.35-2.34-2.35Zm15.58,0,2.34,2.34-2.34,2.35-2.35-2.35Zm15.57,0,2.35,2.34-2.35,2.35-2.34-2.35Zm15.58,0,2.35,2.34-2.35,2.35-2.34-2.35Zm15.58,0,2.34,2.34-2.34,2.35-2.35-2.35Zm15.57,0,2.35,2.34-2.35,2.35-2.34-2.35Zm-2.34-13.24,2.34-2.34,2.35,2.34-2.35,2.35Zm17.92,13.24,2.35,2.34-2.35,2.35-2.34-2.35Zm-2.34-13.24,2.34-2.34,2.35,2.34-2.35,2.35Zm17.92,13.24,2.34,2.34-2.34,2.35-2.35-2.35Zm-2.35-13.24,2.35-2.34,2.34,2.34-2.34,2.35Zm127-75.53-2.34-2.35h0l2.34-2.34,2.35,2.34Zm2.35,13.23-2.35,2.34-2.34-2.34h0l2.34-2.35ZM1643,516.64l2.34-2.35,2.35,2.35h0l-2.35,2.34-2.34-2.34Zm2.34,49.07-2.34-2.35h0l2.34-2.34,2.35,2.34h0ZM1643,547.79l2.34-2.35,2.35,2.35h0l-2.35,2.34-2.34-2.34Zm4.69-15.58-2.35,2.35-2.34-2.35h0l2.34-2.34,2.35,2.34Zm0-62.3-2.35,2.34-2.34-2.34h.06l2.34-2.35,2.35,2.35Zm-2.35,13.23,2.35,2.34-2.35,2.35-2.34-2.35Zm0,15.57,2.35,2.35h0l-2.35,2.34-2.35-2.34h0ZM1643,610.09l2.34-2.34,2.35,2.34h0l-2.35,2.35-2.35-2.35Zm2.34,13.24,2.35,2.34-2.35,2.35-2.34-2.35h0Zm-17.92-60,2.34-2.34,2.35,2.34h0l-2.35,2.35-2.34-2.35Zm0-15.57,2.34-2.35,2.35,2.35h0l-2.35,2.34-2.34-2.34Zm4.69-15.58-2.35,2.35-2.34-2.35h0l2.34-2.34,2.35,2.34ZM1629.76,519l-2.34-2.34h0l2.34-2.35,2.35,2.35h0Zm0,57.62,2.35,2.34-2.35,2.35-2.34-2.35h0Zm0,15.57,2.35,2.35-2.35,2.34-2.34-2.34Zm2.35-122.26-2.35,2.34-2.34-2.34h.06l2.35-2.35,2.34,2.35Zm-2.35,13.23,2.35,2.34-2.35,2.35-2.34-2.35h0Zm0,15.57,2.35,2.35h0l-2.35,2.34-2.34-2.34h0Zm-2.34,111.38,2.34-2.34,2.35,2.34h0l-2.35,2.35-2.34-2.35Zm2.34,13.24,2.35,2.34h0l-2.35,2.35-2.34-2.35h0Zm0,15.57,2.35,2.35-2.35,2.34-2.34-2.34h0Zm2.35,17.92-2.35,2.35-2.34-2.35,2.34-2.34Zm-17.92-111.38,2.34,2.35h0l-2.34,2.34-2.35-2.34h0Zm-2.35-13.23h0l2.35-2.34,2.34,2.34h0l-2.34,2.35Zm4.69,31.15h0l-2.34,2.35-2.35-2.35h0l2.35-2.34Zm-2.34,13.24,2.34,2.34-2.34,2.35-2.35-2.35h0Zm-2.35,17.92,2.35-2.35,2.34,2.35-2.34,2.34-2.35-2.34Zm4.69-124.61-2.34,2.34-2.35-2.34h.06l2.35-2.35,2.34,2.35Zm-2.34,13.23,2.34,2.34-2.34,2.35-2.35-2.35Zm0,15.57,2.34,2.35h0l-2.34,2.34-2.35-2.34h0Zm0,15.58,2.34,2.35h0l-2.34,2.34-2.35-2.34h0Zm-2.35,95.8,2.35-2.34,2.34,2.34h0l-2.34,2.35-2.35-2.35Zm-75.54,60,2.35,2.34-2.35,2.35L1534,672.4ZM1534,656.82l2.34-2.34,2.35,2.34-2.35,2.35Zm17.92,13.24,2.35,2.34-2.35,2.35-2.34-2.35Zm-2.34-13.24,2.34-2.34,2.35,2.34-2.35,2.35Zm17.92,13.24,2.34,2.34-2.34,2.35-2.35-2.35Zm-2.35-13.24,2.35-2.34,2.34,2.34-2.34,2.35ZM1583,670.06l2.35,2.34-2.35,2.35-2.34-2.35Zm-2.34-13.24,2.34-2.34,2.35,2.34-2.35,2.35Zm17.92,13.24,2.35,2.34-2.35,2.35-2.34-2.35Zm-2.34-13.24,2.34-2.34,2.35,2.34-2.35,2.35Zm17.92,13.24,2.34,2.34-2.34,2.35-2.35-2.35Zm-2.35-13.24,2.35-2.34,2.34,2.34-2.34,2.35Zm17.92,13.24,2.35,2.34-2.35,2.35-2.34-2.35Zm15.58-10.89-2.34-2.35,2.34-2.34,2.35,2.34Zm2.35,13.23-2.35,2.35L1643,672.4l2.34-2.34Zm-2.35-28.81-2.34-2.34,2.34-2.35,2.35,2.35h0Zm2.41-189.26-2.35,2.34-2.34-2.34H1643l2.34-2.35,2.35,2.35Zm-2.41-64.65,2.34,2.34-2.34,2.35L1643,392Zm0,15.57,2.34,2.35-2.34,2.34L1643,407.6Zm0,15.58,2.34,2.35-2.34,2.34-2.35-2.34Zm0,15.58,2.34,2.34h0l-2.35,2.35-2.34-2.35h0Zm-13.17,17.92-2.34,2.34-2.35-2.34h-.06l2.34-2.35,2.35,2.35ZM1627.42,392l2.34-2.34,2.35,2.34-2.35,2.35-2.34-2.35Zm2.34,13.23,2.35,2.35-2.35,2.34-2.34-2.34h0Zm-2.34,17.93,2.34-2.35,2.35,2.35-2.35,2.34-2.34-2.34Zm2.34,13.23,2.35,2.34h0l-2.35,2.35-2.34-2.35h0Zm-13.17,17.92-2.34,2.34-2.35-2.34h-.06l2.35-2.35,2.34,2.35ZM1611.84,392l2.35-2.34,2.34,2.34-2.34,2.35-2.35-2.35Zm2.35,13.23,2.34,2.35-2.34,2.34-2.35-2.34h0Zm-2.35,17.93,2.35-2.35,2.34,2.35-2.34,2.34-2.35-2.34Zm2.35,13.23,2.34,2.34h0l-2.34,2.35-2.35-2.35h0ZM1601,454.33l-2.35,2.34-2.34-2.34h-.06l2.34-2.35,2.35,2.35Zm-2.41,44.38,2.35,2.35h0l-2.35,2.34-2.34-2.34h0Zm-2.34-13.23h0l2.34-2.34,2.35,2.34-2.35,2.35Zm2.34,28.81,2.35,2.35h0l-2.35,2.34-2.34-2.34h0Zm0,82.57-2.34-2.34,2.34-2.35,2.35,2.35Zm2.35,13.23h0l-2.35,2.35-2.34-2.35h0l2.34-2.34Zm-2.35-28.8-2.34-2.35h0l2.34-2.34,2.35,2.34Zm0-15.58-2.34-2.35h0l2.34-2.34,2.35,2.34h0Zm0-15.58-2.34-2.34h0l2.34-2.35,2.35,2.35h0Zm2.35-17.92-2.35,2.35-2.34-2.35h0l2.34-2.34,2.35,2.34Zm0-62.3-2.35,2.34-2.34-2.34h.06l2.34-2.35,2.35,2.35Zm0-31.16-2.35,2.35-2.34-2.35h0l2.35-2.34,2.34,2.34Zm-4.7-46.73,2.35-2.34L1601,392l-2.34,2.35-2.35-2.35Zm2.35,13.23,2.34,2.35-2.34,2.34-2.35-2.34h0Zm-2.35,17.93,2.35-2.35,2.34,2.35-2.34,2.34-2.35-2.34Zm-10.82,31.15-2.34,2.34-2.35-2.34h-.06L1583,452l2.35,2.35ZM1583,596.86l-2.34-2.34,2.34-2.35,2.35,2.35h0Zm2.35,13.23h0l-2.35,2.35-2.34-2.35h0l2.34-2.34Zm-4.69-31.15,2.34-2.34,2.35,2.34h0l-2.35,2.35Zm4.69-15.58-2.35,2.35-2.34-2.35h0L1583,561l2.35,2.34ZM1583,550.13l-2.34-2.34h0l2.34-2.35,2.35,2.35h0Zm2.35-17.92-2.35,2.35-2.34-2.35h0l2.34-2.34,2.35,2.34ZM1583,519l-2.34-2.34h0l2.34-2.35,2.35,2.35h0Zm0-20.27,2.35,2.35h0L1583,503.4l-2.34-2.34h0Zm-2.34-13.23,2.34-2.34,2.35,2.34-2.35,2.35Zm4.69-15.57-2.35,2.34-2.34-2.34h.06l2.35-2.35,2.34,2.35Zm0-31.16L1583,441.1l-2.34-2.35h0l2.34-2.34,2.35,2.34ZM1580.69,392l2.34-2.34,2.35,2.34h0l-2.35,2.35-2.34-2.35Zm2.34,13.23,2.35,2.35h0l-2.35,2.34-2.34-2.34h0Zm-2.34,17.93,2.34-2.35,2.35,2.35h0l-2.35,2.34-2.34-2.34Zm-10.83,31.15-2.34,2.34-2.35-2.34h-.06l2.35-2.35,2.34,2.35Zm-2.4,44.38,2.34,2.35h0l-2.34,2.34-2.35-2.34h0Zm-2.35-13.23,2.35-2.34,2.34,2.34h0l-2.34,2.35Zm2.35,111.38-2.35-2.34,2.35-2.35,2.34,2.35h0Zm2.34,13.23h0l-2.34,2.35-2.35-2.35h0l2.35-2.34Zm-4.69-31.15,2.35-2.34,2.34,2.34h0l-2.34,2.35Zm4.69-15.58-2.34,2.35-2.35-2.35h0l2.35-2.34,2.34,2.34Zm-2.34-13.23-2.35-2.34h0l2.35-2.35,2.34,2.35h0Zm2.34-17.92-2.34,2.35-2.35-2.35h0l2.35-2.34,2.34,2.34ZM1567.46,519l-2.35-2.34h0l2.35-2.35,2.34,2.35h0Zm2.34-49.07-2.34,2.34-2.35-2.34h.06l2.35-2.35,2.34,2.35Zm-2.34-80.23,2.34,2.34h0l-2.34,2.35-2.35-2.35Zm0,15.57h0l2.34,2.35h0l-2.34,2.34h0l-2.35-2.34Zm0,15.58h0l2.34,2.35h0l-2.34,2.34h0l-2.35-2.34Zm0,15.58h0l2.34,2.34h0l-2.34,2.35-2.35-2.35h0Zm-15.58,62.3,2.35,2.35h0l-2.35,2.34-2.34-2.34h0Zm-2.34-13.23,2.34-2.34,2.35,2.34h0l-2.35,2.35Zm2.34,111.38-2.34-2.34,2.34-2.35,2.35,2.35h0Zm2.35,13.23h0l-2.35,2.35-2.34-2.35h0l2.34-2.34Zm-2.35-28.8-2.34-2.35,2.34-2.34,2.35,2.34h0Zm2.35-17.93-2.35,2.35-2.34-2.35h0l2.34-2.34,2.35,2.34Zm-2.35-13.23-2.34-2.34h0l2.34-2.35,2.35,2.35h0Zm2.35-17.92-2.35,2.35-2.34-2.35h0l2.34-2.34,2.35,2.34ZM1551.88,519l-2.34-2.34h0l2.34-2.35,2.35,2.35h0Zm2.35-49.07-2.35,2.34-2.34-2.34h.06l2.34-2.35,2.35,2.35Zm-2.29-13.24-2.34-2.34h-.06l2.34-2.35,2.35,2.35h.06Zm-.06-67h0l2.34,2.34-2.34,2.35-2.35-2.35Zm0,15.57,2.34,2.35-2.34,2.34-2.35-2.34Zm0,15.58h0l2.34,2.35-2.34,2.34-2.35-2.34Zm0,15.58,2.34,2.34h0l-2.35,2.35-2.34-2.35h0Zm-13.17,17.92-2.34,2.34-2.35-2.34H1534l2.34-2.35,2.35,2.35Zm-2.41,44.38,2.35,2.35h0l-2.35,2.34-2.34-2.34h0ZM1534,485.48l2.34-2.34,2.35,2.34h0l-2.35,2.35Zm2.34,111.38-2.34-2.34h0l2.34-2.35,2.35,2.35h0Zm2.35,13.23h0l-2.35,2.35-2.34-2.35h0l2.34-2.34Zm-2.35-28.8-2.34-2.35h0l2.34-2.34,2.35,2.34h0Zm2.35-17.93-2.35,2.35-2.34-2.35h0l2.34-2.34,2.35,2.34Zm-2.35-13.23-2.34-2.34h0l2.34-2.35,2.35,2.35h0Zm2.35-17.92-2.35,2.35-2.34-2.35h0l2.34-2.34,2.35,2.34ZM1536.3,519l-2.34-2.34h0l2.34-2.35,2.35,2.35h0Zm2.35-49.07-2.35,2.34-2.34-2.34h.06l2.35-2.35,2.34,2.35Zm-2.35-80.23,2.35,2.34-2.35,2.35L1534,392Zm0,15.57,2.35,2.35-2.35,2.34L1534,407.6Zm0,15.58,2.35,2.35-2.35,2.34-2.34-2.34Zm0,15.58,2.35,2.34h0l-2.35,2.35-2.34-2.35h0Zm-13.17,17.92-2.34,2.34-2.35-2.34h-.06l2.35-2.35,2.34,2.35Zm-2.4,44.38,2.34,2.35h0l-2.34,2.34-2.35-2.34h0Zm-2.35-13.23h0l2.35-2.34,2.34,2.34-2.34,2.35Zm4.69,31.16-2.34,2.34-2.35-2.34h0l2.35-2.35,2.34,2.35Zm-4.69,93.45,2.35-2.34,2.34,2.34h0l-2.34,2.35-2.35-2.35Zm2.35-13.23-2.35-2.34h0l2.35-2.35,2.34,2.35Zm0-15.57-2.35-2.35h0l2.35-2.34,2.34,2.34Zm0-15.58-2.35-2.35h0l2.35-2.34,2.34,2.34h0Zm-2.35-17.92,2.35-2.35,2.34,2.35h0l-2.34,2.34-2.35-2.34Zm4.69-15.58-2.34,2.35-2.35-2.35h0l2.35-2.34,2.34,2.34Zm0-62.3-2.34,2.34-2.35-2.34h.06l2.35-2.35,2.34,2.35Zm0-31.16-2.34,2.35-2.35-2.35h0l2.35-2.34,2.34,2.34Zm-2.34-49.07,2.34,2.34-2.34,2.35-2.35-2.35Zm0,15.57,2.34,2.35-2.34,2.34-2.35-2.34Zm0,15.58,2.34,2.35-2.34,2.34-2.35-2.34Zm-15.58-31.15,2.34,2.34-2.34,2.35L1502.8,392Zm0,15.57h0l2.34,2.35-2.34,2.34-2.35-2.34Zm0,15.58,2.34,2.35-2.34,2.34-2.35-2.34Zm-15.58-31.15,2.35,2.34-2.35,2.35-2.34-2.35Zm0,15.57,2.35,2.35-2.35,2.34-2.34-2.34Zm0,15.58,2.35,2.35-2.35,2.34-2.34-2.34Zm0,15.58,2.35,2.34h10.88l2.35-2.34h0l2.34,2.34h0l-2.35,2.35V452l2.35,2.35h.06l-2.35,2.34v10.89l2.35,2.35h-.06l-2.35,2.34v10.89l2.35,2.34-2.35,2.35v10.88l2.35,2.35h0l-2.35,2.34v10.89l2.35,2.35h0l-2.35,2.34v10.89l2.35,2.34h0l-2.35,2.35v10.88l2.35,2.35h0l-2.35,2.34V561l2.35,2.34h0l-2.35,2.35V576.6l2.35,2.34-2.35,2.35v10.88l2.35,2.35-2.35,2.34v10.89l2.35,2.34h0l-2.35,2.35v10.89l2.35,2.34h10.88l2.35-2.34,2.34,2.34H1534l2.34-2.34,2.35,2.34h10.89l2.34-2.34,2.35,2.34h10.88l2.35-2.34,2.34,2.34h10.89l2.34-2.34,2.35,2.34h10.89l2.34-2.34,2.35,2.34h10.88l2.35-2.34,2.34,2.34h0l-2.34,2.35V638.9l2.34,2.35-2.34,2.34-2.35-2.34H1601l-2.35,2.34-2.34-2.34h-10.89l-2.35,2.34-2.34-2.34H1569.8l-2.34,2.34-2.35-2.34h-10.88l-2.35,2.34-2.34-2.34h-10.89l-2.35,2.34-2.34-2.34h-10.89l-2.34,2.34-2.35-2.34H1507.5l-2.35,2.34-2.34-2.34h-10.89l-2.35,2.34-2.34-2.34h0l2.34-2.35V628l-2.34-2.35,2.34-2.34V612.44l-2.34-2.35h0l2.34-2.34V596.86l-2.34-2.34,2.34-2.35V581.29l-2.34-2.35,2.34-2.34V565.71l-2.34-2.35h0l2.34-2.34V550.13l-2.34-2.34h0l2.34-2.35V534.56l-2.34-2.35h0l2.34-2.34V519l-2.34-2.34h0l2.34-2.35V503.4l-2.34-2.34h0l2.34-2.35V487.83l-2.34-2.35,2.34-2.34V472.25l-2.34-2.34h0l2.34-2.35V456.67l-2.34-2.34h0l2.34-2.35V441.1l-2.34-2.35h0Zm-13.23,95.8-2.34,2.35-2.35-2.35h0l2.35-2.34,2.34,2.34Zm-2.34-33.5,2.34,2.35h0L1474,503.4l-2.35-2.34h0Zm-2.35-13.23,2.35-2.34,2.34,2.34-2.34,2.35Zm4.69,31.16L1474,519l-2.35-2.34h0l2.35-2.35,2.34,2.35Zm0-46.73-2.34,2.34-2.35-2.34h0l2.35-2.35,2.34,2.35ZM1474,456.67l-2.35-2.34h0L1474,452l2.34,2.35h0Zm0-67,2.34,2.34-2.34,2.35-2.35-2.35Zm0,15.57h0l2.34,2.35-2.34,2.34-2.35-2.34Zm0,15.58,2.34,2.35-2.34,2.34-2.35-2.34Zm0,15.58h0l2.34,2.34h0L1474,441.1l-2.35-2.35h0Zm-15.58,51.42-2.34-2.35,2.34-2.34,2.35,2.34Zm2.35,13.23h0l-2.35,2.34-2.34-2.34h0l2.34-2.35Zm-2.35-28.81-2.34-2.34h0l2.34-2.35,2.35,2.35h0Zm0-15.58-2.34-2.34h0l2.34-2.35,2.35,2.35h0Zm0-67h0l2.35,2.34-2.35,2.35-2.35-2.35Zm0,15.57,2.35,2.35-2.35,2.34-2.35-2.34Zm0,15.58h0l2.35,2.35-2.35,2.34-2.35-2.34Zm0,15.58,2.35,2.34h0l-2.35,2.35-2.34-2.35h0Zm-13.23,17.92-2.35,2.34-2.34-2.34h0l2.34-2.35,2.35,2.35Zm0-15.58-2.35,2.35-2.34-2.35h0l2.34-2.34,2.35,2.34Zm-2.35-49.07,2.35,2.34-2.35,2.35L1440.5,392Zm0,15.57,2.35,2.35-2.35,2.34-2.34-2.34Zm0,15.58,2.35,2.35-2.35,2.34-2.34-2.34Zm-15.57-31.15,2.34,2.34-2.34,2.35-2.35-2.35Zm0,15.57,2.34,2.35-2.34,2.34-2.35-2.34Zm0,15.58,2.34,2.35-2.34,2.34-2.35-2.34Zm0,15.58,2.34,2.34h0l-2.34,2.35-2.35-2.35h0Zm-15.58-46.73L1414,392l-2.35,2.35-2.35-2.35Zm0,15.57h0l2.35,2.35-2.35,2.34-2.35-2.34Zm0,15.58,2.35,2.35-2.35,2.34-2.35-2.34Zm0,15.58h0l2.35,2.34h0l-2.35,2.35-2.34-2.35h0Zm-15.58-46.73,2.35,2.34-2.35,2.35-2.34-2.35Zm0,15.57,2.35,2.35-2.35,2.34-2.34-2.34Zm0,15.58,2.35,2.35-2.35,2.34-2.34-2.34Zm-15.57-31.15h0l2.34,2.34-2.34,2.35-2.35-2.35Zm0,15.57h0l2.34,2.35-2.34,2.34-2.35-2.34Zm0,15.58h0l2.34,2.35-2.34,2.34-2.35-2.34ZM1365,389.68h0l2.35,2.34-2.35,2.35-2.35-2.35Zm0,15.57,2.35,2.35-2.35,2.34-2.35-2.34Zm0,15.58h0l2.35,2.35-2.35,2.34-2.35-2.34Zm-15.58-31.15,2.35,2.34-2.35,2.35L1347,392Zm0,15.57,2.35,2.35-2.35,2.34L1347,407.6Zm0,15.58,2.35,2.35-2.35,2.34-2.34-2.34Zm-15.57-31.15,2.34,2.34-2.34,2.35-2.35-2.35Zm0,15.57,2.34,2.35-2.34,2.34-2.35-2.34Zm0,15.58,2.34,2.35-2.34,2.34-2.35-2.34Zm-15.58-31.15,2.35,2.34-2.35,2.35-2.34-2.35Zm0,15.57h0l2.35,2.35-2.35,2.34-2.34-2.34Zm0,15.58,2.35,2.35-2.35,2.34-2.34-2.34Zm-15.58-31.15L1305,392l-2.35,2.35-2.34-2.35Zm0,15.57,2.35,2.35-2.35,2.34-2.34-2.34Zm0,15.58,2.35,2.35-2.35,2.34-2.34-2.34Zm0,15.58,2.35,2.34h0l-2.35,2.35-2.34-2.35h0Zm-15.57-46.73,2.34,2.34-2.34,2.35-2.35-2.35Zm0,15.57h0l2.34,2.35-2.34,2.34-2.35-2.34Zm0,15.58,2.34,2.35-2.34,2.34-2.35-2.34Zm0,15.58h0l2.34,2.34h0l-2.34,2.35-2.35-2.35h0Zm-2.35,33.5,2.35-2.35V456.67l-2.35-2.34h0l2.35-2.35,2.34,2.35h10.89l2.34-2.35,2.35,2.35h10.89l2.34-2.35V441.1l-2.34-2.35h0l2.34-2.34h0l2.35,2.34h10.88l2.35-2.34,2.34,2.34H1347l2.34-2.34,2.35,2.34h10.88l2.35-2.34,2.35,2.34h10.88l2.35-2.34h0l2.34,2.34h10.89l2.34-2.34,2.35,2.34h0l-2.35,2.35V452l2.35,2.35h10.89l2.34-2.35,2.35,2.35h10.88l2.35-2.35,2.34,2.35h0l-2.34,2.34v10.89l2.34,2.35h10.89l2.34-2.35,2.35,2.35h0l-2.35,2.34v10.89l2.35,2.34-2.35,2.35v10.88l2.35,2.35h0l-2.35,2.34v10.89l2.35,2.35h10.89l2.34-2.35,2.35,2.35h0l-2.35,2.34v10.89l2.35,2.34h0l-2.35,2.35v10.88l2.35,2.35h0l-2.35,2.34V561l2.35,2.34h0l-2.35,2.35-2.34-2.35h-10.89l-2.35,2.35V576.6l2.35,2.34-2.35,2.35v10.88l2.35,2.35-2.35,2.34v10.89l2.35,2.34h0l-2.35,2.35-2.34-2.35h-10.89l-2.34,2.35v10.89l2.34,2.34-2.34,2.35-2.35-2.35H1414l-2.35,2.35-2.34-2.35h-10.89l-2.35,2.35V638.9l2.35,2.35h0l-2.35,2.34-2.34-2.34h-10.89l-2.34,2.34-2.35-2.34h-10.88l-2.35,2.34-2.34-2.34h-10.89l-2.35,2.34-2.34-2.34h-10.89l-2.34,2.34-2.35-2.34h-10.88l-2.35,2.34-2.34-2.34,2.34-2.35V628l-2.34-2.35H1305l-2.35,2.35-2.34-2.35h-10.89l-2.34,2.35-2.35-2.35,2.35-2.34V612.44l-2.35-2.35h-10.88l-2.35,2.35-2.34-2.35h0l2.34-2.34V596.86l-2.34-2.34,2.34-2.35V581.29l-2.34-2.35,2.34-2.34V565.71l-2.34-2.35h-10.89l-2.35,2.35-2.34-2.35,2.34-2.34V550.13l-2.34-2.34h0l2.34-2.35V534.56l-2.34-2.35h0l2.34-2.34V519l-2.34-2.34h0l2.34-2.35,2.35,2.35h10.89l2.34-2.35V503.4l-2.34-2.34h0l2.34-2.35V487.83l-2.34-2.35,2.34-2.34V472.25l-2.34-2.34h0l2.34-2.35,2.35,2.35Zm-28.81,28.8,2.35,2.35h0l-2.35,2.34-2.34-2.34h0Zm-2.34-13.23,2.34-2.34,2.35,2.34-2.35,2.35Zm20.27-31.15-2.35,2.34-2.34-2.34h0l2.34-2.35,2.35,2.35Zm0-15.58-2.35,2.35-2.34-2.35h0l2.34-2.34,2.35,2.34Zm-4.69-15.57,2.34-2.35h0l2.35,2.35-2.35,2.34Zm2.34-33.5h0l2.35,2.34-2.35,2.35-2.34-2.35Zm0,15.57,2.35,2.35-2.35,2.34-2.34-2.34h0Zm-13.23,64.66-2.35,2.34-2.34-2.34h0l2.35-2.35,2.34,2.35Zm-4.69-15.58,2.34-2.35,2.35,2.35-2.34,2.34-2.35-2.34Zm2.34-64.65,2.35,2.34-2.35,2.35-2.34-2.35Zm0,15.57,2.35,2.35-2.35,2.34-2.34-2.34Zm0,15.58,2.35,2.35-2.35,2.34-2.34-2.34Zm0,15.58,2.35,2.34h0l-2.35,2.35-2.34-2.35h0Zm-13.23,33.5-2.34,2.34-2.35-2.34h0l2.35-2.35,2.34,2.35Zm-2.34-13.24-2.35-2.34h0l2.35-2.35,2.34,2.35h0Zm0-67,2.34,2.34-2.34,2.35L1238,392Zm0,15.57,2.34,2.35-2.34,2.34L1238,407.6Zm0,15.58,2.34,2.35-2.34,2.34-2.35-2.34Zm0,15.58,2.34,2.34h0l-2.34,2.35-2.35-2.35h0Zm-13.23,33.5-2.35,2.34-2.34-2.34h0l2.34-2.35h0l2.35,2.35Zm-2.35-13.24-2.34-2.34h0l2.34-2.35,2.35,2.35h0Zm0-67,2.35,2.34-2.35,2.35-2.34-2.35Zm0,15.57h0l2.35,2.35-2.35,2.34-2.34-2.34Zm0,15.58,2.35,2.35-2.35,2.34-2.34-2.34Zm0,15.58h0l2.35,2.34h0l-2.35,2.35-2.34-2.35h0Zm-15.58-46.73,2.35,2.34-2.35,2.35-2.34-2.35Zm0,15.57,2.35,2.35-2.35,2.34-2.34-2.34Zm0,15.58,2.35,2.35-2.35,2.34-2.34-2.34Zm0,15.58,2.35,2.34h0l-2.35,2.35-2.34-2.35h0Zm2.35,17.92-2.34,2.34-2.35-2.34h0l2.34-2.35,2.35,2.35Zm-17.92-64.65L1196,392l-2.34,2.35-2.35-2.35Zm0,15.57h0l2.34,2.35-2.34,2.34-2.35-2.34Zm0,15.58,2.34,2.35-2.34,2.34-2.35-2.34Zm0,15.58h0l2.34,2.34h0l-2.34,2.35-2.35-2.35h0ZM1178,389.68h0l2.35,2.34-2.35,2.35L1175.7,392Zm0,15.57,2.35,2.35-2.35,2.34-2.34-2.34Zm0,15.58h0l2.35,2.35-2.35,2.34-2.34-2.34Zm0,15.58,2.35,2.34h0L1178,441.1l-2.34-2.35h0Zm-15.58-46.73,2.35,2.34-2.35,2.35-2.34-2.35Zm0,15.57,2.35,2.35h0l-2.35,2.34-2.34-2.34Zm0,15.58,2.35,2.35-2.35,2.34-2.34-2.34Zm-15.57-31.15,2.34,2.34-2.34,2.35-2.35-2.35Zm0,15.57,2.34,2.35-2.34,2.34-2.35-2.34Zm0,15.58,2.34,2.35-2.34,2.34-2.35-2.34Zm-15.58-31.15,2.35,2.34-2.35,2.35L1129,392Zm0,15.57h0l2.35,2.35-2.35,2.34L1129,407.6Zm0,15.58,2.35,2.35-2.35,2.34-2.34-2.34Zm-15.58-31.15,2.35,2.34-2.35,2.35-2.34-2.35Zm0,15.57,2.35,2.35-2.35,2.34-2.34-2.34Zm0,15.58,2.35,2.35-2.35,2.34-2.34-2.34Zm-15.57-31.15,2.34,2.34-2.34,2.35-2.35-2.35Zm0,15.57h0l2.34,2.35-2.34,2.34-2.35-2.34Zm0,15.58,2.34,2.35-2.34,2.34-2.35-2.34Zm-15.58-31.15h0l2.35,2.34-2.35,2.35-2.34-2.35Zm0,15.57,2.35,2.35-2.35,2.34-2.34-2.34Zm0,15.58h0l2.35,2.35-2.35,2.34-2.34-2.34Zm0,15.58,2.35,2.34h10.88l2.35-2.34h0l2.34,2.34h10.89l2.34-2.34,2.35,2.34H1129l2.34-2.34h0l2.35,2.34h10.88l2.35-2.34,2.34,2.34h10.89l2.34-2.34,2.35,2.34h0l-2.34,2.35V452l2.34,2.35h10.89L1178,452l2.35,2.35h10.88l2.35-2.35,2.34,2.35h0l-2.34,2.34v10.89l2.34,2.35h10.89l2.35-2.35,2.34,2.35h0l-2.35,2.34v10.89l2.35,2.34-2.35,2.35v10.88l2.35,2.35h0l-2.35,2.34v10.89l2.35,2.35h10.89l2.34-2.35,2.35,2.35-2.35,2.34v10.89l2.35,2.34h0l-2.35,2.35v10.88l2.35,2.35h0l-2.35,2.34V561l2.35,2.34-2.35,2.35-2.34-2.35h-10.89l-2.35,2.35V576.6l2.35,2.34-2.35,2.35v10.88l2.35,2.35-2.35,2.34v10.89l2.35,2.34h0l-2.35,2.35-2.34-2.35H1196l-2.34,2.35v10.89l2.34,2.34-2.34,2.35-2.35-2.35h-10.88L1178,628l-2.34-2.35h-10.89l-2.35,2.35V638.9l2.35,2.35h0l-2.34,2.34-2.35-2.34h-10.89l-2.34,2.34-2.35-2.34h-10.88l-2.35,2.34-2.34-2.34h-10.89l-2.34,2.34-2.35-2.34H1102.5l-2.34,2.34-2.35-2.34h-10.88l-2.35,2.34-2.34-2.34h0l2.34-2.35V628l-2.34-2.35h-10.89L1069,628l-2.35-2.35h-10.89l-2.34,2.35-2.35-2.35,2.35-2.34V612.44l-2.35-2.35H1040.2l-2.35,2.35-2.34-2.35,2.34-2.34V596.86l-2.34-2.34,2.34-2.35V581.29l-2.34-2.35,2.34-2.34V565.71l-2.34-2.35h-10.89l-2.34,2.35-2.35-2.35h0l2.35-2.34V550.13l-2.35-2.34,2.35-2.35V534.56l-2.35-2.35h0l2.35-2.34V519l-2.35-2.34h0l2.35-2.35,2.34,2.35h10.89l2.34-2.35V503.4l-2.34-2.34,2.34-2.35V487.83l-2.34-2.35,2.34-2.34V472.25l-2.34-2.34h0l2.34-2.35,2.35,2.35h10.88l2.35-2.35V456.67l-2.35-2.34,2.35-2.35,2.34,2.35h10.89L1069,452l2.34,2.35h10.89l2.34-2.35V441.1l-2.34-2.35h0Zm-62.3,31.15,2.34,2.35h0l-2.34,2.34-2.35-2.34h0Zm-2.35-13.23,2.35-2.35,2.34,2.35-2.34,2.34Zm2.35,28.81,2.34,2.34-2.34,2.35-2.35-2.35Zm0,15.57,2.34,2.35h0l-2.34,2.34-2.35-2.34Zm13.23-44.38,2.34-2.35,2.35,2.35-2.35,2.34ZM1069,389.68l2.35,2.34-2.35,2.35-2.34-2.35Zm0,15.57,2.35,2.35-2.35,2.34-2.34-2.34Zm0,15.58,2.35,2.35-2.35,2.34-2.34-2.34Zm0,15.58,2.35,2.34h0L1069,441.1l-2.35-2.35h0Zm-15.57-46.73,2.34,2.34-2.34,2.35-2.35-2.35Zm0,15.57,2.34,2.35-2.34,2.34-2.35-2.34Zm0,15.58,2.34,2.35-2.34,2.34-2.35-2.34Zm0,15.58,2.34,2.34h0l-2.34,2.35-2.35-2.35h0Zm-15.58-46.73,2.35,2.34-2.35,2.35-2.34-2.35Zm0,15.57h0l2.35,2.35-2.35,2.34-2.34-2.34Zm0,15.58,2.35,2.35-2.35,2.34-2.34-2.34Zm0,15.58h0l2.35,2.34h0l-2.35,2.35-2.34-2.35h0Zm-15.58-46.73,2.35,2.34-2.35,2.35-2.34-2.35Zm0,15.57,2.35,2.35-2.35,2.34-2.34-2.34Zm0,15.58,2.35,2.35-2.35,2.34-2.34-2.34Zm0,15.58,2.35,2.34h0l-2.34,2.35-2.35-2.35h0Zm-15.57-46.73L1009,392l-2.34,2.35-2.35-2.35Zm0,15.57h0l2.34,2.35-2.34,2.34-2.35-2.34Zm0,15.58,2.34,2.35-2.34,2.34-2.35-2.34Zm0,15.58h0l2.34,2.34h0l-2.34,2.35-2.35-2.35h0Zm-15.58-46.73h0l2.35,2.34-2.35,2.35L988.78,392Zm0,15.57,2.35,2.35-2.35,2.34-2.34-2.34h0Zm2.35,17.93-2.35,2.34-2.34-2.34,2.34-2.35h0Zm-2.35,13.23,2.35,2.34h0l-2.35,2.35-2.34-2.35h0Zm-15.58-46.73,2.35,2.34-2.35,2.35L973.2,392Zm0,15.57,2.35,2.35h0l-2.35,2.34-2.34-2.34Zm0,15.58,2.35,2.35-2.35,2.34-2.34-2.34Zm0,15.58,2.35,2.34h0l-2.34,2.35-2.35-2.35h0ZM960,389.68l2.34,2.34L960,394.37,957.62,392Zm0,15.57,2.34,2.35L960,409.94l-2.35-2.34Zm0,15.58,2.34,2.35L960,425.52l-2.35-2.34Zm-15.58-31.15,2.35,2.34-2.35,2.35L942.05,392Zm0,15.57h0l2.35,2.35-2.35,2.34-2.34-2.34Zm0,15.58,2.35,2.35-2.35,2.34-2.34-2.34Zm-15.58-31.15,2.35,2.34-2.35,2.35L926.47,392Zm0,15.57,2.35,2.35-2.35,2.34-2.34-2.34Zm0,15.58,2.35,2.35-2.35,2.34-2.34-2.34Zm-15.57-31.15,2.34,2.34-2.34,2.35L910.89,392Zm0,15.57h0l2.34,2.35-2.34,2.34-2.35-2.34Zm0,15.58,2.34,2.35-2.34,2.34-2.35-2.34Zm-15.58-31.15h0L900,392l-2.35,2.35L895.32,392Zm0,15.57L900,407.6l-2.35,2.34-2.34-2.34h0ZM900,423.18l-2.35,2.34-2.34-2.34,2.34-2.35h0Zm-17.92-33.5,2.34,2.34-2.34,2.35L879.74,392Zm0,15.57,2.34,2.35h0l-2.34,2.34-2.35-2.34Zm0,15.58,2.34,2.35-2.34,2.34-2.35-2.34Zm-15.58-31.15,2.34,2.34-2.34,2.35L864.16,392Zm0,15.57,2.34,2.35-2.34,2.34-2.35-2.34Zm0,15.58,2.34,2.35-2.34,2.34-2.35-2.34Zm-15.58-31.15,2.35,2.34-2.35,2.35L848.59,392Zm0,15.57h0l2.35,2.35-2.35,2.34-2.34-2.34Zm0,15.58,2.35,2.35-2.35,2.34-2.34-2.34Zm-2.34,17.92,2.34-2.34h0l2.35,2.34h10.88l2.35-2.34,2.34,2.34h10.89l2.35-2.34,2.34,2.34h10.89l2.34-2.34,2.35,2.34h10.88l2.35-2.34h0l2.34,2.34h10.89l2.34-2.34,2.35,2.34h10.89l2.34-2.34h0l2.35,2.34h10.88l2.35-2.34,2.34,2.34h0L960,441.1V452l2.34,2.35H973.2l2.35-2.35,2.34,2.35h10.89l2.34-2.35,2.35,2.35-2.35,2.34v10.89l2.35,2.35h0l-2.35,2.34v10.89l2.35,2.34-2.35,2.35v10.88l2.35,2.35-2.35,2.34v10.89l2.35,2.35h0L991.12,519v10.89l2.35,2.34-2.35,2.35-2.34-2.35H977.89l-2.34,2.35v10.88l2.34,2.35-2.34,2.34-2.35-2.34H962.31L960,550.13V561l2.34,2.34L960,565.71l-2.35-2.35H946.74l-2.35,2.35-2.34-2.35H931.16l-2.34,2.35-2.35-2.35H915.58l-2.34,2.35-2.35-2.35H900l-2.35,2.35-2.34-2.35H884.43l-2.34,2.35-2.35-2.35H868.85l-2.34,2.35-2.35-2.35H853.28l-2.35,2.35V576.6l2.35,2.34-2.35,2.35v10.88l2.35,2.35h0l-2.35,2.34v10.89l2.35,2.34h0l-2.35,2.35v10.89l2.35,2.34h0L850.93,628V638.9l2.35,2.35h0l-2.35,2.34-2.34-2.34H837.7l-2.34,2.34L833,641.25h0l2.35-2.35V628L833,625.67h0l2.35-2.34V612.44L833,610.09h0l2.35-2.34V596.86L833,594.52h0l2.35-2.35V581.29L833,578.94l2.35-2.34V565.71L833,563.36l2.35-2.34V550.13L833,547.79h0l2.35-2.35V534.56L833,532.21h0l2.35-2.34V519L833,516.64l2.35-2.35V503.4L833,501.06l2.35-2.35V487.83L833,485.48l2.35-2.34V472.25L833,469.91h0l2.35-2.35V456.67L833,454.33l2.35-2.35V441.1L833,438.75h0l2.35-2.34,2.34,2.34Zm-13.23-49.07L837.7,392l-2.34,2.35L833,392Zm0,15.57,2.34,2.35-2.34,2.34L833,407.6Zm0,15.58,2.34,2.35-2.34,2.34L833,423.18Zm-15.58,35.84-2.35-2.34,2.35-2.35,2.34,2.35Zm0-67,2.34,2.34-2.34,2.35L817.43,392Zm0,15.57h0l2.34,2.35-2.34,2.34-2.35-2.34Zm0,15.58,2.34,2.35-2.34,2.34-2.35-2.34Zm0,15.58h0l2.34,2.34h0l-2.34,2.35-2.35-2.35h0ZM804.2,389.68h0l2.35,2.34-2.35,2.35L801.86,392Zm0,15.57,2.35,2.35-2.35,2.34-2.34-2.34h0Zm2.35,17.93-2.35,2.34-2.34-2.34,2.34-2.35h0Zm-17.92-33.5L791,392l-2.34,2.35L786.28,392Zm0,15.57L791,407.6h0l-2.34,2.34-2.35-2.34Zm0,15.58,2.34,2.35-2.34,2.34-2.35-2.34Zm-15.58-31.15,2.34,2.34-2.34,2.35L770.7,392Zm0,15.57,2.34,2.35-2.34,2.34-2.35-2.34Zm0,15.58,2.34,2.35-2.34,2.34-2.35-2.34Zm-15.58-31.15,2.35,2.34-2.35,2.35L755.13,392Zm0,15.57h0l2.35,2.35-2.35,2.34-2.34-2.34Zm0,15.58,2.35,2.35-2.35,2.34-2.34-2.34ZM741.9,389.68l2.34,2.34-2.34,2.35L739.55,392Zm0,15.57,2.34,2.35-2.34,2.34-2.35-2.34Zm0,15.58,2.34,2.35-2.34,2.34-2.35-2.34Zm-15.58-31.15,2.34,2.34-2.34,2.35L724,392Zm0,15.57h0l2.34,2.35-2.34,2.34L724,407.6Zm0,15.58,2.34,2.35-2.34,2.34L724,423.18Zm-15.58-31.15h0l2.35,2.34-2.35,2.35L708.4,392Zm0,15.57,2.35,2.35-2.35,2.34-2.34-2.34h0Zm2.35,17.93-2.35,2.34-2.34-2.34,2.34-2.35h0Zm-17.92-33.5,2.34,2.34-2.34,2.35L692.82,392Zm0,15.57,2.34,2.35h0l-2.34,2.34-2.35-2.34Zm0,15.58,2.34,2.35-2.34,2.34-2.35-2.34Zm-15.58-31.15,2.34,2.34-2.34,2.35L677.24,392Zm0,15.57,2.34,2.35-2.34,2.34-2.35-2.34Zm0,15.58,2.34,2.35-2.34,2.34-2.35-2.34Zm-2.35,17.92,2.35-2.34,2.34,2.34h10.89l2.35-2.34,2.34,2.34H708.4l2.34-2.34,2.35,2.34H724l2.35-2.34h0l2.34,2.34h10.89l2.35-2.34,2.34,2.34h10.89l2.34-2.34h0l2.35,2.34H770.7l2.35-2.34,2.34,2.34h10.89l2.35-2.34,2.34,2.34h10.89l2.34-2.34,2.35,2.34h0l-2.35,2.35V452l2.35,2.35h0l-2.35,2.34-2.34-2.34H791l-2.34,2.34-2.35-2.34H775.39l-2.34,2.34-2.35-2.34H759.82l-2.35,2.34-2.34-2.34H744.24l-2.34,2.34v10.89l2.34,2.35h0l-2.34,2.34v10.89l2.34,2.34-2.34,2.35v10.88l2.34,2.35-2.34,2.34v10.89l2.34,2.35L741.9,519v10.89l2.34,2.34h0l-2.34,2.35v10.88l2.34,2.35h0l-2.34,2.34V561l2.34,2.34-2.34,2.35V576.6l2.34,2.34-2.34,2.35v10.88l2.34,2.35h0l-2.34,2.34v10.89l2.34,2.34h0l-2.34,2.35v10.89l2.34,2.34h0L741.9,628V638.9l2.34,2.35h0l-2.34,2.34-2.35-2.34H728.66l-2.34,2.34L724,641.25h0l2.35-2.35V628L724,625.67h0l2.35-2.34V612.44L724,610.09h0l2.35-2.34V596.86L724,594.52h0l2.35-2.35V581.29L724,578.94l2.35-2.34V565.71L724,563.36l2.35-2.34V550.13L724,547.79h0l2.35-2.35V534.56L724,532.21h0l2.35-2.34V519L724,516.64h0l2.35-2.35V503.4L724,501.06l2.35-2.35V487.83L724,485.48l2.35-2.34V472.25L724,469.91h0l2.35-2.35V456.67L724,454.33H713.09l-2.35,2.34-2.34-2.34H697.51l-2.34,2.34-2.35-2.34H681.93l-2.34,2.34-2.35-2.34H666.36L664,456.67l-2.34-2.34L664,452V441.1l-2.34-2.35h0l2.34-2.34h0l2.35,2.34ZM664,389.68l2.35,2.34L664,394.37,661.67,392Zm0,15.57h0l2.35,2.35L664,409.94l-2.34-2.34Zm0,15.58,2.35,2.35L664,425.52l-2.34-2.34Zm-13.23,17.92-2.34,2.35-2.35-2.35h0l2.35-2.34,2.34,2.34Zm0,15.58-2.34,2.34-2.35-2.34h0l2.35-2.35Zm-2.34-64.65,2.34,2.34-2.34,2.35L646.09,392Zm0,15.57,2.34,2.35-2.34,2.34-2.35-2.34Zm0,15.58,2.34,2.35-2.34,2.34-2.35-2.34Zm-15.58-31.15L635.2,392l-2.34,2.35L630.51,392Zm0,15.57h0l2.34,2.35-2.34,2.34-2.35-2.34Zm0,15.58,2.34,2.35-2.34,2.34-2.35-2.34Zm0,15.58h0l2.34,2.34h0l-2.34,2.35-2.35-2.35h0Zm-15.58-46.73h0l2.35,2.34-2.35,2.35L614.94,392Zm0,15.57,2.35,2.35-2.35,2.34-2.34-2.34h0Zm2.35,17.93-2.35,2.34-2.34-2.34,2.34-2.35h0Zm-17.92-33.5,2.34,2.34-2.34,2.35L599.36,392Zm0,15.57,2.34,2.35h0l-2.34,2.34-2.35-2.34Zm0,15.58,2.34,2.35-2.34,2.34-2.35-2.34Zm-15.58-31.15,2.34,2.34-2.34,2.35L583.78,392Zm0,15.57,2.34,2.35-2.34,2.34-2.35-2.34Zm0,15.58,2.34,2.35-2.34,2.34-2.35-2.34Zm-15.58-31.15L572.9,392l-2.35,2.35L568.21,392Zm0,15.57h0l2.35,2.35-2.35,2.34-2.34-2.34Zm0,15.58,2.35,2.35-2.35,2.34-2.34-2.34ZM555,389.68l2.34,2.34L555,394.37,552.63,392Zm0,15.57,2.34,2.35L555,409.94l-2.35-2.34Zm0,15.58,2.34,2.35L555,425.52l-2.35-2.34ZM539.4,389.68l2.34,2.34-2.34,2.35L537.05,392Zm0,15.57h0l2.34,2.35-2.34,2.34-2.35-2.34Zm0,15.58,2.34,2.35-2.34,2.34-2.35-2.34Zm-15.58-31.15h0l2.35,2.34-2.35,2.35L521.48,392Zm0,15.57,2.35,2.35-2.35,2.34-2.34-2.34h0Zm2.35,17.93-2.35,2.34-2.34-2.34,2.34-2.35h0Zm-4.69,15.57,2.34-2.34,2.35,2.34h10.88l2.35-2.34h0l2.34,2.34h10.89l2.35-2.34,2.34,2.34h10.89l2.34-2.34h0l2.35,2.34h10.88l2.35-2.34,2.34,2.34h10.89l2.35-2.34,2.34,2.34h10.89l2.34-2.34,2.35,2.34h0l-2.35,2.35V452l2.35,2.35h10.88l2.35-2.35,2.34,2.35-2.34,2.34v10.89l2.34,2.35h10.89l2.35-2.35,2.34,2.35h0l-2.34,2.34v10.89l2.34,2.34-2.34,2.35v10.88l2.34,2.35-2.34,2.34v10.89l2.34,2.35L648.44,519v10.89l2.34,2.34h0l-2.34,2.35-2.35-2.35H635.2l-2.34,2.35v10.88l2.34,2.35-2.34,2.34-2.35-2.34H619.63l-2.35,2.34V561l2.35,2.34-2.35,2.35V576.6l2.35,2.34h10.88l2.35-2.34,2.34,2.34-2.34,2.35v10.88l2.34,2.35h10.89l2.35-2.35,2.34,2.35h0l-2.34,2.34v10.89l2.34,2.34h0l-2.34,2.35v10.89l2.34,2.34h0L648.44,628V638.9l2.34,2.35h0l-2.34,2.34-2.35-2.34H635.21l-2.35,2.34-2.35-2.34h0l2.35-2.35V628l-2.35-2.35h0l2.35-2.34V612.44l-2.35-2.35H619.63l-2.35,2.35-2.34-2.35,2.34-2.34V596.86l-2.34-2.34H604.05l-2.34,2.34-2.35-2.34h0l2.35-2.35V581.29l-2.35-2.35,2.35-2.34V565.71l-2.35-2.35H588.47l-2.34,2.35-2.35-2.35H572.9l-2.35,2.35-2.34-2.35H557.32L555,565.71l-2.35-2.35H541.74l-2.34,2.35-2.35-2.35H526.17l-2.35,2.35V576.6l2.35,2.34-2.35,2.35v10.88l2.35,2.35h0l-2.35,2.34v10.89l2.35,2.34h0l-2.35,2.35v10.89l2.35,2.34L523.82,628V638.9l2.35,2.35h0l-2.35,2.34-2.34-2.34H510.59l-2.34,2.34-2.35-2.34,2.35-2.35V628l-2.35-2.35,2.35-2.34V612.44l-2.35-2.35,2.35-2.34V596.86l-2.35-2.34,2.35-2.35V581.29l-2.35-2.35,2.35-2.34V565.71l-2.35-2.35h0l2.35-2.34V550.13l-2.35-2.34,2.35-2.35V534.56l-2.35-2.35h0l2.35-2.34V519l-2.35-2.34,2.35-2.35V503.4l-2.35-2.34,2.35-2.35V487.83l-2.35-2.35,2.35-2.34V472.25l-2.35-2.34h0l2.35-2.35V456.67l-2.35-2.34,2.35-2.35V441.1l-2.35-2.35h0l2.35-2.34,2.34,2.34Zm127,127-2.35-2.35,2.35-2.34,2.34,2.34Zm2.34,13.23-2.34,2.35-2.35-2.35,2.35-2.34Zm-2.34-28.81-2.35-2.34,2.35-2.35,2.34,2.35ZM635.2,563.36l-2.34,2.35-2.35-2.35,2.35-2.34Zm-109,93.46-2.35,2.35-2.34-2.35,2.34-2.34Zm-15.58,0-2.34,2.35-2.35-2.35,2.35-2.34Zm-2.34-267.14,2.34,2.34-2.34,2.35L505.9,392Zm0,15.57,2.34,2.35h0l-2.34,2.34-2.35-2.34Zm0,15.58,2.34,2.35-2.34,2.34-2.35-2.34ZM492.67,643.59l-2.34-2.34h0l2.35-2.35,2.35,2.35h0ZM495,656.82l-2.35,2.35-2.34-2.35,2.34-2.34ZM477.09,561l2.35,2.34h0l-2.35,2.35-2.34-2.35h0Zm-2.34-13.23,2.34-2.35,2.35,2.35-2.35,2.34Zm4.69-15.58-2.35,2.35-2.34-2.35h0l2.34-2.34,2.35,2.34Zm-2.35-33.5,2.35,2.35-2.35,2.34-2.34-2.34Zm-2.34-13.23,2.34-2.34,2.35,2.34-2.35,2.35Zm2.34,33.5-2.34-2.34,2.34-2.35,2.35,2.35h0Zm2.35-49.07-2.35,2.34-2.34-2.34h0l2.34-2.35,2.35,2.35Zm13.23,122.26,2.35,2.35-2.35,2.34-2.35-2.34Zm-2.35-13.23,2.35-2.34,2.35,2.34-2.35,2.35Zm2.35-75.54-2.35-2.34,2.35-2.35,2.35,2.35ZM495,516.64,492.67,519l-2.34-2.34h0l2.35-2.35Zm-4.7-31.16,2.35-2.34,2.35,2.34-2.35,2.35Zm4.7-15.57-2.35,2.34-2.35-2.34h0l2.35-2.35,2.35,2.35Zm-2.35,64.65-2.35-2.35h0l2.34-2.34,2.35,2.34h0ZM495,547.79l-2.35,2.34-2.35-2.34,2.35-2.35Zm0,77.88L492.67,628l-2.35-2.35,2.35-2.34Zm-4.7-15.58,2.35-2.34,2.35,2.34-2.35,2.35Zm2.35-153.42-2.35-2.34,2.35-2.35,2.35,2.35ZM495,438.75l-2.35,2.35-2.35-2.35h0l2.35-2.34,2.35,2.34Zm-2.35-49.07L495,392l-2.35,2.35L490.32,392Zm0,15.57L495,407.6l-2.35,2.34-2.35-2.34Zm0,15.58,2.35,2.35-2.35,2.34-2.35-2.34Zm-2.35,142.53,2.35-2.34,2.35,2.34h0l-2.35,2.35-2.35-2.35ZM477.09,456.67l-2.34-2.34,2.34-2.35,2.35,2.35Zm2.35-17.92-2.35,2.35-2.34-2.35h0l2.34-2.34h0l2.35,2.34Zm-2.35-49.07,2.35,2.34-2.35,2.35L474.75,392Zm0,15.57h0l2.35,2.35-2.35,2.34-2.34-2.34Zm0,15.58,2.35,2.35-2.35,2.34-2.34-2.34Zm-15.57,77.88,2.34,2.35-2.34,2.34-2.35-2.34Zm-2.35-13.23,2.35-2.34,2.34,2.34-2.34,2.35Zm4.69-15.57-2.34,2.34-2.35-2.34h0l2.35-2.35,2.34,2.35Zm-2.34-13.24-2.35-2.34,2.35-2.35,2.34,2.35Zm2.34-17.92-2.34,2.35-2.35-2.35h0l2.35-2.34,2.34,2.34Zm-2.34-49.07,2.34,2.34-2.34,2.35L459.17,392Zm0,15.57,2.34,2.35-2.34,2.34-2.35-2.34Zm0,15.58,2.34,2.35-2.34,2.34-2.35-2.34Zm-15.58-31.15,2.35,2.34-2.35,2.35L443.59,392Zm0,15.57h0l2.35,2.35-2.35,2.34-2.35-2.34Zm0,15.58,2.35,2.35-2.35,2.34-2.35-2.34Zm0,15.58h0l2.35,2.34h0l-2.35,2.35-2.34-2.35h0Zm2.35,17.92-2.35,2.34-2.34-2.34,2.34-2.35Zm-4.69,15.58,2.34-2.35,2.35,2.35h0l-2.35,2.34-2.35-2.34Zm4.69,15.57-2.35,2.35-2.34-2.35,2.34-2.34Zm-17.93-95.8h0l2.35,2.34-2.35,2.35L428,392Zm0,15.57,2.35,2.35-2.35,2.34L428,407.6h0Zm2.35,17.93-2.35,2.34L428,423.18l2.34-2.35h0Zm-17.92-33.5,2.34,2.34-2.34,2.35L412.44,392Zm0,15.57,2.34,2.35h0l-2.34,2.34-2.35-2.34Zm0,15.58,2.34,2.35-2.34,2.34-2.35-2.34Zm-15.58-31.15,2.35,2.34-2.35,2.35L396.87,392Zm0,15.57,2.35,2.35-2.35,2.34-2.34-2.34Zm0,15.58,2.35,2.35-2.35,2.34-2.34-2.34Zm-15.58-31.15L386,392l-2.35,2.35L381.29,392Zm0,15.57h0L386,407.6l-2.35,2.34-2.34-2.34Zm0,15.58,2.35,2.35-2.35,2.34-2.34-2.34Zm-15.57-31.15L370.4,392l-2.34,2.35L365.71,392Zm0,15.57,2.34,2.35-2.34,2.34-2.35-2.34Zm0,15.58,2.34,2.35-2.34,2.34-2.35-2.34Zm-15.58-31.15,2.35,2.34-2.35,2.35L350.14,392Zm0,15.57h0l2.35,2.35-2.35,2.34-2.34-2.34Zm0,15.58,2.35,2.35-2.35,2.34-2.34-2.34Zm0,15.58h0l2.35,2.34h0l-2.35,2.35-2.34-2.35h0Zm0,35.84-2.34-2.34,2.34-2.35,2.35,2.35Zm2.35,13.23-2.35,2.35-2.34-2.35,2.34-2.34Zm-2.35-28.81-2.34-2.34,2.34-2.35,2.35,2.35Zm-15.58-67h0l2.35,2.34-2.35,2.35L334.56,392Zm0,15.57,2.35,2.35-2.35,2.34-2.34-2.34h0Zm2.35,17.93-2.35,2.34-2.34-2.34,2.34-2.35h0Zm-2.35,13.23,2.35,2.34h0l-2.35,2.35-2.34-2.35Zm0,15.57,2.35,2.35-2.35,2.34-2.34-2.34Zm0,15.58,2.35,2.35-2.35,2.34-2.34-2.34Zm0,15.58,2.35,2.34-2.35,2.35-2.34-2.35Zm0,15.57,2.35,2.35-2.35,2.34-2.34-2.34Zm-15.57-109,2.34,2.34-2.34,2.35L319,392Zm0,15.57,2.34,2.35h0l-2.34,2.34L319,407.6Zm0,15.58,2.34,2.35-2.34,2.34L319,423.18Zm0,15.58,2.34,2.34h0l-2.34,2.35L319,438.75Zm0,15.57,2.34,2.35-2.34,2.34L319,454.33Zm0,15.58,2.34,2.35-2.34,2.34L319,469.91Zm0,15.58,2.34,2.34-2.34,2.35L319,485.48Zm0,15.57,2.34,2.35-2.34,2.34L319,501.06Zm0,15.58,2.34,2.35L321.33,519,319,516.64Zm0,15.58,2.34,2.34h0l-2.34,2.35L319,532.21Zm0,15.57,2.34,2.35-2.34,2.34L319,547.79ZM319,563.36l2.35-2.34,2.34,2.34-2.34,2.35L319,563.36Zm0,15.58,2.35-2.34,2.34,2.34h10.89l2.34-2.34V565.71l-2.34-2.35h0L336.9,561V550.13l-2.34-2.34,2.34-2.35V534.56l-2.34-2.35,2.34-2.34V519l-2.34-2.34,2.34-2.35,2.35,2.35h10.89l2.34-2.35V503.4l-2.34-2.34,2.34-2.35,2.35,2.35h10.88l2.35-2.35V487.83l-2.35-2.35,2.35-2.34V472.25l-2.35-2.34,2.35-2.35V456.67l-2.35-2.34,2.35-2.35V441.1l-2.35-2.35h0l2.35-2.34,2.34,2.34h10.89l2.34-2.34h0l2.35,2.34h10.89l2.34-2.34,2.35,2.34h10.88l2.35-2.34,2.34,2.34H428l2.34-2.34,2.35,2.34h0l-2.35,2.35V452l2.35,2.35-2.35,2.34v10.89l2.35,2.35h0l-2.35,2.34v10.89l2.35,2.34-2.35,2.35v10.88l2.35,2.35H443.6l2.34-2.35,2.35,2.35-2.35,2.34v10.89l2.35,2.35h10.88l2.35-2.35,2.34,2.35L461.52,519v10.89l2.34,2.34h0l-2.34,2.35v10.88l2.34,2.35-2.34,2.34V561l2.34,2.34h0l-2.34,2.35V576.6l2.34,2.34h10.89l2.34-2.34,2.35,2.34-2.35,2.35v10.88l2.35,2.35-2.35,2.34v10.89l2.35,2.34-2.35,2.35v10.89l2.35,2.34L477.09,628V638.9l2.35,2.35h0l-2.35,2.34-2.34-2.34H463.86l-2.34,2.34-2.35-2.34h0l2.35-2.35V628l-2.35-2.35,2.35-2.34V612.44l-2.35-2.35h0l2.35-2.34V596.86l-2.35-2.34H448.29l-2.35,2.34-2.34-2.34,2.34-2.35V581.29l-2.34-2.35,2.34-2.34V565.71l-2.35-2.35H432.71l-2.35,2.35L428,563.36H417.13l-2.34,2.35-2.35-2.35H401.56l-2.35,2.35-2.34-2.35H386l-2.35,2.35-2.34-2.35H370.4l-2.34,2.35-2.35-2.35H354.83l-2.35,2.35V576.6l2.35,2.34-2.35,2.35v10.88l2.35,2.35-2.35,2.34-2.34-2.34H339.25l-2.35,2.34v10.89l2.35,2.34h0l-2.35,2.35v10.89l2.35,2.34L336.9,628V638.9l2.35,2.35h0l-2.35,2.34-2.34-2.34H323.67l-2.34,2.34L319,641.25l2.35-2.35V628L319,625.67l2.35-2.34V612.44L319,610.09l2.35-2.34V596.86L319,594.52h0l2.35-2.35V581.29Zm160.46,77.88-2.35,2.35-2.34-2.35,2.34-2.34Zm-15.58,0-2.34,2.35-2.35-2.35,2.35-2.34ZM274.6,623.33l2.34,2.34L274.6,628l-2.35-2.35Zm-2.35-13.24,2.35-2.34,2.34,2.34-2.34,2.35-2.35-2.35Zm17.92,33.5-2.34-2.34,2.34-2.35,2.35,2.35Zm2.35,13.23-2.35,2.35-2.34-2.35,2.34-2.34Zm-2.35-33.49,2.35,2.34L290.17,628l-2.34-2.35Zm-2.34-13.24,2.34-2.34,2.35,2.34-2.35,2.35Zm17.92,2.35-2.34-2.35h0l2.34-2.34,2.35,2.34Zm2.35,13.23L305.75,628l-2.34-2.35,2.34-2.34Zm-2.35,13.23,2.35,2.35-2.35,2.34-2.34-2.34Zm0,15.58,2.35,2.34-2.35,2.35-2.34-2.35Zm15.58,15.58h0l2.34,2.34-2.34,2.35L319,672.4ZM319,656.82l2.35-2.34h0l2.34,2.34-2.34,2.35Zm51.42-77.88-2.34,2.35-2.35-2.35,2.35-2.34h0Zm13.23,13.23,2.35,2.35-2.35,2.34-2.34-2.34Zm-2.34-13.23,2.34-2.34,2.35,2.34-2.35,2.35Zm17.92,33.5-2.34-2.35,2.34-2.34,2.35,2.34h0Zm2.35,13.23L399.21,628l-2.34-2.35,2.34-2.34Zm-2.35-28.81-2.34-2.34,2.34-2.35,2.35,2.35Zm0-15.57-2.34-2.35,2.34-2.34,2.35,2.34Zm-15.58,31.15-2.34-2.35h0l2.34-2.34,2.35,2.34ZM386,625.67,383.63,628l-2.34-2.35,2.34-2.34Zm-2.35,13.23,2.35,2.35-2.35,2.34-2.34-2.34h0ZM386,656.82l-2.35,2.35-2.34-2.35,2.34-2.34Zm-17.92-13.23-2.35-2.34,2.35-2.35,2.34,2.35h0Zm2.34,13.23-2.34,2.35-2.35-2.35,2.35-2.34Zm-4.69-31.15,2.35-2.34,2.34,2.34L368.06,628Zm2.35-13.23-2.35-2.35,2.35-2.34,2.34,2.34h0Zm0-15.58-2.35-2.34,2.35-2.35,2.34,2.35Zm-15.58,15.58-2.34-2.35h0l2.34-2.34,2.35,2.34Zm2.35,13.23L352.48,628l-2.34-2.35,2.34-2.34Zm-2.35,13.23,2.35,2.35-2.35,2.34-2.34-2.34h0Zm2.35,17.92-2.35,2.35-2.34-2.35,2.34-2.34ZM336.9,670.06l2.35,2.34-2.35,2.35-2.34-2.35Zm-2.34-13.24,2.34-2.34,2.35,2.34-2.35,2.35Zm17.92,13.24,2.35,2.34-2.35,2.35-2.34-2.35Zm15.58,0,2.34,2.34-2.34,2.35-2.35-2.35Zm15.57,0L386,672.4l-2.35,2.35-2.34-2.35Zm15.58-31.16,2.35,2.35h0l-2.35,2.34-2.34-2.34Zm15.58-46.73,2.34,2.35-2.34,2.34-2.35-2.34Zm-2.35-13.23,2.35-2.34,2.34,2.34-2.34,2.35Zm17.92,13.23,2.35,2.35-2.35,2.34L428,594.52ZM428,578.94l2.34-2.34,2.35,2.34-2.35,2.35Zm2.34,33.5L428,610.09h0l2.34-2.34,2.35,2.34h0Zm2.35,13.23L430.36,628,428,625.67l2.34-2.34Zm-17.92-13.23-2.35-2.35,2.35-2.34,2.34,2.34Zm2.34,13.23L414.79,628l-2.35-2.35,2.35-2.34Zm-17.92,28.81h0l2.35,2.34-2.35,2.35-2.34-2.35Zm15.58-15.58,2.34,2.35-2.34,2.34-2.35-2.34h0Zm0,15.58,2.34,2.34-2.34,2.35-2.35-2.35Zm15.57-15.58,2.35,2.35h0l-2.35,2.34L428,641.25h0Zm0,15.58,2.35,2.34-2.35,2.35L428,656.82Zm15.58-31.15,2.35,2.34L445.94,628l-2.34-2.35Zm-2.34-13.24,2.34-2.34,2.35,2.34-2.35,2.35Zm2.34,28.81,2.35,2.35-2.35,2.34-2.34-2.34h0Zm0,15.58,2.35,2.34-2.35,2.35-2.34-2.35ZM305.75,389.68,308.1,392l-2.35,2.35L303.41,392Zm0,15.57,2.35,2.35-2.35,2.34-2.34-2.34Zm0,15.58,2.35,2.35-2.35,2.34-2.34-2.34Zm-2.34,17.92,2.34-2.34,2.35,2.34-2.35,2.35-2.34-2.35ZM305.75,452l2.35,2.35-2.35,2.34-2.34-2.34Zm0,15.58,2.35,2.35-2.35,2.34-2.34-2.34Zm0,15.58,2.35,2.34-2.35,2.35-2.34-2.35Zm0,15.57,2.35,2.35-2.35,2.34-2.34-2.34Zm0,15.58,2.35,2.35L305.75,519l-2.34-2.34Zm0,15.58,2.35,2.34-2.35,2.35-2.34-2.35Zm0,15.57,2.35,2.35-2.35,2.34-2.34-2.34Zm-2.34,17.92,2.34-2.34,2.35,2.34h0l-2.35,2.35-2.34-2.35Zm4.69,15.58-2.35,2.35-2.34-2.35,2.34-2.34Zm-2.35,13.23,2.35,2.35h0l-2.35,2.34-2.34-2.34h0ZM290.17,389.68l2.35,2.34-2.35,2.35L287.83,392Zm0,15.57h0l2.35,2.35-2.35,2.34-2.34-2.34Zm0,15.58,2.35,2.35-2.35,2.34-2.34-2.34Zm0,15.58h0l2.35,2.34-2.35,2.35-2.34-2.35Zm0,15.57,2.35,2.35-2.35,2.34-2.34-2.34Zm0,15.58,2.35,2.35-2.35,2.34-2.34-2.34Zm0,15.58,2.35,2.34-2.35,2.35-2.34-2.35Zm0,15.57,2.35,2.35-2.35,2.34-2.34-2.34Zm0,15.58,2.35,2.35L290.17,519l-2.34-2.34Zm0,15.58,2.35,2.34h0l-2.35,2.35-2.34-2.35Zm0,15.57,2.35,2.35-2.35,2.34-2.34-2.34Zm-2.34,17.92,2.34-2.34,2.35,2.34-2.35,2.35-2.34-2.35Zm2.34,13.24,2.35,2.34-2.35,2.35-2.34-2.35Zm0,15.57,2.35,2.35h0l-2.35,2.34-2.34-2.34h0ZM274.6,389.68l2.34,2.34-2.34,2.35L272.25,392Zm0,15.57,2.34,2.35-2.34,2.34-2.35-2.34Zm0,15.58,2.34,2.35-2.34,2.34-2.35-2.34Zm-2.35,17.92,2.35-2.34,2.34,2.34h0l-2.34,2.35-2.35-2.35ZM274.6,452l2.34,2.35-2.34,2.34-2.35-2.34Zm0,15.58,2.34,2.35-2.34,2.34-2.35-2.34Zm0,15.58,2.34,2.34-2.34,2.35-2.35-2.35Zm0,15.57,2.34,2.35-2.34,2.34-2.35-2.34Zm0,15.58,2.34,2.35L274.6,519l-2.35-2.34Zm0,15.58,2.34,2.34-2.34,2.35-2.35-2.35Zm0,15.57,2.34,2.35-2.34,2.34-2.35-2.34Zm0,15.58,2.34,2.34h0l-2.34,2.35-2.35-2.35Zm-2.35,17.92,2.35-2.34,2.34,2.34-2.34,2.35-2.35-2.35Zm2.35,13.23,2.34,2.35h0l-2.34,2.34-2.35-2.34h0Zm0,46.73,2.34,2.35-2.34,2.34-2.35-2.34Zm2.34,17.92-2.34,2.35-2.35-2.35,2.35-2.34Zm-2.34,33.5L272.25,688l2.35-2.35,2.34,2.35Zm0-15.57-2.35-2.35,2.35-2.34,2.34,2.34Zm15.57,15.57L287.83,688l2.34-2.35,2.35,2.35Zm0-15.57-2.34-2.35,2.34-2.34,2.35,2.34Zm15.58,15.57L303.41,688l2.34-2.35L308.1,688Zm0-15.57-2.34-2.35,2.34-2.34,2.35,2.34Zm15.58,15.57L319,688l2.35-2.35h0l2.34,2.35Zm15.57,0L334.56,688l2.34-2.35,2.35,2.35Zm15.58,0L350.14,688l2.34-2.35,2.35,2.35Zm15.58,0L365.71,688l2.35-2.35L370.4,688Zm15.57,0L381.29,688l2.34-2.35L386,688Zm15.58,0L396.87,688l2.34-2.35h0l2.35,2.35Zm0-15.57-2.34-2.35,2.34-2.34h0l2.35,2.34Zm15.58,15.57L412.44,688l2.35-2.35,2.34,2.35Zm0-15.57-2.35-2.35,2.35-2.34,2.34,2.34Zm15.57,15.57L428,688l2.34-2.35,2.35,2.35Zm0-15.57L428,672.4l2.34-2.34,2.35,2.34Zm15.58,15.57L443.6,688l2.34-2.35,2.35,2.35Zm0-15.57-2.34-2.35,2.34-2.34,2.35,2.34Zm15.58,15.57L459.17,688l2.35-2.35,2.34,2.35Zm0-15.57-2.35-2.35,2.35-2.34,2.34,2.34Zm15.57,15.57L474.75,688l2.34-2.35,2.35,2.35Zm0-15.57-2.34-2.35,2.34-2.34,2.35,2.34Zm15.58,15.57L490.33,688l2.34-2.35L495,688Zm0-15.57-2.34-2.35,2.34-2.34L495,672.4Zm15.58,15.57L505.9,688l2.35-2.35,2.34,2.35Zm0-15.57-2.35-2.35,2.35-2.34,2.34,2.34Zm15.57,15.57L521.48,688l2.34-2.35,2.35,2.35Zm0-15.57-2.34-2.35,2.34-2.34,2.35,2.34Zm15.58,15.57L537.05,688l2.35-2.35h0l2.35,2.35Zm15.58,0L552.63,688l2.35-2.35,2.34,2.35Zm15.57,0L568.21,688l2.34-2.35L572.9,688Zm15.58,0L583.78,688l2.35-2.35,2.35,2.35Zm15.58,0L599.36,688l2.35-2.35,2.34,2.35Zm15.57,0L614.94,688l2.34-2.35,2.35,2.35Zm15.58,0L630.51,688l2.35-2.35,2.35,2.35Zm15.58,0L646.09,688l2.35-2.35,2.34,2.35Zm15.57,0L661.67,688l2.34-2.35,2.35,2.35Zm15.58,0L677.24,688l2.35-2.35,2.34,2.35Zm15.58,0L692.82,688l2.35-2.35,2.34,2.35Zm15.57,0L708.4,688l2.34-2.35,2.35,2.35Zm15.58,0L724,688l2.35-2.35,2.34,2.35Zm15.58,0L739.55,688l2.35-2.35,2.34,2.35Zm15.57,0L755.13,688l2.34-2.35,2.35,2.35Zm15.58,0L770.7,688l2.35-2.35,2.34,2.35Zm15.58,0L786.28,688l2.35-2.35L791,688Zm15.57,0L801.86,688l2.34-2.35,2.35,2.35Zm15.58,0L817.43,688l2.35-2.35,2.34,2.35Zm15.58,0L833,688l2.35-2.35L837.7,688Zm15.57,0L848.59,688l2.34-2.35,2.35,2.35Zm15.58,0L864.16,688l2.35-2.35,2.34,2.35Zm15.58,0L879.74,688l2.35-2.35,2.34,2.35Zm15.57,0L895.32,688l2.34-2.35L900,688Zm15.58,0L910.89,688l2.35-2.35,2.34,2.35Zm15.58,0L926.47,688l2.35-2.35,2.34,2.35Zm15.57,0L942.05,688l2.34-2.35,2.35,2.35Zm15.58,0L957.62,688l2.35-2.35,2.34,2.35Zm15.58,0L973.2,688l2.35-2.35,2.34,2.35Zm15.57,0L988.78,688l2.34-2.35,2.35,2.35Zm15.58,0-2.35-2.34,2.35-2.35L1009,688Zm15.58,0-2.35-2.34,2.35-2.35,2.34,2.35Zm15.57,0-2.34-2.34,2.34-2.35,2.35,2.35Zm15.58,0-2.35-2.34,2.35-2.35,2.34,2.35Zm15.58,0-2.35-2.34,2.35-2.35,2.34,2.35Zm15.57,0-2.34-2.34,2.34-2.35,2.35,2.35Zm15.58,0-2.35-2.34,2.35-2.35,2.34,2.35Zm15.58,0-2.35-2.34,2.35-2.35,2.34,2.35Zm15.57,0L1129,688l2.34-2.35,2.35,2.35Zm15.58,0-2.35-2.34,2.35-2.35,2.34,2.35Zm15.58,0-2.35-2.34,2.35-2.35,2.34,2.35Zm15.57,0L1175.7,688l2.34-2.35,2.35,2.35Zm15.58,0-2.35-2.34,2.35-2.35L1196,688Zm15.57,0-2.34-2.34,2.34-2.35,2.35,2.35Zm15.58,0-2.34-2.34,2.34-2.35,2.35,2.35Zm15.58,0L1238,688l2.35-2.35,2.34,2.35Zm15.57,0-2.34-2.34,2.34-2.35,2.35,2.35Zm15.58,0-2.34-2.34,2.34-2.35,2.35,2.35Zm15.58,0-2.35-2.34,2.35-2.35,2.34,2.35Zm15.57,0-2.34-2.34,2.34-2.35L1305,688Zm15.58,0-2.34-2.34,2.34-2.35,2.35,2.35Zm15.58,0-2.35-2.34,2.35-2.35,2.34,2.35Zm15.57,0L1347,688l2.34-2.35,2.35,2.35Zm15.58,0-2.34-2.34,2.34-2.35,2.35,2.35Zm15.58,0-2.35-2.34,2.35-2.35,2.34,2.35Zm15.57,0-2.34-2.34,2.34-2.35,2.35,2.35Zm15.58,0-2.34-2.34,2.34-2.35L1414,688Zm15.58,0-2.35-2.34,2.35-2.35,2.34,2.35Zm15.57,0L1440.5,688l2.34-2.35,2.35,2.35Zm15.58,0-2.34-2.34,2.34-2.35,2.35,2.35Zm15.58,0-2.35-2.34,2.35-2.35,2.34,2.35Zm15.57,0-2.34-2.34,2.34-2.35,2.35,2.35Zm15.58,0-2.34-2.34,2.34-2.35,2.35,2.35Zm15.58,0-2.35-2.34,2.35-2.35,2.34,2.35Zm15.57,0L1534,688l2.34-2.35,2.35,2.35Zm15.58,0-2.34-2.34,2.34-2.35,2.35,2.35Zm15.58,0-2.35-2.34,2.35-2.35,2.34,2.35Zm15.57,0-2.34-2.34,2.34-2.35,2.35,2.35Zm15.58,0-2.34-2.34,2.34-2.35L1601,688Zm15.58,0-2.35-2.34,2.35-2.35,2.34,2.35Zm15.57,0-2.34-2.34,2.34-2.35,2.35,2.35Zm15.58,0L1643,688l2.34-2.35,2.35,2.35Z" transform="translate(-259.02 -376.45)"/></svg>
