<svg width="138" height="27" viewBox="0 0 138 27" fill="none" xmlns="http://www.w3.org/2000/svg">
  <path d="M8.4 15.6746C8.4 16.6546 8.12467 17.3686 7.574 17.8166C7.02333 18.2553 6.31867 18.4746 5.46 18.4746H1.26L1.12 18.3346V8.81461L1.26 8.67461H5.18C6.02933 8.67461 6.72933 8.88928 7.28 9.31861C7.84 9.74794 8.12 10.4199 8.12 11.3346C8.12 11.8013 7.99867 12.2073 7.756 12.5526C7.52267 12.8979 7.224 13.1453 6.86 13.2946V13.4346C7.31733 13.5839 7.686 13.8453 7.966 14.2186C8.25533 14.5919 8.4 15.0773 8.4 15.6746ZM6.314 12.4406C6.58467 12.2446 6.72 11.8759 6.72 11.3346C6.72 10.7933 6.58 10.4246 6.3 10.2286C6.02 10.0326 5.55333 9.93461 4.9 9.93461H2.66L2.52 10.0746V12.5946L2.66 12.7346H5.04C5.628 12.7346 6.05267 12.6366 6.314 12.4406ZM7 15.6746C7 15.0493 6.85067 14.6153 6.552 14.3726C6.25333 14.1206 5.74933 13.9946 5.04 13.9946H2.66L2.52 14.1346V17.0746L2.66 17.2146H5.32C5.88933 17.2146 6.30933 17.0979 6.58 16.8646C6.86 16.6219 7 16.2253 7 15.6746ZM15.7884 12.5946L13.5484 18.1946C13.1284 19.2399 12.7224 19.9213 12.3304 20.2386C11.9384 20.5559 11.3177 20.7146 10.4684 20.7146H10.1884L10.0484 20.5746V19.5946L10.1884 19.4546H10.4684C10.8417 19.4546 11.1357 19.3986 11.3504 19.2866C11.565 19.1746 11.7377 18.9506 11.8684 18.6146V18.4746L9.48836 12.5946V11.6146L9.62836 11.4746H10.4684L10.6084 11.6146L12.5684 16.7946H12.7084L14.6684 11.6146L14.8084 11.4746H15.6484L15.7884 11.6146V12.5946Z" fill="#707070"/>
  <g clip-path="url(#clip0)">
    <path d="M64.504 16.2499V15.4566L61.7845 8.54355L61.6713 8.42963H60.6508L60.5376 8.54355L57.8174 15.4566V16.2499L57.9313 16.3632H58.6107L58.7246 16.2499L59.4046 14.5494L59.6311 14.4362H62.691L62.9175 14.5494L63.5975 16.2499L63.7107 16.3632H64.3908L64.504 16.2499ZM62.4645 13.3033L62.3499 13.4165H59.9708L59.8576 13.3033L61.1044 10.1274H61.2177L62.4645 13.3033ZM68.6976 11.6035V10.8102L68.5844 10.6963H68.1308C67.3375 10.6963 66.9978 10.9234 66.6574 11.2631H66.5442L66.431 10.8102L66.3177 10.6963H65.5258L65.4119 10.8102V16.2499L65.5258 16.3632H66.4323L66.5456 16.2499V13.4192C66.5456 12.0591 67.1124 11.7194 68.0189 11.7194H68.5857L68.699 11.6062L68.6976 11.6035ZM72.7752 16.2499V15.4566L72.6619 15.3434H71.7575C71.531 15.3434 71.3039 15.2295 71.3039 14.8898V11.8299L71.4171 11.7167H72.664L72.7772 11.6035V10.8102L72.664 10.6963H71.4171L71.3039 10.583V9.56329L71.1907 9.45006H70.2842L70.1709 9.56329V10.583L70.0577 10.6963H69.2644L69.1505 10.8102V11.6035L69.2644 11.7167H70.0577L70.1709 11.8299V14.8898C70.1709 15.9096 70.9642 16.3632 71.7589 16.3632H72.6654L72.7786 16.2499H72.7752ZM80.2544 16.4764C82.1813 16.4764 83.2011 15.3434 83.4303 13.9833L83.3164 13.8701H82.4099L82.2966 13.9833C82.0702 14.7766 81.5034 15.4566 80.2565 15.4566C78.5567 15.4566 77.6502 14.2098 77.6502 12.3967C77.6502 10.5837 78.5567 9.33684 80.2565 9.33684C81.3901 9.33684 82.0702 9.90297 82.2966 10.6963L82.4099 10.8102H83.3164L83.4303 10.6963C83.2031 9.33684 82.0702 8.31641 80.2544 8.31641C77.8745 8.31641 76.5151 10.0169 76.5151 12.3967C76.5151 14.7766 77.8745 16.4764 80.2544 16.4764ZM89.207 16.2499V10.8102L89.0937 10.6963H88.19L88.0768 10.8102V13.5325C88.0768 14.8926 87.5099 15.4594 86.7167 15.4594C85.8101 15.4594 85.583 14.7794 85.583 14.0993V10.8129L85.4698 10.699H84.5633L84.45 10.8129V14.0993C84.45 15.3462 85.0169 16.4791 86.6034 16.4791C86.8674 16.4791 87.1277 16.4177 87.3637 16.2996C87.5998 16.1816 87.8052 16.0102 87.9635 15.7991H88.0768L88.19 16.2527L88.3032 16.3659H89.0965L89.2097 16.2527L89.207 16.2499ZM93.8534 11.6035V10.8102L93.7402 10.6963H93.2873C92.494 10.6963 92.1537 10.9234 91.814 11.2631H91.7007L91.5868 10.8102L91.4736 10.6963H90.6831L90.5698 10.8102V16.2499L90.6831 16.3632H91.5896L91.7035 16.2499V13.4192C91.7035 12.0591 92.2696 11.7194 93.1762 11.7194H93.743L93.8562 11.6062L93.8534 11.6035ZM98.9535 16.2499V13.074C98.9535 11.3736 98.3867 10.5803 96.6869 10.5803C94.9871 10.5803 94.4203 11.4868 94.4203 12.2801L94.5335 12.394H95.44L95.5588 12.2828C95.5588 11.8299 95.8984 11.6035 96.6917 11.6035C97.485 11.6035 97.8254 11.8299 97.8254 12.6232V12.8497L97.7115 12.9629C97.3767 12.8878 97.0348 12.8499 96.6917 12.8497C95.2184 12.8497 94.1987 13.4165 94.1987 14.6634C94.1987 15.7963 94.8787 16.4764 96.1249 16.4764C97.2586 16.4764 97.7129 15.7963 97.7129 15.7963H97.8268L97.94 16.2499L98.0532 16.3632H98.8465L98.9597 16.2499H98.9535ZM97.8206 14.323C97.8206 15.003 97.2537 15.4566 96.3472 15.4566C95.6672 15.4566 95.3268 15.2295 95.3268 14.6634C95.3268 14.0972 95.7804 13.7562 96.8001 13.7562C97.1063 13.7494 97.4117 13.7878 97.7066 13.8701L97.8206 13.9833V14.323ZM103.26 16.2499V15.4566L103.147 15.3434H102.24C102.013 15.3434 101.787 15.2295 101.787 14.8898V11.8299L101.9 11.7167H103.153L103.267 11.6035V10.8102L103.153 10.6963H101.906L101.793 10.583V9.56329L101.68 9.45006H100.773L100.66 9.56329V10.583L100.546 10.6963H99.7496L99.6363 10.8102V11.6035L99.7496 11.7167H100.543L100.656 11.8299V14.8898C100.656 15.9096 101.449 16.3632 102.244 16.3632H103.153L103.267 16.2499H103.26ZM103.826 13.5297C103.826 15.3434 104.847 16.4764 106.547 16.4764C108.246 16.4764 109.267 15.3434 109.267 13.5297C109.267 11.716 108.246 10.583 106.547 10.583C104.847 10.583 103.826 11.7167 103.826 13.5297ZM104.96 13.5297C104.96 12.2828 105.527 11.6035 106.548 11.6035C107.569 11.6035 108.136 12.2828 108.136 13.5297C108.136 14.7766 107.569 15.4566 106.548 15.4566C105.527 15.4566 104.96 14.7766 104.96 13.5297ZM113.579 11.6035V10.8102L113.465 10.6963H113.012C112.219 10.6963 111.879 10.9234 111.539 11.2631H111.425L111.312 10.8102L111.199 10.6963H110.403L110.289 10.8102V16.2499L110.403 16.3632H111.309L111.422 16.2499V13.4192C111.422 12.0591 111.989 11.7194 112.896 11.7194H113.463L113.576 11.6062L113.579 11.6035ZM120.828 9.33684C122.071 9.33684 122.754 9.90297 122.981 10.6963L123.094 10.8102H124.004L124.117 10.6963C123.891 9.56329 122.984 8.31641 120.831 8.31641C118.451 8.31641 117.091 10.0169 117.091 12.3967C117.091 14.7766 118.451 16.4764 120.717 16.4764C121.737 16.4764 122.417 16.1367 122.984 15.5699H123.097L123.21 16.2499L123.324 16.3632H124.004L124.117 16.2499V12.2828L124.004 12.1696H120.604L120.49 12.2828V13.0768L120.604 13.19H122.871L122.984 13.3033C122.984 14.4362 122.417 15.4566 120.717 15.4566C119.129 15.4566 118.224 14.2098 118.224 12.3967C118.224 10.5837 119.131 9.33684 120.831 9.33684H120.828ZM128.761 11.6035V10.8102L128.647 10.6963H128.194C127.401 10.6963 127.061 10.9234 126.721 11.2631H126.607L126.494 10.8102L126.381 10.6963H125.592L125.478 10.8102V16.2499L125.592 16.3632H126.498L126.611 16.2499V13.4192C126.611 12.0591 127.178 11.7194 128.085 11.7194H128.652L128.765 11.6062L128.761 11.6035ZM130.8 9.67652V8.76863L130.687 8.6554H129.78L129.667 8.76863V9.67514L129.78 9.78837H130.687L130.8 9.67514V9.67652ZM130.8 16.2499V10.8102L130.687 10.6963H129.78L129.667 10.8102V16.2499L129.78 16.3632H130.687L130.8 16.2499ZM137.034 16.2499V8.54355L136.921 8.42963H136.017L135.904 8.54355V11.2631H135.79C135.79 11.2631 135.337 10.583 134.317 10.583C132.729 10.583 131.824 11.8299 131.824 13.5297C131.824 15.2295 132.731 16.4764 134.317 16.4764C135.337 16.4764 135.79 15.7963 135.79 15.7963H135.904L136.017 16.2499L136.13 16.3632H136.924L137.037 16.2499H137.034ZM135.902 13.5325C135.902 14.8926 135.335 15.4594 134.428 15.4594C133.522 15.4594 132.955 14.7752 132.955 13.5325C132.955 12.2897 133.522 11.6062 134.428 11.6062C135.335 11.6062 135.902 12.1724 135.902 13.5325Z" fill="#707070"/>
    <path d="M38.3331 13.8713V13.0781L38.2199 12.9648H27.1132L27 13.0781V13.8713L27.1132 13.9846H38.2199L38.3331 13.8713ZM53.9496 13.8713V13.0781L53.8356 12.9648H42.7297L42.6164 13.0781V13.8713L42.7297 13.9846H53.8356L53.9496 13.8713Z" fill="#707070"/>
    <path d="M40.8714 15.6164H40.0781L39.9648 15.7297V26.8356L40.0781 26.9496H40.8714L40.9846 26.8356V15.7297L40.8714 15.6164ZM40.8714 0H40.0781L39.9648 0.113228V11.2199L40.0781 11.3331H40.8714L40.9846 11.2199V0.113228L40.8714 0Z" fill="#707070"/>
  </g>
  <defs>
    <clipPath id="clip0">
      <rect width="110.034" height="26.9496" fill="white" transform="translate(27)"/>
    </clipPath>
  </defs>
</svg>
