<svg width="28" height="32" viewBox="0 0 28 32" fill="none" xmlns="http://www.w3.org/2000/svg">
  <path d="M3.53603 0H24.7544C25.1816 0.00109295 25.6044 0.0863256 25.9987 0.250831C26.393 0.415337 26.751 0.655895 27.0524 0.958769C27.3537 1.26164 27.5924 1.6209 27.7549 2.01603C27.9174 2.41117 28.0005 2.83443 27.9994 3.26167V31.6667L24.5927 28.6567L22.6777 26.8833L20.6494 24.9983L21.491 27.93H3.53603C1.74769 27.93 0.291027 26.4733 0.291027 24.6683V3.26167C0.289931 2.83443 0.372996 2.41117 0.53548 2.01603C0.697964 1.6209 0.936684 1.26164 1.23801 0.958769C1.53934 0.655895 1.89737 0.415337 2.29166 0.250831C2.68596 0.0863256 3.10879 0.00109295 3.53603 0ZM17.5977 19.3933C18.071 19.9983 18.641 20.6783 18.641 20.6783C22.0817 20.5686 23.4398 18.3488 23.4849 18.2752C23.4856 18.2739 23.486 18.2733 23.486 18.2733C23.486 13.175 21.206 9.04333 21.206 9.04333C18.9277 7.33167 16.7577 7.38 16.7577 7.38L16.536 7.63333C19.2277 8.45667 20.4794 9.64333 20.4794 9.64333C18.053 8.30677 15.2614 7.78503 12.516 8.155C12.438 8.155 12.37 8.16626 12.2955 8.1786C12.2794 8.18127 12.2629 8.184 12.246 8.18667C11.691 8.235 10.346 8.44167 8.65269 9.185C8.06769 9.45333 7.71769 9.64333 7.71769 9.64333C7.71769 9.64333 9.03269 8.39333 11.8827 7.56833L11.7244 7.37833C11.7244 7.37833 9.55603 7.33 7.27603 9.04167C7.27603 9.04167 4.99603 13.1733 4.99603 18.2717C4.99603 18.2717 6.32436 20.5667 9.82269 20.6783C9.82269 20.6783 10.4094 19.9633 10.8844 19.3633C8.87269 18.7617 8.11269 17.495 8.11269 17.495C8.11269 17.495 8.27103 17.605 8.55603 17.7617C8.5739 17.7828 8.59606 17.7998 8.62103 17.8117C8.64287 17.8265 8.6647 17.8373 8.68671 17.8482C8.71174 17.8606 8.73698 17.873 8.76269 17.8917C9.13459 18.097 9.52055 18.2758 9.91769 18.4267C10.6707 18.7251 11.4495 18.9539 12.2444 19.11C14.3954 19.523 16.6205 19.2923 18.641 18.4467C19.196 18.24 19.8127 17.9367 20.4627 17.51C20.4627 17.51 19.671 18.8067 17.5977 19.3933ZM9.66455 15.0434C9.66455 14.0767 10.3762 13.285 11.2796 13.285C12.1812 13.285 12.9112 14.075 12.8929 15.0434C12.8929 16.0067 12.1812 16.8017 11.2796 16.8017C10.3929 16.8017 9.66455 16.0067 9.66455 15.0434ZM15.4446 15.0434C15.4446 14.0767 16.1562 13.285 17.0595 13.285C17.9612 13.285 18.6712 14.075 18.6729 15.0434C18.6729 16.0067 17.9612 16.8017 17.0595 16.8017C16.1729 16.8017 15.4446 16.0067 15.4446 15.0434Z" fill="#999999"/>
</svg>
