<svg  width="40" height="40"  viewBox="0 0 40 40" fill="none" xmlns="http://www.w3.org/2000/svg">
  <path fill-rule="evenodd" clip-rule="evenodd" d="M12.441 1.77699C14.396 1.68699 15.0193 1.66699 19.9993 1.66699C24.9793 1.66699 25.6027 1.68866 27.556 1.77699C29.5093 1.86533 30.8427 2.17699 32.0093 2.62866C33.231 3.09033 34.3393 3.81199 35.256 4.74533C36.1893 5.66033 36.9093 6.76699 37.3693 7.99032C37.8227 9.15699 38.1327 10.4903 38.2227 12.4403C38.3127 14.3987 38.3327 15.022 38.3327 20.0003C38.3327 24.9803 38.311 25.6037 38.2227 27.5587C38.1343 29.5087 37.8227 30.842 37.3693 32.0087C36.9093 33.2321 36.1881 34.3407 35.256 35.257C34.3393 36.1903 33.231 36.9103 32.0093 37.3703C30.8427 37.8237 29.5093 38.1337 27.5593 38.2237C25.6027 38.3137 24.9793 38.3337 19.9993 38.3337C15.0193 38.3337 14.396 38.312 12.441 38.2237C10.491 38.1353 9.15768 37.8237 7.99101 37.3703C6.76755 36.9103 5.65905 36.1891 4.74268 35.257C3.80998 34.3414 3.08821 33.2335 2.62768 32.0103C2.17602 30.8437 1.86602 29.5103 1.77602 27.5603C1.68602 25.602 1.66602 24.9787 1.66602 20.0003C1.66602 15.0203 1.68768 14.397 1.77602 12.4437C1.86435 10.4903 2.17602 9.15699 2.62768 7.99032C3.08889 6.76713 3.81121 5.65918 4.74435 4.74366C5.65942 3.81116 6.7668 3.0894 7.98935 2.62866C9.15601 2.17699 10.4893 1.86699 12.4393 1.77699H12.441ZM27.4077 5.07699C25.4743 4.98866 24.8943 4.97033 19.9993 4.97033C15.1043 4.97033 14.5243 4.98866 12.591 5.07699C10.8027 5.15866 9.83268 5.45699 9.18602 5.70866C8.33102 6.04199 7.71935 6.43699 7.07768 7.07866C6.46942 7.67041 6.00132 8.3908 5.70768 9.18699C5.45602 9.83366 5.15768 10.8037 5.07602 12.592C4.98768 14.5253 4.96935 15.1053 4.96935 20.0003C4.96935 24.8953 4.98768 25.4753 5.07602 27.4087C5.15768 29.197 5.45602 30.167 5.70768 30.8137C6.00102 31.6087 6.46935 32.3303 7.07768 32.922C7.66935 33.5303 8.39102 33.9987 9.18602 34.292C9.83268 34.5437 10.8027 34.842 12.591 34.9237C14.5243 35.012 15.1027 35.0303 19.9993 35.0303C24.896 35.0303 25.4743 35.012 27.4077 34.9237C29.196 34.842 30.166 34.5437 30.8127 34.292C31.6677 33.9587 32.2793 33.5637 32.921 32.922C33.5293 32.3303 33.9977 31.6087 34.291 30.8137C34.5427 30.167 34.841 29.197 34.9227 27.4087C35.011 25.4753 35.0293 24.8953 35.0293 20.0003C35.0293 15.1053 35.011 14.5253 34.9227 12.592C34.841 10.8037 34.5427 9.83366 34.291 9.18699C33.9577 8.33199 33.5627 7.72033 32.921 7.07866C32.3292 6.47044 31.6089 6.00234 30.8127 5.70866C30.166 5.45699 29.196 5.15866 27.4077 5.07699ZM17.6577 25.652C18.9654 26.1964 20.4216 26.2698 21.7776 25.8599C23.1335 25.4499 24.305 24.5819 25.092 23.4041C25.8791 22.2263 26.2328 20.8118 26.0928 19.4022C25.9527 17.9926 25.3277 16.6753 24.3243 15.6753C23.6847 15.0361 22.9114 14.5467 22.0599 14.2422C21.2084 13.9378 20.3001 13.8259 19.4002 13.9147C18.5003 14.0034 17.6313 14.2906 16.8557 14.7555C16.0801 15.2205 15.4173 15.8516 14.9149 16.6034C14.4124 17.3553 14.083 18.2091 13.9502 19.1036C13.8174 19.998 13.8846 20.9108 14.1469 21.7762C14.4092 22.6416 14.8601 23.438 15.4672 24.1082C16.0743 24.7784 16.8224 25.3056 17.6577 25.652ZM13.336 13.337C14.2111 12.4619 15.2499 11.7678 16.3932 11.2943C17.5365 10.8207 18.7619 10.5769 19.9993 10.5769C21.2368 10.5769 22.4622 10.8207 23.6055 11.2943C24.7488 11.7678 25.7876 12.4619 26.6627 13.337C27.5377 14.212 28.2318 15.2509 28.7054 16.3942C29.179 17.5375 29.4227 18.7628 29.4227 20.0003C29.4227 21.2378 29.179 22.4632 28.7054 23.6065C28.2318 24.7498 27.5377 25.7886 26.6627 26.6637C24.8955 28.4309 22.4986 29.4237 19.9993 29.4237C17.5001 29.4237 15.1032 28.4309 13.336 26.6637C11.5688 24.8964 10.576 22.4996 10.576 20.0003C10.576 17.5011 11.5688 15.1042 13.336 13.337ZM31.5127 11.9803C31.7295 11.7758 31.9031 11.5298 32.0232 11.2569C32.1433 10.9841 32.2074 10.6899 32.2117 10.3919C32.2161 10.0938 32.1605 9.7979 32.0485 9.52167C31.9364 9.24545 31.7701 8.99451 31.5593 8.78372C31.3485 8.57294 31.0976 8.40659 30.8213 8.29452C30.5451 8.18246 30.2492 8.12695 29.9511 8.1313C29.6531 8.13564 29.3589 8.19975 29.0861 8.31982C28.8132 8.43989 28.5672 8.61348 28.3627 8.83032C27.9649 9.25204 27.7471 9.81219 27.7555 10.3919C27.764 10.9716 27.998 11.5251 28.4079 11.9351C28.8179 12.345 29.3714 12.579 29.9511 12.5875C30.5308 12.5959 31.091 12.3781 31.5127 11.9803Z" fill="#707070"/>
</svg>
