<svg width="38" height="38" viewBox="0 0 38 38" fill="none" xmlns="http://www.w3.org/2000/svg">
  <path d="M11.4352 0.776656C13.3902 0.686656 14.0135 0.666656 18.9935 0.666656C23.9735 0.666656 24.5968 0.688323 26.5502 0.776656C28.5035 0.86499 29.8368 1.17666 31.0035 1.62832C32.2252 2.08999 33.3335 2.81166 34.2502 3.74499C35.1835 4.65999 35.9035 5.76666 36.3635 6.98999C36.8168 8.15666 37.1268 9.48999 37.2168 11.44C37.3068 13.3983 37.3268 14.0217 37.3268 19C37.3268 23.98 37.3052 24.6033 37.2168 26.5583C37.1285 28.5083 36.8168 29.8417 36.3635 31.0083C35.9035 32.2318 35.1823 33.3403 34.2502 34.2567C33.3335 35.19 32.2252 35.91 31.0035 36.37C29.8368 36.8233 28.5035 37.1333 26.5535 37.2233C24.5968 37.3133 23.9735 37.3333 18.9935 37.3333C14.0135 37.3333 13.3902 37.3117 11.4352 37.2233C9.48516 37.135 8.15182 36.8233 6.98516 36.37C5.76169 35.9099 4.65319 35.1887 3.73682 34.2567C2.80412 33.3411 2.08235 32.2331 1.62182 31.01C1.17016 29.8433 0.860156 28.51 0.770156 26.56C0.680156 24.6017 0.660156 23.9783 0.660156 19C0.660156 14.02 0.681823 13.3967 0.770156 11.4433C0.85849 9.48999 1.17016 8.15666 1.62182 6.98999C2.08303 5.76679 2.80535 4.65884 3.73849 3.74332C4.65356 2.81082 5.76094 2.08906 6.98349 1.62832C8.15016 1.17666 9.48349 0.866656 11.4335 0.776656H11.4352ZM26.4018 4.07666C24.4685 3.98832 23.8885 3.96999 18.9935 3.96999C14.0985 3.96999 13.5185 3.98832 11.5852 4.07666C9.79682 4.15832 8.82682 4.45666 8.18016 4.70832C7.32516 5.04166 6.71349 5.43666 6.07182 6.07832C5.46356 6.67008 4.99546 7.39046 4.70182 8.18666C4.45016 8.83332 4.15182 9.80332 4.07016 11.5917C3.98182 13.525 3.96349 14.105 3.96349 19C3.96349 23.895 3.98182 24.475 4.07016 26.4083C4.15182 28.1967 4.45016 29.1667 4.70182 29.8133C4.99516 30.6083 5.46349 31.33 6.07182 31.9217C6.66349 32.53 7.38516 32.9983 8.18016 33.2917C8.82682 33.5433 9.79682 33.8417 11.5852 33.9233C13.5185 34.0117 14.0968 34.03 18.9935 34.03C23.8902 34.03 24.4685 34.0117 26.4018 33.9233C28.1902 33.8417 29.1602 33.5433 29.8068 33.2917C30.6618 32.9583 31.2735 32.5633 31.9152 31.9217C32.5235 31.33 32.9918 30.6083 33.2852 29.8133C33.5368 29.1667 33.8352 28.1967 33.9168 26.4083C34.0052 24.475 34.0235 23.895 34.0235 19C34.0235 14.105 34.0052 13.525 33.9168 11.5917C33.8352 9.80332 33.5368 8.83332 33.2852 8.18666C32.9518 7.33166 32.5568 6.71999 31.9152 6.07832C31.3234 5.47011 30.603 5.00201 29.8068 4.70832C29.1602 4.45666 28.1902 4.15832 26.4018 4.07666ZM16.6518 24.6517C17.9596 25.196 19.4158 25.2695 20.7717 24.8595C22.1276 24.4495 23.2991 23.5815 24.0862 22.4037C24.8732 21.2259 25.2269 19.8114 25.0869 18.4018C24.9469 16.9922 24.3218 15.6749 23.3185 14.675C22.6789 14.0358 21.9055 13.5463 21.054 13.2419C20.2026 12.9375 19.2942 12.8256 18.3943 12.9143C17.4944 13.0031 16.6254 13.2903 15.8498 13.7552C15.0742 14.2201 14.4114 14.8512 13.909 15.6031C13.4066 16.3549 13.0771 17.2088 12.9443 18.1033C12.8116 18.9977 12.8787 19.9105 13.1411 20.7758C13.4034 21.6412 13.8543 22.4377 14.4614 23.1079C15.0684 23.778 15.8165 24.3053 16.6518 24.6517ZM12.3302 12.3367C13.2052 11.4616 14.244 10.7675 15.3873 10.2939C16.5306 9.82036 17.756 9.57661 18.9935 9.57661C20.231 9.57661 21.4564 9.82036 22.5997 10.2939C23.743 10.7675 24.7818 11.4616 25.6568 12.3367C26.5319 13.2117 27.226 14.2505 27.6996 15.3938C28.1731 16.5371 28.4169 17.7625 28.4169 19C28.4169 20.2375 28.1731 21.4629 27.6996 22.6062C27.226 23.7495 26.5319 24.7883 25.6568 25.6633C23.8896 27.4305 21.4927 28.4234 18.9935 28.4234C16.4943 28.4234 14.0974 27.4305 12.3302 25.6633C10.5629 23.8961 9.57011 21.4992 9.57011 19C9.57011 16.5008 10.5629 14.1039 12.3302 12.3367ZM30.5068 10.98C30.7237 10.7754 30.8973 10.5295 31.0173 10.2566C31.1374 9.98377 31.2015 9.6896 31.2058 9.39154C31.2102 9.09347 31.1547 8.79757 31.0426 8.52134C30.9306 8.24511 30.7642 7.99417 30.5534 7.78339C30.3426 7.5726 30.0917 7.40625 29.8155 7.29419C29.5392 7.18212 29.2433 7.12662 28.9453 7.13096C28.6472 7.13531 28.353 7.19941 28.0802 7.31948C27.8074 7.43955 27.5614 7.61315 27.3568 7.82999C26.959 8.2517 26.7412 8.81186 26.7497 9.39154C26.7581 9.97122 26.9921 10.5248 27.4021 10.9347C27.812 11.3447 28.3656 11.5787 28.9453 11.5872C29.525 11.5956 30.0851 11.3778 30.5068 10.98Z" fill="#999999"/>
</svg>
