<svg width="32" height="32" viewBox="0 0 32 32" fill="none" xmlns="http://www.w3.org/2000/svg">
  <path fill-rule="evenodd" clip-rule="evenodd" d="M1.33203 3.78368C1.33203 3.13372 1.59023 2.51038 2.04982 2.05079C2.5094 1.59121 3.13274 1.33301 3.7827 1.33301H28.212C28.5341 1.33249 28.8532 1.39549 29.1509 1.51843C29.4486 1.64137 29.7191 1.82182 29.947 2.04946C30.1749 2.27709 30.3557 2.54744 30.4789 2.84502C30.6022 3.14261 30.6655 3.46158 30.6654 3.78368V28.213C30.6657 28.5352 30.6025 28.8542 30.4795 29.152C30.3564 29.4497 30.1758 29.7202 29.9481 29.9481C29.7203 30.176 29.4499 30.3567 29.1522 30.4799C28.8546 30.6032 28.5355 30.6665 28.2134 30.6663H3.7827C3.46076 30.6663 3.14198 30.6029 2.84456 30.4797C2.54715 30.3564 2.27693 30.1758 2.04934 29.9481C1.82176 29.7204 1.64127 29.4501 1.51819 29.1526C1.39512 28.8551 1.33186 28.5363 1.33203 28.2143V3.78368ZM12.9427 12.517H16.9147V14.5117C17.488 13.365 18.9547 12.333 21.1587 12.333C25.384 12.333 26.3854 14.617 26.3854 18.8077V26.5703H22.1094V19.7623C22.1094 17.3757 21.536 16.029 20.08 16.029C18.06 16.029 17.22 17.481 17.22 19.7623V26.5703H12.9427V12.517ZM5.60937 26.3877H9.8867V12.333H5.60937V26.3863V26.3877ZM10.4987 7.74901C10.5068 8.11524 10.4416 8.47939 10.307 8.8201C10.1724 9.1608 9.97117 9.47119 9.71501 9.73305C9.45885 9.99492 9.15296 10.203 8.81531 10.345C8.47765 10.4871 8.11502 10.5602 7.7487 10.5602C7.38238 10.5602 7.01975 10.4871 6.68209 10.345C6.34443 10.203 6.03855 9.99492 5.78239 9.73305C5.52623 9.47119 5.32496 9.1608 5.19038 8.8201C5.0558 8.47939 4.99063 8.11524 4.9987 7.74901C5.01453 7.03015 5.31121 6.34607 5.82521 5.84326C6.33921 5.34045 7.02966 5.0589 7.7487 5.0589C8.46773 5.0589 9.15818 5.34045 9.67218 5.84326C10.1862 6.34607 10.4829 7.03015 10.4987 7.74901Z" fill="#999999"/>
</svg>
