<svg width="24" height="24" viewBox="0 0 24 24" fill="none" xmlns="http://www.w3.org/2000/svg">
  <path fill-rule="evenodd" clip-rule="evenodd" d="M5.24994 2.25C4.85213 2.25001 4.4706 2.40805 4.18931 2.68936C3.90802 2.97066 3.75 3.3522 3.75 3.75002V20.25C3.74999 20.6478 3.90801 21.0293 4.18931 21.3106C4.4706 21.5919 4.85212 21.75 5.24994 21.75H18.75C19.1479 21.75 19.5294 21.5919 19.8107 21.3106C20.092 21.0293 20.25 20.6478 20.25 20.25V8.25C20.25 8.05109 20.171 7.86033 20.0303 7.71968L14.7806 2.46968C14.6399 2.32902 14.4492 2.25 14.2503 2.25H5.24994ZM5.25 3.75V20.25H18.75V9L13.5 3.75H5.25Z" fill="#81858E"/>
  <path fill-rule="evenodd" clip-rule="evenodd" d="M14.2503 2.25C14.6645 2.25 15 2.58579 15 3V7.5H19.5007C19.915 7.5 20.25 7.83579 20.25 8.25C20.25 8.66421 19.915 9 19.5007 9H14.25C13.8358 9 13.5 8.66421 13.5 8.25V3C13.5 2.58579 13.836 2.25 14.2503 2.25Z" fill="#81858E"/>
</svg>
