<svg width="80" height="74" viewBox="0 0 80 74" fill="none" xmlns="http://www.w3.org/2000/svg">
<path fill-rule="evenodd" clip-rule="evenodd" d="M70.8333 74H9.16667C4.11 74 0 69.8527 0 64.75V14.5V9.25C0 4.14737 4.11 0 9.16667 0H70.8333C75.89 0 80 4.14737 80 9.25V14.5V64.75C80 69.8527 75.89 74 70.8333 74ZM75 17V64.75C75 67.0676 73.13 68.9546 70.8333 68.9546H9.16667C6.87 68.9546 5 67.0676 5 64.75V17H75ZM75 12H5V9.25C5 6.93246 6.87 5.04546 9.16667 5.04546H70.8333C73.13 5.04546 75 6.93246 75 9.25V12ZM40 58C30.6245 58 23 50.824 23 42C23 33.176 30.6245 26 40 26C49.3755 26 57 33.176 57 42C57 50.824 49.3755 58 40 58ZM40 30C32.9705 30 27.25 35.384 27.25 42C27.25 48.616 32.9705 54 40 54C47.0295 54 52.75 48.616 52.75 42C52.75 35.384 47.0295 30 40 30ZM36.8741 47C36.3942 47 35.9143 46.8175 35.5493 46.4501C34.8169 45.7177 34.8169 44.5305 35.5493 43.7981L37.3478 41.9997L35.5493 40.2013C34.8169 39.4689 34.8169 38.2816 35.5493 37.5493C36.2817 36.8169 37.4691 36.8169 38.2015 37.5493L40 39.3477L41.7985 37.5493C42.5309 36.8169 43.7183 36.8169 44.4507 37.5493C45.1831 38.2816 45.1831 39.4689 44.4507 40.2013L42.6522 41.9997L44.4507 43.7981C45.1831 44.5305 45.1831 45.7177 44.4507 46.4501C44.0832 46.8175 43.6033 47 43.1234 47C42.6434 47 42.1635 46.8175 41.7985 46.4501L40 44.6517L38.2015 46.4501C37.834 46.8175 37.3541 47 36.8741 47Z" fill="#A9AFBD"/>
</svg>
