<svg width="24" height="24" viewBox="0 0 24 24" fill="none" xmlns="http://www.w3.org/2000/svg">
  <path fill-rule="evenodd" clip-rule="evenodd" d="M12 9C12.4142 9 12.75 9.33579 12.75 9.75V13.5C12.75 13.9142 12.4142 14.25 12 14.25C11.5858 14.25 11.25 13.9142 11.25 13.5V9.75C11.25 9.33579 11.5858 9 12 9Z" fill="#FF6335"/>
  <path fill-rule="evenodd" clip-rule="evenodd" d="M10.8758 2.55082C11.2176 2.35374 11.6052 2.25 11.9997 2.25C12.3943 2.25 12.7819 2.35374 13.1237 2.55082C13.4654 2.7479 13.7494 3.03139 13.947 3.37285L13.3035 3.74533L13.947 3.37285L22.1948 17.6221C22.3928 17.9641 22.4972 18.3522 22.4975 18.7474C22.4978 19.1426 22.3941 19.5309 22.1967 19.8732C21.9993 20.2155 21.7152 20.4999 21.373 20.6975C21.0309 20.8952 20.6427 20.9993 20.2475 20.9993H3.75196C3.35679 20.9993 2.96859 20.8952 2.62642 20.6975C2.28425 20.4999 2.00017 20.2155 1.80278 19.8732C1.60538 19.5309 1.50163 19.1426 1.50195 18.7474C1.50228 18.3522 1.60668 17.9641 1.80464 17.6221L10.0524 3.37285L10.7124 3.75488L10.0524 3.37285C10.2501 3.03139 10.534 2.7479 10.8758 2.55082ZM11.9997 3.75C11.8682 3.75 11.739 3.78458 11.6251 3.85027C11.5112 3.91597 11.4165 4.01046 11.3506 4.12428L3.10285 18.3736L2.45374 17.9978L3.10285 18.3736C3.03686 18.4876 3.00206 18.6169 3.00195 18.7487C3.00184 18.8804 3.03643 19.0098 3.10223 19.1239C3.16803 19.238 3.26272 19.3328 3.37678 19.3987C3.49084 19.4646 3.62024 19.4993 3.75196 19.4993H20.2475C20.3792 19.4993 20.5086 19.4646 20.6227 19.3987C20.7367 19.3328 20.8314 19.238 20.8972 19.1239C20.963 19.0098 20.9976 18.8804 20.9975 18.7487C20.9974 18.6169 20.9626 18.4876 20.8966 18.3736L21.5457 17.9978L20.8966 18.3736L12.6488 4.12428C12.583 4.01046 12.4883 3.91597 12.3744 3.85027C12.2604 3.78458 12.1312 3.75 11.9997 3.75Z" fill="#FF6335"/>
  <path d="M12 18C12.6213 18 13.125 17.4963 13.125 16.875C13.125 16.2537 12.6213 15.75 12 15.75C11.3787 15.75 10.875 16.2537 10.875 16.875C10.875 17.4963 11.3787 18 12 18Z" fill="#FF6335"/>
</svg>
