<svg width="24" height="24" viewBox="0 0 24 24" fill="none" xmlns="http://www.w3.org/2000/svg">
  <path fill-rule="evenodd" clip-rule="evenodd" d="M17.7446 8.59431C18.0966 8.96308 18.0831 9.54738 17.7143 9.89939L10.945 16.3609C10.5883 16.7014 10.027 16.7014 9.67029 16.3609L6.28571 13.1302C5.91695 12.7781 5.90336 12.1938 6.25537 11.8251C6.60738 11.4563 7.19168 11.4427 7.56044 11.7947L10.3077 14.4171L16.4396 8.56396C16.8083 8.21195 17.3926 8.22554 17.7446 8.59431Z" fill="#040B1D"/>
  <path fill-rule="evenodd" clip-rule="evenodd" d="M12 1.84615C6.39219 1.84615 1.84615 6.39219 1.84615 12C1.84615 17.6078 6.39219 22.1538 12 22.1538C17.6078 22.1538 22.1538 17.6078 22.1538 12C22.1538 6.39219 17.6078 1.84615 12 1.84615ZM0 12C0 5.37258 5.37258 0 12 0C18.6274 0 24 5.37258 24 12C24 18.6274 18.6274 24 12 24C5.37258 24 0 18.6274 0 12Z" fill="#040B1D"/>
</svg>
