<svg width="24" height="24" viewBox="0 0 24 24" fill="none" xmlns="http://www.w3.org/2000/svg">
  <path fill-rule="evenodd" clip-rule="evenodd" d="M12 3.75C7.44365 3.75 3.75 7.44365 3.75 12C3.75 16.5563 7.44365 20.25 12 20.25C16.5563 20.25 20.25 16.5563 20.25 12C20.25 7.44365 16.5563 3.75 12 3.75ZM2.25 12C2.25 6.61522 6.61522 2.25 12 2.25C17.3848 2.25 21.75 6.61522 21.75 12C21.75 17.3848 17.3848 21.75 12 21.75C6.61522 21.75 2.25 17.3848 2.25 12Z" fill="#66C9FF"/>
  <path d="M12 18C12.6213 18 13.125 17.4963 13.125 16.875C13.125 16.2537 12.6213 15.75 12 15.75C11.3787 15.75 10.875 16.2537 10.875 16.875C10.875 17.4963 11.3787 18 12 18Z" fill="#66C9FF"/>
  <path fill-rule="evenodd" clip-rule="evenodd" d="M10.7084 7.0074C11.3251 6.75195 12.0037 6.68511 12.6584 6.81534C13.3131 6.94556 13.9145 7.267 14.3865 7.739C14.8585 8.21101 15.1799 8.81237 15.3102 9.46706C15.4404 10.1217 15.3735 10.8003 15.1181 11.417C14.8626 12.0337 14.4301 12.5609 13.875 12.9317C13.531 13.1616 13.1494 13.3251 12.75 13.4161V13.5005C12.75 13.9147 12.4142 14.2505 12 14.2505C11.5858 14.2505 11.25 13.9147 11.25 13.5005V12.7505C11.25 12.5516 11.329 12.3608 11.4697 12.2202C11.6103 12.0795 11.8011 12.0005 12 12.0005C12.3708 12.0005 12.7334 11.8905 13.0417 11.6845C13.35 11.4785 13.5904 11.1856 13.7323 10.843C13.8742 10.5004 13.9113 10.1234 13.839 9.7597C13.7666 9.39598 13.588 9.06189 13.3258 8.79967C13.0636 8.53744 12.7295 8.35886 12.3658 8.28652C12.0021 8.21417 11.6251 8.2513 11.2825 8.39322C10.9399 8.53513 10.647 8.77545 10.441 9.0838C10.235 9.39214 10.125 9.75465 10.125 10.1255C10.125 10.5397 9.78921 10.8755 9.375 10.8755C8.96079 10.8755 8.625 10.5397 8.625 10.1255C8.625 9.45798 8.82294 8.80546 9.19379 8.25044C9.56464 7.69542 10.0917 7.26284 10.7084 7.0074Z" fill="#66C9FF"/>
</svg>
