<svg width="24" height="24" viewBox="0 0 24 24" fill="none" xmlns="http://www.w3.org/2000/svg">
  <path fill-rule="evenodd" clip-rule="evenodd" d="M18.4836 11.2853C18.8423 11.0782 19.301 11.2011 19.5081 11.5598L21.6465 15.2637C21.8536 15.6224 21.7307 16.0811 21.372 16.2882C21.0133 16.4953 20.5546 16.3724 20.3475 16.0137L18.209 12.3098C18.0019 11.9511 18.1248 11.4924 18.4836 11.2853Z" fill="#81858E"/>
  <path fill-rule="evenodd" clip-rule="evenodd" d="M14.3251 13.2548C14.733 13.1829 15.122 13.4553 15.194 13.8632L15.8609 17.6454C15.9328 18.0533 15.6604 18.4423 15.2525 18.5143C14.8446 18.5862 14.4556 18.3138 14.3837 17.9059L13.7167 14.1237C13.6448 13.7157 13.9172 13.3267 14.3251 13.2548Z" fill="#81858E"/>
  <path fill-rule="evenodd" clip-rule="evenodd" d="M9.66818 13.253C10.0761 13.3249 10.3485 13.7139 10.2765 14.1218L9.60953 17.9047C9.5376 18.3126 9.14861 18.585 8.74069 18.5131C8.33277 18.4412 8.06039 18.0522 8.13232 17.6442L8.79934 13.8614C8.87127 13.4535 9.26026 13.1811 9.66818 13.253Z" fill="#81858E"/>
  <path fill-rule="evenodd" clip-rule="evenodd" d="M5.51409 11.2823C5.87281 11.4894 5.99571 11.9481 5.78861 12.3068L3.63988 16.0285C3.43277 16.3872 2.97408 16.5101 2.61536 16.303C2.25664 16.0959 2.13373 15.6372 2.34084 15.2785L4.48957 11.5568C4.69668 11.1981 5.15537 11.0752 5.51409 11.2823Z" fill="#81858E"/>
  <path fill-rule="evenodd" clip-rule="evenodd" d="M2.52941 9.24866C2.85161 8.98835 3.32383 9.03853 3.58413 9.36074C5.07763 11.2094 7.77347 13.5 12.0008 13.5C16.2281 13.5 18.9239 11.2094 20.4174 9.36076C20.6777 9.03855 21.1499 8.98837 21.4721 9.24868C21.7943 9.50898 21.8445 9.9812 21.5842 10.3034C19.9254 12.3567 16.8422 15 12.0008 15C7.15939 15 4.07617 12.3567 2.41733 10.3034C2.15702 9.98117 2.2072 9.50896 2.52941 9.24866Z" fill="#81858E"/>
</svg>
