<svg width="24" height="24" viewBox="0 0 24 24" fill="none" xmlns="http://www.w3.org/2000/svg">
  <path fill-rule="evenodd" clip-rule="evenodd" d="M3.40714 8.09433C5.195 6.30628 8.00054 4.49927 12 4.49927C15.9995 4.49927 18.805 6.30628 20.5929 8.09433C21.4846 8.9862 22.1277 9.87676 22.5488 10.5456C22.7597 10.8806 22.916 11.1617 23.0208 11.362C23.0733 11.4621 23.113 11.5422 23.1402 11.5989C23.1539 11.6272 23.1644 11.6497 23.1719 11.6659L23.1809 11.6855L23.1837 11.6917L23.1851 11.6947C23.1851 11.6947 23.1854 11.6954 22.5 12C23.1853 12.3046 23.185 12.3053 23.185 12.3053L23.1847 12.3062L23.1837 12.3084L23.1809 12.3145L23.1719 12.3341C23.1644 12.3504 23.1539 12.3729 23.1402 12.4012C23.1129 12.4578 23.0733 12.5379 23.0208 12.638C22.9159 12.8382 22.7596 13.1193 22.5487 13.4542C22.1276 14.1229 21.4846 15.0133 20.5928 15.905C18.8049 17.6927 15.9994 19.4993 12 19.4993C8.00059 19.4993 5.19508 17.6927 3.4072 15.905C2.51543 15.0133 1.87238 14.1229 1.45128 13.4542C1.24037 13.1193 1.08406 12.8382 0.979197 12.638C0.926735 12.5379 0.887061 12.4578 0.859785 12.4012C0.846145 12.3729 0.835596 12.3504 0.828093 12.3341L0.819111 12.3145L0.816319 12.3084L0.815346 12.3062L0.814965 12.3053C0.814965 12.3053 0.814654 12.3046 1.5 12C0.814629 11.6954 0.81494 11.6947 0.81494 11.6947L0.815321 11.6939L0.816294 11.6917L0.819086 11.6855L0.828067 11.6659C0.83557 11.6497 0.846117 11.6272 0.859757 11.5989C0.887032 11.5422 0.926705 11.4621 0.979166 11.362C1.08403 11.1617 1.24033 10.8806 1.45124 10.5456C1.87233 9.87676 2.51538 8.9862 3.40714 8.09433ZM1.5 12L0.814629 11.6954C0.728448 11.8894 0.728457 12.1107 0.814654 12.3046L1.5 12ZM2.33859 12C2.42682 11.8347 2.55354 11.6102 2.72063 11.3448C3.09642 10.7479 3.67212 9.95076 4.46786 9.15493C6.055 7.56762 8.49946 5.99927 12 5.99927C15.5005 5.99927 17.945 7.56762 19.5321 9.15493C20.3279 9.95076 20.9036 10.7479 21.2794 11.3448C21.4465 11.6102 21.5732 11.8347 21.6614 12C21.5732 12.1652 21.4465 12.3896 21.2794 12.6549C20.9036 13.2517 20.3279 14.0486 19.5322 14.8443C17.9451 16.4312 15.5006 17.9993 12 17.9993C8.49941 17.9993 6.05492 16.4312 4.4678 14.8443C3.67207 14.0486 3.09637 13.2517 2.72059 12.6549C2.55352 12.3896 2.42682 12.1652 2.33859 12ZM22.5 12L23.1853 12.3046C23.2715 12.1107 23.2716 11.8894 23.1854 11.6954L22.5 12Z" fill="#81858E"/>
  <path fill-rule="evenodd" clip-rule="evenodd" d="M12 9.00006C10.3431 9.00006 9 10.3432 9 12.0001C9 13.6569 10.3431 15.0001 12 15.0001C13.6569 15.0001 15 13.6569 15 12.0001C15 10.3432 13.6569 9.00006 12 9.00006ZM7.5 12.0001C7.5 9.51478 9.51472 7.50006 12 7.50006C14.4853 7.50006 16.5 9.51478 16.5 12.0001C16.5 14.4853 14.4853 16.5001 12 16.5001C9.51472 16.5001 7.5 14.4853 7.5 12.0001Z" fill="#81858E"/>
</svg>
