<svg width="32" height="32" viewBox="0 0 32 32" fill="none" xmlns="http://www.w3.org/2000/svg">
    <circle cx="16" cy="16" r="16" fill="#009CF0"/>
    <path d="M10.4064 20.2088C14.7559 21.9407 18.4573 22.2781 22.6518 19.5823C22.6211 19.6294 21.7914 20.8836 19.6094 21.5263C20.0704 22.1691 20.7004 22.9059 20.7004 22.9059C22.0987 22.9059 23.4662 22.4983 24.6493 21.7144C25.5712 21.0873 26.0936 20.0056 25.9861 18.8768C25.8017 16.9485 25.3561 15.0672 24.6647 13.2643C23.7888 10.9127 21.6838 9.28223 19.2407 9.04705C19.0256 9.03137 18.8719 9.03137 18.7797 9.03137L18.5339 9.28219C21.3458 10.0974 22.744 11.3673 22.7747 11.4143C18.457 9.18812 13.3557 9.1568 9.00728 11.3203C9.00728 11.3203 10.3902 9.92499 13.4479 9.18812L13.2635 9C12.9408 9 12.6335 9.03137 12.3108 9.07838C10.0521 9.47031 8.16219 11.0537 7.34781 13.2329C6.64098 15.1142 6.18003 17.0896 6.01103 19.0963C5.91883 20.1623 6.41053 21.2128 7.27099 21.8242C8.40802 22.5924 9.76017 23 11.1277 23C11.1277 23 11.6808 22.2631 12.234 21.6047C10.1597 20.9776 9.31459 19.7234 9.29922 19.6764L9.68961 19.8797C9.92298 20.0014 10.1622 20.1116 10.4064 20.2088ZM12.8179 18.8455C11.8192 18.8141 11.0355 17.9519 11.0663 16.9171C11.097 15.9451 11.8653 15.1613 12.8179 15.1299C13.8167 15.1613 14.6003 16.0235 14.5696 17.0582C14.5235 18.0303 13.7706 18.8141 12.8179 18.8455ZM19.087 18.8455C18.0882 18.8141 17.3046 17.9519 17.3353 16.9171C17.3661 15.9451 18.1343 15.1613 19.087 15.1299C20.0858 15.1613 20.8694 16.0235 20.8387 17.0582C20.808 18.0303 20.0396 18.8141 19.087 18.8455Z" fill="white"/>
</svg>
