<svg width="32" height="32" viewBox="0 0 32 32" fill="none" xmlns="http://www.w3.org/2000/svg">
    <circle cx="16" cy="16" r="16" fill="#009CF0"/>
    <path fill-rule="evenodd" clip-rule="evenodd" d="M16.0215 32.0007C16.0144 32.0007 16.0072 32.0007 16 32.0007C14.7621 32.0007 13.5571 31.8602 12.4 31.5941V30.5341V27.8674C8.00002 28.8007 7.06668 25.7341 7.06668 25.7341C6.40002 23.8674 5.33335 23.3341 5.33335 23.3341C3.86668 22.4008 5.46668 22.4007 5.46668 22.4007C7.06668 22.4007 7.86668 24.0007 7.86668 24.0007C9.33335 26.4008 11.6 25.7341 12.5333 25.3341C12.6667 24.2674 13.2 23.6007 13.6 23.2008C10 22.6674 6.26668 21.3341 6.26668 15.2008C6.26668 13.4674 6.80002 12.0008 7.86668 10.9341C7.73335 10.5341 7.20002 8.93409 8.00002 6.66742C8.00002 6.66742 9.33335 6.26742 12.4 8.26742C13.7333 7.86742 15.0667 7.73409 16.4 7.73409C17.7333 7.73409 19.0667 7.86742 20.4 8.26742C23.4667 6.26742 24.8 6.66742 24.8 6.66742C25.7333 8.93409 25.2 10.5341 24.9333 11.0674C25.8667 12.1341 26.5333 13.6008 26.5333 15.3341C26.5333 21.4674 22.8 22.8008 19.2 23.2008C19.7333 23.6007 20.2667 24.6674 20.2667 26.1341V30.5341V31.4255C18.9149 31.7986 17.4915 31.9988 16.0215 32.0007Z" fill="white"/>
</svg>
