<svg width="32" height="32" viewBox="0 0 32 32" fill="none" xmlns="http://www.w3.org/2000/svg">
    <circle cx="16" cy="16" r="16" fill="#009CF0"/>
    <path d="M16.0007 28.6674C19.314 28.6674 22 25.9658 22 22.6333L22 18.7193C22 15.3868 19.314 12.6852 16.0007 12.6852C15.5356 12.6852 15.0829 12.7384 14.6482 12.8392C14.3865 12.8998 14.3129 13.2227 14.5067 13.4088L14.5401 13.4409L17.9963 16.7611C18.5322 17.2846 18.8652 18.0172 18.8652 18.828V22.5246C18.8652 24.1158 17.5827 25.4057 16.0007 25.4057C14.4186 25.4057 13.1361 24.1158 13.1361 22.5246V22.4068C13.1361 21.5411 12.4344 20.8394 11.5687 20.8394C10.7031 20.8394 10.0013 21.5411 10.0013 22.4068V22.6333C10.0013 25.9658 12.6873 28.6674 16.0007 28.6674Z" fill="white"/>
    <path d="M15.9993 3.33398C12.686 3.33398 10 6.03553 10 9.36806L10 13.2821C10 16.6146 12.686 19.3161 15.9993 19.3161C16.4644 19.3161 16.9171 19.2629 17.3518 19.1622V19.1622C17.6135 19.1015 17.6871 18.7787 17.4933 18.5926L17.4599 18.5604L14.0037 15.2403C13.4678 14.7167 13.1348 13.9841 13.1348 13.1733V9.47678C13.1348 7.88557 14.4173 6.59565 15.9993 6.59565C17.5814 6.59565 18.8639 7.88558 18.8639 9.47678V9.5958C18.8639 10.4614 19.5656 11.1632 20.4313 11.1632V11.1632C21.2969 11.1632 21.9987 10.4614 21.9987 9.5958V9.36806C21.9987 6.03553 19.3127 3.33398 15.9993 3.33398Z" fill="white"/>
</svg>
