<svg width="32" height="32" viewBox="0 0 32 32" fill="none" xmlns="http://www.w3.org/2000/svg">
    <circle cx="16" cy="16" r="16" fill="#009CF0"/>
    <path fill-rule="evenodd" clip-rule="evenodd" d="M21.7752 9.59124C21.9798 9.50968 22.2031 9.4821 22.4223 9.51133C22.6416 9.54056 22.8488 9.62554 23.0228 9.75757C23.1969 9.88961 23.3314 10.0639 23.4127 10.2627C23.494 10.4615 23.5191 10.6776 23.4855 10.8888C23.0005 13.9344 22.1114 19.5153 21.6394 22.4778C21.6068 22.6828 21.5199 22.8761 21.3872 23.0392C21.2545 23.2023 21.0805 23.3296 20.882 23.4088C20.6835 23.4879 20.4672 23.5163 20.254 23.4911C20.0408 23.4659 19.8379 23.388 19.665 23.265C17.9954 22.0771 15.4922 20.2961 14.2213 19.3916C14.1232 19.3218 14.0422 19.232 13.984 19.1287C13.9258 19.0253 13.8917 18.9109 13.8843 18.7935C13.8769 18.676 13.8963 18.5585 13.9411 18.4491C13.9859 18.3396 14.055 18.2411 14.1436 18.1603C15.3081 17.0982 17.6275 14.9829 19.2234 13.5274C19.261 13.4929 19.2839 13.446 19.2876 13.3961C19.2913 13.3462 19.2755 13.2967 19.2434 13.2573C19.2113 13.218 19.1652 13.1917 19.114 13.1835C19.0629 13.1753 19.0104 13.1859 18.9669 13.2131C16.9207 14.5018 13.787 16.4753 12.2511 17.4426C11.9633 17.6239 11.6398 17.7458 11.3009 17.8008C10.962 17.8558 10.615 17.8426 10.2816 17.7621C9.43594 17.5579 8.21609 17.2634 7.13052 17.0014C6.96056 16.9603 6.80834 16.8686 6.69553 16.7392C6.58272 16.6097 6.51508 16.4492 6.50224 16.2805C6.4894 16.1118 6.53202 15.9435 6.62403 15.7995C6.71604 15.6556 6.85274 15.5433 7.01467 15.4787C10.7937 13.9714 18.1891 11.0218 21.7752 9.59124Z" fill="white"/>
</svg>
