<svg width="32" height="32" viewBox="0 0 32 32" fill="none" xmlns="http://www.w3.org/2000/svg">
    <circle cx="16" cy="16" r="16" fill="#009CF0"/>
    <path d="M25.5 11.2314C24.8306 11.525 24.1174 11.7196 23.3737 11.8141C24.1388 11.3574 24.7226 10.6396 24.9971 9.7745C24.2839 10.1997 23.4964 10.5001 22.6571 10.6678C21.9799 9.94663 21.0146 9.5 19.9616 9.5C17.9186 9.5 16.2739 11.1583 16.2739 13.1911C16.2739 13.4836 16.2986 13.7649 16.3594 14.0326C13.2915 13.883 10.5769 12.4126 8.75325 10.1728C8.43487 10.7251 8.24813 11.3574 8.24813 12.038C8.24813 13.316 8.90625 14.4489 9.88725 15.1047C9.29437 15.0935 8.71275 14.9214 8.22 14.6502C8.22 14.6615 8.22 14.6761 8.22 14.6907C8.22 16.484 9.49912 17.9735 11.1765 18.3166C10.8761 18.3988 10.5487 18.4381 10.209 18.4381C9.97275 18.4381 9.73425 18.4246 9.51038 18.3751C9.9885 19.8365 11.3453 20.9109 12.9585 20.9457C11.703 21.9279 10.1089 22.5196 8.38313 22.5196C8.0805 22.5196 7.79025 22.5061 7.5 22.469C9.13462 23.5231 11.0719 24.125 13.161 24.125C19.9515 24.125 23.664 18.5 23.664 13.6242C23.664 13.4611 23.6584 13.3036 23.6505 13.1473C24.3829 12.6275 24.9982 11.9784 25.5 11.2314Z" fill="white"/>
</svg>
