<svg width="140" height="64" viewBox="0 0 140 64" fill="none" xmlns="http://www.w3.org/2000/svg">
  <path d="M9.83008 52.3105L9.99414 53.4355L10.2344 52.4219L11.9219 46.4688H12.8711L14.5176 52.4219L14.752 53.4531L14.9336 52.3047L16.2578 46.4688H17.3887L15.3203 55H14.2949L12.5371 48.7832L12.4023 48.1328L12.2676 48.7832L10.4453 55H9.41992L7.35742 46.4688H8.48242L9.83008 52.3105ZM19.5566 49.4277C20.0371 48.8379 20.6621 48.543 21.4316 48.543C22.7715 48.543 23.4473 49.2988 23.459 50.8105V55H22.375V50.8047C22.3711 50.3477 22.2656 50.0098 22.0586 49.791C21.8555 49.5723 21.5371 49.4629 21.1035 49.4629C20.752 49.4629 20.4434 49.5566 20.1777 49.7441C19.9121 49.9316 19.7051 50.1777 19.5566 50.4824V55H18.4727V46H19.5566V49.4277ZM26.2598 55H25.1758V48.6602H26.2598V55ZM25.0879 46.9785C25.0879 46.8027 25.1406 46.6543 25.2461 46.5332C25.3555 46.4121 25.5156 46.3516 25.7266 46.3516C25.9375 46.3516 26.0977 46.4121 26.207 46.5332C26.3164 46.6543 26.3711 46.8027 26.3711 46.9785C26.3711 47.1543 26.3164 47.3008 26.207 47.418C26.0977 47.5352 25.9375 47.5938 25.7266 47.5938C25.5156 47.5938 25.3555 47.5352 25.2461 47.418C25.1406 47.3008 25.0879 47.1543 25.0879 46.9785ZM29.4707 47.125V48.6602H30.6543V49.498H29.4707V53.4297C29.4707 53.6836 29.5234 53.875 29.6289 54.0039C29.7344 54.1289 29.9141 54.1914 30.168 54.1914C30.293 54.1914 30.4648 54.168 30.6836 54.1211V55C30.3984 55.0781 30.1211 55.1172 29.8516 55.1172C29.3672 55.1172 29.002 54.9707 28.7559 54.6777C28.5098 54.3848 28.3867 53.9688 28.3867 53.4297V49.498H27.2324V48.6602H28.3867V47.125H29.4707ZM34.5566 55.1172C33.6973 55.1172 32.998 54.8359 32.459 54.2734C31.9199 53.707 31.6504 52.9512 31.6504 52.0059V51.8066C31.6504 51.1777 31.7695 50.6172 32.0078 50.125C32.25 49.6289 32.5859 49.2422 33.0156 48.9648C33.4492 48.6836 33.918 48.543 34.4219 48.543C35.2461 48.543 35.8867 48.8145 36.3438 49.3574C36.8008 49.9004 37.0293 50.6777 37.0293 51.6895V52.1406H32.7344C32.75 52.7656 32.9316 53.2715 33.2793 53.6582C33.6309 54.041 34.0762 54.2324 34.6152 54.2324C34.998 54.2324 35.3223 54.1543 35.5879 53.998C35.8535 53.8418 36.0859 53.6348 36.2852 53.377L36.9473 53.8926C36.416 54.709 35.6191 55.1172 34.5566 55.1172ZM34.4219 49.4336C33.9844 49.4336 33.6172 49.5938 33.3203 49.9141C33.0234 50.2305 32.8398 50.6758 32.7695 51.25H35.9453V51.168C35.9141 50.6172 35.7656 50.1914 35.5 49.8906C35.2344 49.5859 34.875 49.4336 34.4219 49.4336ZM42.4434 55H41.3594V46H42.4434V55ZM48.0977 55C48.0352 54.875 47.9844 54.6523 47.9453 54.332C47.4414 54.8555 46.8398 55.1172 46.1406 55.1172C45.5156 55.1172 45.002 54.9414 44.5996 54.5898C44.2012 54.2344 44.002 53.7852 44.002 53.2422C44.002 52.582 44.252 52.0703 44.752 51.707C45.2559 51.3398 45.9629 51.1562 46.873 51.1562H47.9277V50.6582C47.9277 50.2793 47.8145 49.9785 47.5879 49.7559C47.3613 49.5293 47.0273 49.416 46.5859 49.416C46.1992 49.416 45.875 49.5137 45.6133 49.709C45.3516 49.9043 45.2207 50.1406 45.2207 50.418H44.1309C44.1309 50.1016 44.2422 49.7969 44.4648 49.5039C44.6914 49.207 44.9961 48.9727 45.3789 48.8008C45.7656 48.6289 46.1895 48.543 46.6504 48.543C47.3809 48.543 47.9531 48.7266 48.3672 49.0938C48.7812 49.457 48.9961 49.959 49.0117 50.5996V53.5176C49.0117 54.0996 49.0859 54.5625 49.2344 54.9062V55H48.0977ZM46.2988 54.1738C46.6387 54.1738 46.9609 54.0859 47.2656 53.9102C47.5703 53.7344 47.791 53.5059 47.9277 53.2246V51.9238H47.0781C45.75 51.9238 45.0859 52.3125 45.0859 53.0898C45.0859 53.4297 45.1992 53.6953 45.4258 53.8867C45.6523 54.0781 45.9434 54.1738 46.2988 54.1738ZM56.0781 51.9004C56.0781 52.8691 55.8555 53.6484 55.4102 54.2383C54.9648 54.8242 54.3672 55.1172 53.6172 55.1172C52.8164 55.1172 52.1973 54.834 51.7598 54.2676L51.707 55H50.7109V46H51.7949V49.3574C52.2324 48.8145 52.8359 48.543 53.6055 48.543C54.375 48.543 54.9785 48.834 55.416 49.416C55.8574 49.998 56.0781 50.7949 56.0781 51.8066V51.9004ZM54.9941 51.7773C54.9941 51.0391 54.8516 50.4688 54.5664 50.0664C54.2812 49.6641 53.8711 49.4629 53.3359 49.4629C52.6211 49.4629 52.1074 49.7949 51.7949 50.459V53.2012C52.127 53.8652 52.6445 54.1973 53.3477 54.1973C53.8672 54.1973 54.2715 53.9961 54.5605 53.5938C54.8496 53.1914 54.9941 52.5859 54.9941 51.7773ZM60.0801 55.1172C59.2207 55.1172 58.5215 54.8359 57.9824 54.2734C57.4434 53.707 57.1738 52.9512 57.1738 52.0059V51.8066C57.1738 51.1777 57.293 50.6172 57.5312 50.125C57.7734 49.6289 58.1094 49.2422 58.5391 48.9648C58.9727 48.6836 59.4414 48.543 59.9453 48.543C60.7695 48.543 61.4102 48.8145 61.8672 49.3574C62.3242 49.9004 62.5527 50.6777 62.5527 51.6895V52.1406H58.2578C58.2734 52.7656 58.4551 53.2715 58.8027 53.6582C59.1543 54.041 59.5996 54.2324 60.1387 54.2324C60.5215 54.2324 60.8457 54.1543 61.1113 53.998C61.377 53.8418 61.6094 53.6348 61.8086 53.377L62.4707 53.8926C61.9395 54.709 61.1426 55.1172 60.0801 55.1172ZM59.9453 49.4336C59.5078 49.4336 59.1406 49.5938 58.8438 49.9141C58.5469 50.2305 58.3633 50.6758 58.293 51.25H61.4688V51.168C61.4375 50.6172 61.2891 50.1914 61.0234 49.8906C60.7578 49.5859 60.3984 49.4336 59.9453 49.4336ZM64.9902 55H63.9062V46H64.9902V55ZM70.7266 48.6602L70.7559 49.3633C71.2207 48.8164 71.8477 48.543 72.6367 48.543C73.5234 48.543 74.127 48.8828 74.4473 49.5625C74.6582 49.2578 74.9316 49.0117 75.2676 48.8242C75.6074 48.6367 76.0078 48.543 76.4688 48.543C77.8594 48.543 78.5664 49.2793 78.5898 50.752V55H77.5059V50.8164C77.5059 50.3633 77.4023 50.0254 77.1953 49.8027C76.9883 49.5762 76.6406 49.4629 76.1523 49.4629C75.75 49.4629 75.416 49.584 75.1504 49.8262C74.8848 50.0645 74.7305 50.3867 74.6875 50.793V55H73.5977V50.8457C73.5977 49.9238 73.1465 49.4629 72.2441 49.4629C71.5332 49.4629 71.0469 49.7656 70.7852 50.3711V55H69.7012V48.6602H70.7266ZM84.1445 55C84.082 54.875 84.0312 54.6523 83.9922 54.332C83.4883 54.8555 82.8867 55.1172 82.1875 55.1172C81.5625 55.1172 81.0488 54.9414 80.6465 54.5898C80.248 54.2344 80.0488 53.7852 80.0488 53.2422C80.0488 52.582 80.2988 52.0703 80.7988 51.707C81.3027 51.3398 82.0098 51.1562 82.9199 51.1562H83.9746V50.6582C83.9746 50.2793 83.8613 49.9785 83.6348 49.7559C83.4082 49.5293 83.0742 49.416 82.6328 49.416C82.2461 49.416 81.9219 49.5137 81.6602 49.709C81.3984 49.9043 81.2676 50.1406 81.2676 50.418H80.1777C80.1777 50.1016 80.2891 49.7969 80.5117 49.5039C80.7383 49.207 81.043 48.9727 81.4258 48.8008C81.8125 48.6289 82.2363 48.543 82.6973 48.543C83.4277 48.543 84 48.7266 84.4141 49.0938C84.8281 49.457 85.043 49.959 85.0586 50.5996V53.5176C85.0586 54.0996 85.1328 54.5625 85.2812 54.9062V55H84.1445ZM82.3457 54.1738C82.6855 54.1738 83.0078 54.0859 83.3125 53.9102C83.6172 53.7344 83.8379 53.5059 83.9746 53.2246V51.9238H83.125C81.7969 51.9238 81.1328 52.3125 81.1328 53.0898C81.1328 53.4297 81.2461 53.6953 81.4727 53.8867C81.6992 54.0781 81.9902 54.1738 82.3457 54.1738ZM89.8223 49.6328C89.6582 49.6055 89.4805 49.5918 89.2891 49.5918C88.5781 49.5918 88.0957 49.8945 87.8418 50.5V55H86.7578V48.6602H87.8125L87.8301 49.3926C88.1855 48.8262 88.6895 48.543 89.3418 48.543C89.5527 48.543 89.7129 48.5703 89.8223 48.625V49.6328ZM92.5938 52.0645L91.9141 52.7734V55H90.8301V46H91.9141V51.4434L92.4941 50.7461L94.4688 48.6602H95.7871L93.3203 51.3086L96.0742 55H94.8027L92.5938 52.0645ZM99.4199 55.1172C98.5605 55.1172 97.8613 54.8359 97.3223 54.2734C96.7832 53.707 96.5137 52.9512 96.5137 52.0059V51.8066C96.5137 51.1777 96.6328 50.6172 96.8711 50.125C97.1133 49.6289 97.4492 49.2422 97.8789 48.9648C98.3125 48.6836 98.7812 48.543 99.2852 48.543C100.109 48.543 100.75 48.8145 101.207 49.3574C101.664 49.9004 101.893 50.6777 101.893 51.6895V52.1406H97.5977C97.6133 52.7656 97.7949 53.2715 98.1426 53.6582C98.4941 54.041 98.9395 54.2324 99.4785 54.2324C99.8613 54.2324 100.186 54.1543 100.451 53.998C100.717 53.8418 100.949 53.6348 101.148 53.377L101.811 53.8926C101.279 54.709 100.482 55.1172 99.4199 55.1172ZM99.2852 49.4336C98.8477 49.4336 98.4805 49.5938 98.1836 49.9141C97.8867 50.2305 97.7031 50.6758 97.6328 51.25H100.809V51.168C100.777 50.6172 100.629 50.1914 100.363 49.8906C100.098 49.5859 99.7383 49.4336 99.2852 49.4336ZM104.623 47.125V48.6602H105.807V49.498H104.623V53.4297C104.623 53.6836 104.676 53.875 104.781 54.0039C104.887 54.1289 105.066 54.1914 105.32 54.1914C105.445 54.1914 105.617 54.168 105.836 54.1211V55C105.551 55.0781 105.273 55.1172 105.004 55.1172C104.52 55.1172 104.154 54.9707 103.908 54.6777C103.662 54.3848 103.539 53.9688 103.539 53.4297V49.498H102.385V48.6602H103.539V47.125H104.623Z" fill="#040B1D"/>
  <path fill-rule="evenodd" clip-rule="evenodd" d="M77.8528 38.4358C77.8528 39.7062 79.0278 40.6585 80.2213 40.223C87.0868 37.7174 92 31.0137 92 23.1374C92 13.1204 84.0531 5 74.25 5C64.4469 5 56.5 13.1204 56.5 23.1374C56.5 31.2256 61.6811 38.0773 68.8371 40.416C70.0216 40.8032 71.1544 39.8547 71.1544 38.6085V36.7033C71.1544 35.8094 70.5541 35.0393 69.7265 34.7013C67.6285 33.8443 65.9006 32.4961 64.5428 30.6566C62.9 28.4152 62.0786 25.8181 62.0786 22.8652C62.0786 18.9637 63.5132 15.7677 66.3823 13.2773C68.7655 11.2138 71.4784 10.1821 74.521 10.1821C78.4429 10.1821 81.607 11.6348 84.0133 14.5403C85.9569 16.8883 86.9286 19.5981 86.9286 22.6696C86.9286 25.6817 86.0668 28.3796 84.343 30.7633C83.069 32.5371 81.3808 33.8503 79.2786 34.703C78.4514 35.0385 77.8528 35.8079 77.8528 36.7005V38.4358ZM77.6272 25.6693C77.6272 25.2013 77.2479 24.822 76.7799 24.822H72.2599C71.7836 24.822 71.3974 25.2081 71.3974 25.6845C71.3974 26.4187 70.5669 26.7727 70.1795 26.149C69.6032 25.2214 69.315 24.1386 69.315 22.9008C69.315 21.3947 69.8298 20.0903 70.8594 18.9874C71.8891 17.8845 73.1096 17.3331 74.521 17.3331C75.9208 17.3331 77.1356 17.8845 78.1652 18.9874C79.1948 20.0903 79.7097 21.3947 79.7097 22.9008C79.7097 24.1113 79.4199 25.1857 78.8405 26.1239C78.4574 26.7443 77.6272 26.3985 77.6272 25.6693Z" fill="#14A6F4"/>
  <path d="M7 17.4581C7 16.3535 7.89543 15.4581 9 15.4581H12.7301C13.8347 15.4581 14.7301 16.3535 14.7301 17.4581V26.6443C14.7301 27.1315 14.8362 27.5164 15.0484 27.7989C15.2605 28.0743 15.5206 28.212 15.8286 28.212C16.1434 28.212 16.4582 28.0637 16.773 27.7671C17.0947 27.4635 17.2555 27.0892 17.2555 26.6443V17.4581C17.2555 16.3535 18.151 15.4581 19.2555 15.4581H23.0781C24.1826 15.4581 25.0781 16.3535 25.0781 17.4581V26.9515C25.0781 28.724 24.6366 30.26 23.7538 31.5594C22.8778 32.8588 21.728 33.8404 20.3045 34.5043C18.8878 35.1681 17.3958 35.5 15.8286 35.5C14.713 35.5 13.6249 35.3199 12.5641 34.9598C11.5033 34.5925 10.552 34.0488 9.71017 33.3284C8.87522 32.6011 8.21478 31.7007 7.72887 30.6272C7.24296 29.5538 7 28.3286 7 26.9515V17.4581Z" fill="#262626"/>
  <path d="M28.8992 34.3783C27.7946 34.3783 26.8992 33.4829 26.8992 32.3783V22.0057C26.8992 20.445 27.3201 19.1103 28.1619 18.0016C29.0105 16.8858 30.1295 16.0454 31.5188 15.4804C32.9081 14.9155 34.3795 14.633 35.9331 14.633C37.5209 14.633 39.0299 14.9296 40.4603 15.5228C41.8975 16.109 43.0576 16.9882 43.9404 18.1605C44.8301 19.3328 45.275 20.7169 45.275 22.3129V32.3783C45.275 33.4829 44.3795 34.3783 43.275 34.3783H39.1547C38.0502 34.3783 37.1547 33.4829 37.1547 32.3783V22.832C37.1547 22.4083 37.0384 22.094 36.8057 21.8892C36.5798 21.6773 36.3198 21.5714 36.0255 21.5714C35.697 21.5714 35.3822 21.6985 35.081 21.9528C34.7799 22.1999 34.6293 22.493 34.6293 22.832V32.3783C34.6293 33.4829 33.7339 34.3783 32.6293 34.3783H28.8992Z" fill="#262626"/>
  <path d="M49.0858 34.3783C47.9813 34.3783 47.0858 33.4829 47.0858 32.3783V16.8555C47.0858 15.7509 47.9813 14.8555 49.0858 14.8555H53.124C54.2285 14.8555 55.124 15.7509 55.124 16.8555V32.3783C55.124 33.4829 54.2285 34.3783 53.124 34.3783H49.0858Z" fill="#262626"/>
  <path d="M93.5091 17.4581C93.5091 16.3535 94.4045 15.4581 95.5091 15.4581H99.2392C100.344 15.4581 101.239 16.3535 101.239 17.4581V26.6443C101.239 27.1315 101.345 27.5164 101.557 27.7989C101.77 28.0743 102.03 28.212 102.338 28.212C102.653 28.212 102.967 28.0637 103.282 27.7671C103.604 27.4635 103.765 27.0892 103.765 26.6443V17.4581C103.765 16.3535 104.66 15.4581 105.765 15.4581H109.587C110.692 15.4581 111.587 16.3535 111.587 17.4581V26.9515C111.587 28.724 111.146 30.26 110.263 31.5594C109.387 32.8588 108.237 33.8404 106.814 34.5043C105.397 35.1681 103.905 35.5 102.338 35.5C101.222 35.5 100.134 35.3199 99.0732 34.9598C98.0124 34.5925 97.0611 34.0488 96.2193 33.3284C95.3843 32.6011 94.7239 31.7007 94.238 30.6272C93.7521 29.5538 93.5091 28.3286 93.5091 26.9515V17.4581Z" fill="#262626"/>
  <path d="M132.3 20.4212C132.749 21.3067 132.359 22.3639 131.493 22.851L125.165 26.4149C124.202 26.9568 122.983 26.616 122.441 25.6537L122.393 25.5681C121.866 24.6325 122.201 23.4469 123.14 22.9262L123.797 22.562C124.58 22.1281 124.638 21.0686 123.743 21.0686C122.897 21.0686 122.05 21.4603 121.203 22.2136C121.028 22.3642 120.239 22.9669 120.006 23.5996C119.86 23.9612 119.889 24.2926 119.918 24.5035C119.947 24.7747 120.736 26.9743 121.407 27.7577C122.108 28.5712 122.897 28.963 123.831 28.963C124.9 28.963 126.041 28.4854 127.223 27.5303C128.114 26.8112 129.419 26.7456 130.233 27.5506L131.837 29.1383C132.514 29.8076 132.638 30.876 131.985 31.5686C131.5 32.0838 130.949 32.5611 130.343 33.0005C129.233 33.7839 128.065 34.3564 126.81 34.7783C125.554 35.17 124.298 35.3809 123.043 35.3809C121.787 35.3809 120.619 35.17 119.48 34.7783C118.341 34.3866 117.319 33.7839 116.385 32.9403C115.451 32.1267 114.721 31.0721 114.137 29.8066C113.582 28.5411 113.173 27.0948 113.085 25.4376C113.085 25.3472 113.085 25.3171 113.085 25.1664C113.085 25.0158 113.085 24.9254 113.085 24.9254C113.085 22.7258 113.582 20.8275 114.545 19.2607C115.509 17.6939 116.765 16.4887 118.254 15.7052C119.772 14.9218 121.291 14.5 122.838 14.5C127.144 14.5 130.298 16.4737 132.3 20.4212Z" fill="#262626"/>
</svg>
