<svg width="127" height="36" viewBox="0 0 127 36" fill="none" xmlns="http://www.w3.org/2000/svg">
  <path fill-rule="evenodd" clip-rule="evenodd" d="M71.3525 34.8139C71.3525 35.3009 71.8007 35.6655 72.2715 35.5411C79.9326 33.5161 85.5841 26.4912 85.5841 18.1364C85.5841 8.19949 77.5897 0.144043 67.7281 0.144043C57.8665 0.144043 49.8721 8.19949 49.8721 18.1364C49.8721 26.6833 55.7865 33.8384 63.7163 35.6728C64.1817 35.7805 64.6141 35.4177 64.6141 34.94V30.6774C64.6141 30.3331 64.3841 30.033 64.0566 29.9266C61.5452 29.1113 59.514 27.6675 57.963 25.5954C56.3104 23.3719 55.4841 20.7956 55.4841 17.8664C55.4841 13.996 56.9272 10.8256 59.8134 8.35513C62.2108 6.30818 64.94 5.28471 68.0007 5.28471C71.946 5.28471 75.129 6.7258 77.5497 9.608C79.5049 11.9373 80.4825 14.6254 80.4825 17.6723C80.4825 20.6603 79.6155 23.3367 77.8814 25.7012C76.427 27.698 74.4362 29.1064 71.9089 29.9265C71.5819 30.0326 71.3525 30.3325 71.3525 30.6764V34.8139ZM71.1255 20.5754C71.1255 20.1513 70.7817 19.8074 70.3575 19.8074H65.6265C65.2023 19.8074 64.8585 20.1513 64.8585 20.5754V20.8668C64.8585 21.5181 64.1201 21.8404 63.7515 21.3035C63.0929 20.3443 62.7637 19.2104 62.7637 17.9017C62.7637 16.4076 63.2815 15.1136 64.3173 14.0195C65.3531 12.9255 66.5809 12.3784 68.0007 12.3784C69.4089 12.3784 70.6309 12.9255 71.6667 14.0195C72.7025 15.1136 73.2204 16.4076 73.2204 17.9017C73.2204 19.1706 72.895 20.2887 72.2441 21.2561C71.8766 21.8023 71.1255 21.4825 71.1255 20.8242V20.5754Z" fill="#040B1D"/>
  <path d="M0.0480957 11.3418C0.0480957 10.9176 0.391941 10.5738 0.816096 10.5738H7.04945C7.47361 10.5738 7.81745 10.9176 7.81745 11.3418V21.6816C7.81745 22.1655 7.92407 22.5476 8.13731 22.8281C8.35054 23.1016 8.61193 23.2384 8.92146 23.2384C9.23788 23.2384 9.55429 23.0911 9.87071 22.7966C10.194 22.495 10.3556 22.1234 10.3556 21.6816V11.3418C10.3556 10.9176 10.6995 10.5738 11.1236 10.5738H17.4499C17.874 10.5738 18.2179 10.9176 18.2179 11.3418V21.9866C18.2179 23.7468 17.7742 25.272 16.8869 26.5623C16.0064 27.8526 14.8508 28.8273 13.4201 29.4865C11.9962 30.1457 10.4967 30.4753 8.92146 30.4753C7.80026 30.4753 6.70656 30.2965 5.64038 29.9388C4.5742 29.5742 3.61808 29.0342 2.77201 28.3189C1.93283 27.5966 1.26904 26.7025 0.780665 25.6366C0.292285 24.5707 0.0480957 23.3541 0.0480957 21.9866V11.3418Z" fill="#040B1D"/>
  <path d="M20.8163 29.3615C20.3921 29.3615 20.0483 29.0176 20.0483 28.5935V17.0756C20.0483 15.5258 20.4713 14.2004 21.3174 13.0995C22.1703 11.9915 23.2949 11.157 24.6913 10.596C26.0877 10.035 27.5665 9.75451 29.128 9.75451C30.7238 9.75451 32.2405 10.049 33.6782 10.6381C35.1227 11.2201 36.2886 12.0932 37.1759 13.2572C38.0701 14.4213 38.5173 15.7958 38.5173 17.3806V28.5935C38.5173 29.0176 38.1734 29.3615 37.7492 29.3615H31.1238C30.6997 29.3615 30.3558 29.0176 30.3558 28.5935V17.896C30.3558 17.4753 30.2389 17.1632 30.005 16.9598C29.778 16.7495 29.5166 16.6443 29.2208 16.6443C28.8907 16.6443 28.5743 16.7705 28.2716 17.023C27.9689 17.2684 27.8176 17.5594 27.8176 17.896V28.5935C27.8176 29.0176 27.4738 29.3615 27.0496 29.3615H20.8163Z" fill="#040B1D"/>
  <path d="M41.1053 29.3615C40.6812 29.3615 40.3373 29.0176 40.3373 28.5935V10.7434C40.3373 10.3192 40.6812 9.9754 41.1053 9.9754H47.6482C48.0724 9.9754 48.4162 10.3192 48.4162 10.7434V28.5935C48.4162 29.0176 48.0724 29.3615 47.6482 29.3615H41.1053Z" fill="#040B1D"/>
  <path d="M86.9961 11.3418C86.9961 10.9176 87.34 10.5738 87.7641 10.5738H93.9975C94.4216 10.5738 94.7655 10.9176 94.7655 11.3418V21.6816C94.7655 22.1655 94.8721 22.5476 95.0853 22.8281C95.2986 23.1016 95.5599 23.2384 95.8695 23.2384C96.1859 23.2384 96.5023 23.0911 96.8187 22.7966C97.142 22.495 97.3037 22.1234 97.3037 21.6816V11.3418C97.3037 10.9176 97.6475 10.5738 98.0717 10.5738H104.398C104.822 10.5738 105.166 10.9176 105.166 11.3418V21.9866C105.166 23.7468 104.722 25.272 103.835 26.5623C102.954 27.8526 101.799 28.8273 100.368 29.4865C98.9442 30.1457 97.4447 30.4753 95.8695 30.4753C94.7483 30.4753 93.6546 30.2965 92.5884 29.9388C91.5222 29.5742 90.5661 29.0342 89.72 28.3189C88.8808 27.5966 88.2171 26.7025 87.7287 25.6366C87.2403 24.5707 86.9961 23.3541 86.9961 21.9866V11.3418Z" fill="#040B1D"/>
  <path d="M126.432 16.4517C126.585 16.804 126.437 17.2117 126.102 17.3983L117.725 22.0587C117.357 22.2634 116.893 22.1337 116.685 21.7679L115.452 19.6062C115.24 19.2333 115.374 18.7585 115.75 18.5523L118.108 17.2606C118.555 17.016 118.626 16.4042 118.139 16.2536C117.905 16.1812 117.652 16.145 117.384 16.145C116.533 16.145 115.682 16.534 114.831 17.282C114.654 17.4316 113.862 18.03 113.627 18.6583C113.48 19.0173 113.51 19.3464 113.539 19.5559C113.569 19.8252 114.361 22.0093 115.036 22.7872C115.74 23.5951 116.533 23.984 117.472 23.984C118.836 23.984 120.317 23.2195 121.852 21.6905C122.161 21.3829 122.662 21.3652 122.973 21.6699L126.233 24.8563C126.497 25.114 126.542 25.525 126.317 25.8168C125.693 26.6242 124.915 27.3497 124.017 27.9933C122.901 28.7712 121.727 29.3397 120.465 29.7586C119.203 30.1476 117.941 30.357 116.679 30.357C115.417 30.357 114.244 30.1476 113.099 29.7586C111.954 29.3696 110.927 28.7712 109.988 27.9335C109.049 27.1256 108.315 26.0784 107.728 24.8218C107.171 23.5652 106.76 22.129 106.672 20.4834C106.672 20.3936 106.672 20.3637 106.672 20.2141C106.672 20.0645 106.672 19.9748 106.672 19.9748C106.672 17.7906 107.171 15.9056 108.139 14.3498C109.108 12.794 110.37 11.5972 111.866 10.8192C113.392 10.0413 114.919 9.62244 116.474 9.62244C121.139 9.62244 124.458 11.8989 126.432 16.4517Z" fill="#040B1D"/>
</svg>
