<svg width="717" height="60" viewBox="0 0 717 60" fill="none" xmlns="http://www.w3.org/2000/svg">
  <path fill-rule="evenodd" clip-rule="evenodd" d="M716.419 14.3727H680.797V46.0218L689.414 58.323H716.419V48.4187H694.546V40.3714H708.295V30.4672H694.546V24.277H704.545V21.1819H716.419V14.3727Z" fill="white"/>
  <path fill-rule="evenodd" clip-rule="evenodd" d="M638.192 36.2836H654.27V38.6105C654.137 41.564 653.817 43.8055 653.311 45.335C652.551 47.6292 652.222 48.5019 651.303 50.0823C650.384 51.6627 648.462 54.0372 647.019 55.1225C645.577 56.2078 644.799 56.7432 642.439 57.795C640.806 58.5081 638.967 58.9255 636.924 59.0472L634.482 59.0809V47.0977L635.751 46.7491C636.773 46.4199 637.664 45.9781 638.423 45.4237C639.279 44.7686 639.502 44.4775 640.032 43.887C640.501 43.3548 640.854 42.7602 641.09 42.1032L641.336 41.1377H638.192V36.2836Z" fill="white"/>
  <path fill-rule="evenodd" clip-rule="evenodd" d="M622.58 36.5046H611.071V34.4676C611.056 32.792 611.172 31.2693 611.418 29.8997C611.787 27.8452 612.316 26.3865 612.999 25.0163C613.613 23.6228 615.022 21.4069 616.415 19.7837C618.162 17.9089 619.255 17.2518 620.631 16.3728C622.111 15.5182 623.196 15.0872 625.048 14.5373C626.916 13.9618 629.445 13.5742 631.559 13.6184C633.674 13.6626 635.081 13.7321 637.29 14.1998C640.155 14.9321 640.248 15.0687 641.369 15.5505C642.116 15.8717 643.019 16.3805 644.078 17.0767L637.177 26.723L635.918 26.2173C635.294 25.9625 634.433 25.8117 633.333 25.7647C631.871 25.7078 629.988 26.1303 628.407 26.8378C626.806 27.6395 626.117 28.2387 624.78 29.8159C623.804 31.1195 623.165 32.6364 622.862 34.3666L622.58 36.5046Z" fill="white"/>
  <path fill-rule="evenodd" clip-rule="evenodd" d="M536.794 58.323L553.302 14.3727H568.808L578.732 40.3714H585.555L588.332 48.4187H581.606L585.34 58.323H571.054L567.261 48.4187H575.383L572.53 40.3714H564.222L561.055 31.9052L551.168 58.323H536.794Z" fill="white"/>
  <path fill-rule="evenodd" clip-rule="evenodd" d="M482.693 52.708L489.051 43.8808C489.223 44.3836 489.481 44.9184 489.826 45.485C490.343 46.335 490.286 46.3841 490.966 47.0292C491.715 47.7234 492.713 48.4448 495.404 48.6309C498.095 48.817 499.414 48.5264 500.156 48.1175C500.898 47.7086 501.503 47.2716 501.787 46.5431C502.071 45.6902 502.208 44.6599 501.29 43.6428C500.072 42.4419 497.074 41.6291 494.372 40.36C491.67 39.091 491.168 38.9245 489.604 38.0001C488.041 37.0758 487.146 36.3699 486.043 35.3397C483.911 33.2588 483.137 31.6084 482.509 29.3175C482.085 27.2953 482.176 25.0267 482.509 23.3215C482.984 21.3888 483.671 19.7416 484.795 18.1598C485.98 16.5389 487.602 15.2252 489.39 14.4145C490.853 13.7183 492.628 13.0837 495.404 12.8983C498.249 12.7289 500.862 13.073 503.315 14.1179C504.112 14.4238 504.78 14.7689 505.653 15.4075C506.277 15.9283 506.814 16.4457 507.263 16.9599L501.67 24.607C501.165 24.2267 500.544 23.8321 499.808 23.4233C497.926 22.5741 495.694 22.235 493.947 23.1469C492.451 24.0903 492.311 24.5941 492.199 25.9614C492.199 27.527 493.572 29.5572 496.344 30.6999C498.843 31.8339 497.55 31.2351 501.182 32.6816C504.815 34.1281 506.6 35.0661 508.05 36.1378C509.5 37.2094 510.832 39.0553 511.275 41.1521C511.717 43.249 511.623 42.5839 511.783 44.5687C511.738 46.4864 511.55 48.6172 510.537 50.8697C510.088 51.7671 509.848 52.4477 508.68 53.7978C507.18 55.5157 506.579 56.092 503.542 57.6905C501.718 58.4858 499.567 58.9163 497.362 59.0796C494.355 59.107 492.046 58.6492 489.826 57.8456C487.913 57.1565 487.615 57.0265 485.897 55.8707C484.77 55.0966 483.702 54.0424 482.693 52.708Z" fill="white"/>
  <path fill-rule="evenodd" clip-rule="evenodd" d="M427.365 52.708L433.724 43.8808C433.895 44.3836 434.154 44.9184 434.498 45.485C435.015 46.335 434.959 46.3841 435.638 47.0292C436.387 47.7234 437.386 48.4448 440.077 48.6309C442.768 48.817 444.087 48.5264 444.828 48.1175C445.57 47.7086 446.176 47.2716 446.459 46.5431C446.744 45.6902 446.88 44.6599 445.963 43.6428C444.744 42.4419 441.746 41.6291 439.045 40.36C436.343 39.091 435.84 38.9245 434.277 38.0001C432.714 37.0758 431.818 36.3699 430.715 35.3397C428.584 33.2588 427.81 31.6084 427.182 29.3175C426.757 27.2953 426.848 25.0267 427.182 23.3215C427.657 21.3888 428.344 19.7416 429.467 18.1598C430.652 16.5389 432.274 15.2252 434.063 14.4145C435.525 13.7183 437.3 13.0837 440.077 12.8983C442.921 12.7289 445.534 13.073 447.987 14.1179C448.785 14.4238 449.452 14.7689 450.326 15.4075C450.95 15.9283 451.486 16.4457 451.935 16.9599L446.343 24.607C445.837 24.2267 445.216 23.8321 444.48 23.4233C442.598 22.5741 440.366 22.235 438.619 23.1469C437.123 24.0903 436.983 24.5941 436.872 25.9614C436.872 27.527 438.244 29.5572 441.016 30.6999C443.516 31.8339 442.222 31.2351 445.855 32.6816C449.487 34.1281 451.273 35.0661 452.723 36.1378C454.172 37.2094 455.504 39.0553 455.947 41.1521C456.39 43.249 456.296 42.5839 456.455 44.5687C456.41 46.4864 456.222 48.6172 455.209 50.8697C454.76 51.7671 454.52 52.4477 453.353 53.7978C451.852 55.5157 451.251 56.092 448.214 57.6905C446.39 58.4858 444.24 58.9163 442.034 59.0796C439.027 59.107 436.719 58.6492 434.498 57.8456C432.585 57.1565 432.288 57.0265 430.57 55.8707C429.442 55.0966 428.374 54.0424 427.365 52.708Z" fill="white"/>
  <path fill-rule="evenodd" clip-rule="evenodd" d="M388.243 14.3727H400.37V30.4672L388.243 36.0383V14.3727Z" fill="white"/>
  <path fill-rule="evenodd" clip-rule="evenodd" d="M388.243 36.0383L400.37 48.4187V58.323H388.243V36.0383Z" fill="white"/>
  <path fill-rule="evenodd" clip-rule="evenodd" d="M325.336 14.3727V23.5438L350.002 58.323H360.958V49.0621L336.38 14.3727H325.336Z" fill="white"/>
  <path fill-rule="evenodd" clip-rule="evenodd" d="M325.336 33.9076V58.323H337.835V51.7804L325.336 33.9076Z" fill="white"/>
  <path fill-rule="evenodd" clip-rule="evenodd" d="M347.834 14.3727H360.958V24.277H347.834V14.3727Z" fill="white"/>
  <path fill-rule="evenodd" clip-rule="evenodd" d="M283.861 14.632C285.512 14.9428 286.02 15.1269 287.124 15.5445C288.228 15.9622 289.742 16.8536 290.533 17.4781C291.324 18.1026 291.651 18.3906 292.398 19.1586C293.145 19.9267 294.558 21.8154 295.202 23.0417C295.847 24.2681 296.664 26.4725 296.864 27.79C297.038 28.9428 297.055 29.1626 297.056 30.0457L297.056 30.4694C297.056 31.7324 296.758 34.1281 296.32 35.4211C295.882 36.7142 294.744 39.0683 293.677 40.4053C292.611 41.7423 292.078 42.0932 291.254 42.8488C290.704 43.3525 290.107 43.7836 289.463 44.1422L299.568 58.323H285.262L261.672 25.1832V14.3762H280.916C280.916 14.3762 280.944 14.375 280.998 14.3739L281.097 14.3727C281.509 14.3698 282.577 14.3904 283.861 14.632ZM280.916 23.0417H274.409L283.017 35.0677C283.56 34.8864 284.045 34.6353 284.474 34.3144C285.117 33.8331 285.298 33.6808 285.91 32.9035C286.523 32.1262 287.068 30.3698 287.124 29.2314C287.18 28.0931 286.746 26.7124 286.112 25.8421C285.478 24.9719 285.087 24.6509 284.474 24.172C283.909 23.803 283.667 23.6317 282.77 23.3467C282.171 23.1566 281.554 23.055 280.916 23.0417Z" fill="white"/>
  <path fill-rule="evenodd" clip-rule="evenodd" d="M261.672 42.2297H273.467V58.3229H261.672V42.2297Z" fill="white"/>
  <path fill-rule="evenodd" clip-rule="evenodd" d="M235.145 14.3727H199.523V46.0218L208.14 58.323H235.145V48.4187H213.272V40.3714H227.021V30.4672H213.272V24.277H223.271V21.1819H235.145V14.3727Z" fill="white"/>
  <path fill-rule="evenodd" clip-rule="evenodd" d="M126.005 14.4326H138.413L145.885 33.9051L137.822 54.2714L126.005 24.4885V14.4326Z" fill="white"/>
  <path fill-rule="evenodd" clip-rule="evenodd" d="M139.374 58.323L156.519 14.4326L172.996 14.3727L155.587 58.323H139.374Z" fill="white"/>
  <path d="M72.5719 59.0807C76.967 59.0807 80.53 55.5184 80.53 51.1241C80.53 46.7299 76.967 43.1676 72.5719 43.1676C68.1767 43.1676 64.6138 46.7299 64.6138 51.1241C64.6138 55.5184 68.1767 59.0807 72.5719 59.0807Z" fill="#E6007A"/>
  <path d="M57.0349 3.76392H3.98096V56.8074H57.0349V3.76392Z" stroke="white" stroke-width="6"/>
</svg>
