<svg width="32" height="32" viewBox="0 0 32 32" fill="none" xmlns="http://www.w3.org/2000/svg">
    <ellipse cx="15.5013" cy="16.0001" rx="15.5013" ry="15.6841" fill="#212121"/>
    <mask id="mask0" mask-type="alpha" maskUnits="userSpaceOnUse" x="0" y="0" width="32" height="32">
        <ellipse cx="15.5013" cy="16.0001" rx="15.5013" ry="15.6841" fill="#000219"/>
    </mask>
    <g mask="url(#mask0)">
        <path d="M12.1587 32.1322L12.1587 28.1698C9.41057 27.3963 7.21094 25.902 5.55977 23.687C3.92015 21.4719 3.10034 18.9053 3.10034 15.987C3.10034 12.1312 4.53212 8.97269 7.39569 6.51152C9.77429 4.47226 12.482 3.45264 15.5187 3.45264C19.433 3.45264 22.591 4.88832 24.9927 7.75968C26.9326 10.0802 27.9025 12.7582 27.9025 15.7936C27.9025 18.7705 27.0423 21.4368 25.3218 23.7924C23.7746 25.9255 21.6154 27.3846 18.8442 28.1698L18.8442 32.1322H12.1587ZM12.4011 17.9208H18.619L18.619 20.6105C20.0046 19.4034 20.6974 17.8739 20.6974 16.0222C20.6974 14.5338 20.1836 13.2446 19.1559 12.1546C18.1283 11.0647 16.9159 10.5197 15.5187 10.5197C14.11 10.5197 12.8919 11.0647 11.8642 12.1546C10.8366 13.2446 10.3228 14.5338 10.3228 16.0222C10.3228 17.9208 11.0156 19.4502 12.4011 20.6105L12.4011 17.9208Z" fill="#A2DD18"/>
    </g>
</svg>
