<svg width="17" height="16" viewBox="0 0 17 16" fill="none" xmlns="http://www.w3.org/2000/svg">
  <path d="M11.5105 6.23218H14.5105V3.23218" stroke="black" stroke-linecap="round" stroke-linejoin="round"/>
  <path d="M4.61096 4.11091C5.12168 3.60019 5.728 3.19506 6.39529 2.91866C7.06258 2.64226 7.77778 2.5 8.50005 2.5C9.22232 2.5 9.93752 2.64226 10.6048 2.91866C11.2721 3.19506 11.8784 3.60019 12.3891 4.11091L14.5105 6.23223" stroke="black" stroke-linecap="round" stroke-linejoin="round"/>
  <path d="M5.4895 9.76782H2.4895V12.7678" stroke="black" stroke-linecap="round" stroke-linejoin="round"/>
  <path d="M12.3891 11.8891C11.8784 12.3999 11.2721 12.805 10.6048 13.0814C9.9375 13.3578 9.2223 13.5001 8.50003 13.5001C7.77776 13.5001 7.06256 13.3578 6.39527 13.0814C5.72798 12.805 5.12167 12.3999 4.61094 11.8891L2.48962 9.76782" stroke="black" stroke-linecap="round" stroke-linejoin="round"/>
</svg>
