<svg xmlns="http://www.w3.org/2000/svg" style="display: none;">
    <symbol id="icon-checked" viewBox="0 0 18 14">
        <path d="M6.3548 13.1682C6.13369 13.1682 5.91258 13.0836 5.74413 12.9152L0.453573 7.62445C0.115736 7.28677 0.115736 6.74079 0.453573 6.40311C0.791251 6.06543 1.33707 6.06543 1.67491 6.40311L6.3548 11.083L16.3256 1.11239C16.6633 0.774711 17.2091 0.774711 17.5469 1.11239C17.8846 1.45023 17.8846 1.99605 17.5469 2.33388L6.96563 12.9152C6.79719 13.0836 6.57592 13.1682 6.3548 13.1682Z" />
    </symbol>
    <symbol id="icon-magnify" viewBox="0 0 20 20">
        <path fill-rule="evenodd" clip-rule="evenodd" d="M8.875 1.75C4.93997 1.75 1.75 4.93997 1.75 8.875C1.75 12.81 4.93997 16 8.875 16C12.81 16 16 12.81 16 8.875C16 4.93997 12.81 1.75 8.875 1.75ZM0.25 8.875C0.25 4.11154 4.11154 0.25 8.875 0.25C13.6385 0.25 17.5 4.11154 17.5 8.875C17.5 13.6385 13.6385 17.5 8.875 17.5C4.11154 17.5 0.25 13.6385 0.25 8.875Z" />
        <path fill-rule="evenodd" clip-rule="evenodd" d="M13.9128 13.9135C14.2057 13.6206 14.6806 13.6206 14.9734 13.9135L19.5298 18.4698C19.8226 18.7627 19.8226 19.2376 19.5298 19.5305C19.2369 19.8234 18.762 19.8234 18.4691 19.5305L13.9128 14.9742C13.6199 14.6813 13.6199 14.2064 13.9128 13.9135Z" />
    </symbol>
    <symbol id="icon-triangle" viewBox="0 0 8 4">
        <path d="M3.65721 3.87333C3.8496 4.04222 4.1504 4.04222 4.34279 3.87333L7.84263 0.800946C8.17087 0.512797 7.95141 0 7.49985 0H0.500152C0.0485917 0 -0.170873 0.512798 0.157366 0.800947L3.65721 3.87333Z" />
    </symbol>
    <symbol id="icon-eye-closed" viewBox="0 0 20 10">
        <path fill-rule="evenodd" clip-rule="evenodd" d="M16.4828 2.28529C16.8416 2.07818 17.3002 2.20109 17.5074 2.55981L19.6458 6.26367C19.8529 6.62239 19.73 7.08109 19.3713 7.28819C19.0125 7.4953 18.5539 7.37239 18.3467 7.01367L16.2083 3.30981C16.0012 2.95109 16.1241 2.4924 16.4828 2.28529Z" />
        <path fill-rule="evenodd" clip-rule="evenodd" d="M12.3244 4.25479C12.7323 4.18287 13.1213 4.45524 13.1932 4.86316L13.8601 8.6454C13.9321 9.05332 13.6597 9.44232 13.2518 9.51425C12.8438 9.58617 12.4548 9.3138 12.3829 8.90588L11.716 5.12363C11.6441 4.71571 11.9165 4.32672 12.3244 4.25479Z" />
        <path fill-rule="evenodd" clip-rule="evenodd" d="M7.66745 4.25298C8.07537 4.32491 8.34774 4.7139 8.27582 5.12182L7.6088 8.90469C7.53687 9.31261 7.14787 9.58499 6.73995 9.51306C6.33203 9.44113 6.05966 9.05214 6.13159 8.64422L6.79861 4.86135C6.87053 4.45343 7.25953 4.18105 7.66745 4.25298Z" />
        <path fill-rule="evenodd" clip-rule="evenodd" d="M3.51336 2.28226C3.87208 2.48937 3.99498 2.94806 3.78787 3.30678L1.63915 7.02849C1.43204 7.38721 0.973347 7.51012 0.614627 7.30301C0.255908 7.0959 0.133001 6.63721 0.340108 6.27849L2.48884 2.55678C2.69594 2.19806 3.15464 2.07516 3.51336 2.28226Z" />
        <path fill-rule="evenodd" clip-rule="evenodd" d="M0.528675 0.248634C0.850878 -0.0116694 1.32309 0.0385101 1.5834 0.360713C3.0769 2.20937 5.77273 4.49999 10 4.49999C14.2274 4.49999 16.9232 2.20938 18.4167 0.360733C18.677 0.0385309 19.1492 -0.0116476 19.4714 0.248657C19.7936 0.508961 19.8438 0.981176 19.5835 1.30338C17.9246 3.35669 14.8414 5.99999 10 5.99999C5.15865 5.99999 2.07544 3.35667 0.416596 1.30336C0.156293 0.981153 0.206472 0.508938 0.528675 0.248634Z" />
    </symbol>
    <symbol id="icon-arrow-left" viewBox="0 0 12 11">
        <path fill-rule="evenodd" clip-rule="evenodd" d="M0 5.5C0 5.22386 0.223858 5 0.5 5H11.5C11.7761 5 12 5.22386 12 5.5C12 5.77614 11.7761 6 11.5 6H0.5C0.223858 6 0 5.77614 0 5.5Z" />
        <path fill-rule="evenodd" clip-rule="evenodd" d="M5.35355 0.646447C5.54882 0.841709 5.54882 1.15829 5.35355 1.35355L1.20711 5.5L5.35355 9.64645C5.54882 9.84171 5.54882 10.1583 5.35355 10.3536C5.15829 10.5488 4.84171 10.5488 4.64645 10.3536L0.146447 5.85355C-0.0488155 5.65829 -0.0488155 5.34171 0.146447 5.14645L4.64645 0.646447C4.84171 0.451184 5.15829 0.451184 5.35355 0.646447Z" />
    </symbol>
    <symbol id="icon-arrow-right" viewBox="0 0 12 11">
        <path fill-rule="evenodd" clip-rule="evenodd" d="M0 5.5C0 5.22386 0.223858 5 0.5 5H11.5C11.7761 5 12 5.22386 12 5.5C12 5.77614 11.7761 6 11.5 6H0.5C0.223858 6 0 5.77614 0 5.5Z" />
        <path fill-rule="evenodd" clip-rule="evenodd" d="M6.64645 0.646447C6.84171 0.451184 7.15829 0.451184 7.35355 0.646447L11.8536 5.14645C12.0488 5.34171 12.0488 5.65829 11.8536 5.85355L7.35355 10.3536C7.15829 10.5488 6.84171 10.5488 6.64645 10.3536C6.45118 10.1583 6.45118 9.84171 6.64645 9.64645L10.7929 5.5L6.64645 1.35355C6.45118 1.15829 6.45118 0.841709 6.64645 0.646447Z" />
    </symbol>
    <symbol id="icon-pencil" viewBox="0 0 19 19">
        <path fill-rule="evenodd" clip-rule="evenodd" d="M11.6893 1C11.9706 0.718696 12.3522 0.560661 12.75 0.560661C13.1478 0.560661 13.5294 0.718696 13.8107 1L18 5.18934C18.2813 5.47065 18.4393 5.85218 18.4393 6.25C18.4393 6.64782 18.2813 7.02936 18 7.31066L6.75 18.5607C6.61072 18.6999 6.44536 18.8104 6.26337 18.8858C6.08138 18.9612 5.88632 19 5.68934 19H1.5C1.10218 19 0.720645 18.842 0.43934 18.5607C0.158035 18.2794 0 17.8978 0 17.5V13.3107C-5.96046e-08 13.1137 0.0387985 12.9186 0.114181 12.7366C0.189562 12.5546 0.300052 12.3893 0.43934 12.25L11.6893 1ZM16.9393 6.25L12.75 2.06066L1.5 13.3107L0.975629 12.7863L1.5 13.3107L1.5 17.5L5.68934 17.5L16.9393 6.25Z" />
        <path fill-rule="evenodd" clip-rule="evenodd" d="M9.21967 3.46967C9.51256 3.17678 9.98744 3.17678 10.2803 3.46967L15.5303 8.71967C15.8232 9.01256 15.8232 9.48744 15.5303 9.78033C15.2374 10.0732 14.7626 10.0732 14.4697 9.78033L9.21967 4.53033C8.92678 4.23744 8.92678 3.76256 9.21967 3.46967Z" />
        <path fill-rule="evenodd" clip-rule="evenodd" d="M0.267399 12.5174C0.560293 12.2245 1.03517 12.2245 1.32806 12.5174L6.48244 17.6717C6.77533 17.9646 6.77533 18.4395 6.48244 18.7324C6.18954 19.0253 5.71467 19.0253 5.42178 18.7324L0.2674 13.578C-0.0254938 13.2851 -0.0254938 12.8103 0.267399 12.5174Z" />
    </symbol>
    <symbol id="icon-calendar" viewBox="0 0 24 24">
        <path fill-rule="evenodd" clip-rule="evenodd" d="M3 4.5C3 3.67157 3.67157 3 4.5 3H19.5C20.3284 3 21 3.67157 21 4.5V19.5C21 20.3284 20.3284 21 19.5 21H4.5C3.67157 21 3 20.3284 3 19.5V4.5ZM19.5 4.5H4.5V19.5H19.5V4.5Z"/>
        <path fill-rule="evenodd" clip-rule="evenodd" d="M16.5 1.5C16.9142 1.5 17.25 1.83579 17.25 2.25V5.25C17.25 5.66421 16.9142 6 16.5 6C16.0858 6 15.75 5.66421 15.75 5.25V2.25C15.75 1.83579 16.0858 1.5 16.5 1.5Z"/>
        <path fill-rule="evenodd" clip-rule="evenodd" d="M7.5 1.5C7.91421 1.5 8.25 1.83579 8.25 2.25V5.25C8.25 5.66421 7.91421 6 7.5 6C7.08579 6 6.75 5.66421 6.75 5.25V2.25C6.75 1.83579 7.08579 1.5 7.5 1.5Z"/>
        <path fill-rule="evenodd" clip-rule="evenodd" d="M3 8.25C3 7.83579 3.33579 7.5 3.75 7.5H20.25C20.6642 7.5 21 7.83579 21 8.25C21 8.66421 20.6642 9 20.25 9H3.75C3.33579 9 3 8.66421 3 8.25Z"/>
    </symbol>
    <symbol id="icon-carret-right" viewBox="0 0 5 10">
        <path fill-rule="evenodd" clip-rule="evenodd" d="M0.234835 0.984835C0.381282 0.838388 0.618718 0.838388 0.765165 0.984835L4.51516 4.73484C4.66161 4.88128 4.66161 5.11872 4.51516 5.26516L0.765165 9.01517C0.618718 9.16161 0.381282 9.16161 0.234835 9.01517C0.0883883 8.86872 0.0883883 8.63128 0.234835 8.48483L3.71967 5L0.234835 1.51517C0.0883883 1.36872 0.0883883 1.13128 0.234835 0.984835Z" />
    </symbol>
    <symbol id="icon-social-discord" viewBox="0 0 32 32">
        <circle cx="16" cy="16" r="16" fill="#009CF0" />
        <path d="M10.4064 20.2088C14.7559 21.9407 18.4573 22.2781 22.6518 19.5823C22.6211 19.6294 21.7914 20.8836 19.6094 21.5263C20.0704 22.1691 20.7004 22.9059 20.7004 22.9059C22.0987 22.9059 23.4662 22.4983 24.6493 21.7144C25.5712 21.0873 26.0936 20.0056 25.9861 18.8768C25.8017 16.9485 25.3561 15.0672 24.6647 13.2643C23.7888 10.9127 21.6838 9.28223 19.2407 9.04705C19.0256 9.03137 18.8719 9.03137 18.7797 9.03137L18.5339 9.28219C21.3458 10.0974 22.744 11.3673 22.7747 11.4143C18.457 9.18812 13.3557 9.1568 9.00728 11.3203C9.00728 11.3203 10.3902 9.92499 13.4479 9.18812L13.2635 9C12.9408 9 12.6335 9.03137 12.3108 9.07838C10.0521 9.47031 8.16219 11.0537 7.34781 13.2329C6.64098 15.1142 6.18003 17.0896 6.01103 19.0963C5.91883 20.1623 6.41053 21.2128 7.27099 21.8242C8.40802 22.5924 9.76017 23 11.1277 23C11.1277 23 11.6808 22.2631 12.234 21.6047C10.1597 20.9776 9.31459 19.7234 9.29922 19.6764L9.68961 19.8797C9.92298 20.0014 10.1622 20.1116 10.4064 20.2088ZM12.8179 18.8455C11.8192 18.8141 11.0355 17.9519 11.0663 16.9171C11.097 15.9451 11.8653 15.1613 12.8179 15.1299C13.8167 15.1613 14.6003 16.0235 14.5696 17.0582C14.5235 18.0303 13.7706 18.8141 12.8179 18.8455ZM19.087 18.8455C18.0882 18.8141 17.3046 17.9519 17.3353 16.9171C17.3661 15.9451 18.1343 15.1613 19.087 15.1299C20.0858 15.1613 20.8694 16.0235 20.8387 17.0582C20.808 18.0303 20.0396 18.8141 19.087 18.8455Z" fill="white" />
    </symbol>
    <symbol id="icon-social-github" viewBox="0 0 32 32">
        <g clip-path="url(#clip0_8_1487)">
            <circle cx="16" cy="16" r="16" fill="#009CF0" />
            <path fill-rule="evenodd" clip-rule="evenodd" d="M16.0215 32.0007C16.0144 32.0007 16.0072 32.0007 16 32.0007C14.7621 32.0007 13.5571 31.8602 12.4 31.5941V30.5341V27.8674C8.00002 28.8007 7.06668 25.7341 7.06668 25.7341C6.40002 23.8674 5.33335 23.3341 5.33335 23.3341C3.86668 22.4008 5.46668 22.4007 5.46668 22.4007C7.06668 22.4007 7.86668 24.0007 7.86668 24.0007C9.33335 26.4008 11.6 25.7341 12.5333 25.3341C12.6667 24.2674 13.2 23.6007 13.6 23.2008C10 22.6674 6.26668 21.3341 6.26668 15.2008C6.26668 13.4674 6.80002 12.0008 7.86668 10.9341C7.73335 10.5341 7.20002 8.93409 8.00002 6.66742C8.00002 6.66742 9.33335 6.26742 12.4 8.26742C13.7333 7.86742 15.0667 7.73409 16.4 7.73409C17.7333 7.73409 19.0667 7.86742 20.4 8.26742C23.4667 6.26742 24.8 6.66742 24.8 6.66742C25.7333 8.93409 25.2 10.5341 24.9333 11.0674C25.8667 12.1341 26.5333 13.6008 26.5333 15.3341C26.5333 21.4674 22.8 22.8008 19.2 23.2008C19.7333 23.6007 20.2667 24.6674 20.2667 26.1341V30.5341V31.4255C18.9149 31.7986 17.4915 31.9988 16.0215 32.0007Z" fill="white" />
        </g>
        <defs>
            <clipPath id="clip0_8_1487">
                <rect width="32" height="32" fill="white" />
            </clipPath>
        </defs>
    </symbol>
    <symbol id="icon-social-subsocial" viewBox="0 0 32 32">
        <circle cx="16" cy="16" r="16" fill="#009CF0" />
        <path fill-rule="evenodd" clip-rule="evenodd" d="M10 9.36806C10 6.03553 12.686 3.33398 15.9993 3.33398C19.3127 3.33398 21.9987 6.03553 21.9987 9.36806V9.5958C21.9987 10.4614 21.2969 11.1632 20.4313 11.1632C19.5656 11.1632 18.8639 10.4614 18.8639 9.5958V9.47678C18.8639 7.88558 17.5814 6.59565 15.9993 6.59565C14.4173 6.59565 13.1348 7.88557 13.1348 9.47678V13.1733C13.1348 13.9841 13.4678 14.7167 14.0037 15.2403L17.4599 18.5604L17.4933 18.5926C17.6871 18.7787 17.6135 19.1015 17.3518 19.1622C16.9171 19.2629 16.4644 19.3161 15.9993 19.3161C12.686 19.3161 10 16.6146 10 13.2821V9.36806ZM22 22.6332C22 25.9658 19.314 28.6673 16.0007 28.6673C12.6873 28.6673 10.0013 25.9658 10.0013 22.6332V22.4067C10.0013 21.5411 10.7031 20.8393 11.5687 20.8393C12.4344 20.8393 13.1361 21.5411 13.1361 22.4067V22.5245C13.1361 24.1157 14.4186 25.4057 16.0007 25.4057C17.5827 25.4057 18.8652 24.1157 18.8652 22.5245V18.828C18.8652 18.0172 18.5322 17.2846 17.9963 16.761L14.5401 13.4409L14.5067 13.4087C14.3129 13.2226 14.3865 12.8998 14.6482 12.8391C15.0829 12.7384 15.5356 12.6852 16.0007 12.6852C19.314 12.6852 22 15.3867 22 18.7192V22.6332Z" fill="white" />
    </symbol>
    <symbol id="icon-social-telegram" viewBox="0 0 32 32">
        <circle cx="16" cy="16" r="16" fill="#009CF0" />
        <path fill-rule="evenodd" clip-rule="evenodd" d="M21.7752 9.59124C21.9798 9.50968 22.2031 9.4821 22.4223 9.51133C22.6416 9.54056 22.8488 9.62554 23.0228 9.75757C23.1969 9.88961 23.3314 10.0639 23.4127 10.2627C23.494 10.4615 23.5191 10.6776 23.4855 10.8888C23.0005 13.9344 22.1114 19.5153 21.6394 22.4778C21.6068 22.6828 21.5199 22.8761 21.3872 23.0392C21.2545 23.2023 21.0805 23.3296 20.882 23.4088C20.6835 23.4879 20.4672 23.5163 20.254 23.4911C20.0408 23.4659 19.8379 23.388 19.665 23.265C17.9954 22.0771 15.4922 20.2961 14.2213 19.3916C14.1232 19.3218 14.0422 19.232 13.984 19.1287C13.9258 19.0253 13.8917 18.9109 13.8843 18.7935C13.8769 18.676 13.8963 18.5585 13.9411 18.4491C13.9859 18.3396 14.055 18.2411 14.1436 18.1603C15.3081 17.0982 17.6275 14.9829 19.2234 13.5274C19.261 13.4929 19.2839 13.446 19.2876 13.3961C19.2913 13.3462 19.2755 13.2967 19.2434 13.2573C19.2113 13.218 19.1652 13.1917 19.114 13.1835C19.0629 13.1753 19.0104 13.1859 18.9669 13.2131C16.9207 14.5018 13.787 16.4753 12.2511 17.4426C11.9633 17.6239 11.6398 17.7458 11.3009 17.8008C10.962 17.8558 10.615 17.8426 10.2816 17.7621C9.43594 17.5579 8.21609 17.2634 7.13052 17.0014C6.96056 16.9603 6.80834 16.8686 6.69553 16.7392C6.58272 16.6097 6.51508 16.4492 6.50224 16.2805C6.4894 16.1118 6.53202 15.9435 6.62403 15.7995C6.71604 15.6556 6.85274 15.5433 7.01467 15.4787C10.7937 13.9714 18.1891 11.0218 21.7752 9.59124Z" fill="white" />
    </symbol>
    <symbol id="icon-social-twitter" viewBox="0 0 32 32">
        <circle cx="16" cy="16" r="16" fill="#009CF0" />
        <path d="M25.5 11.2314C24.8306 11.525 24.1174 11.7196 23.3737 11.8141C24.1388 11.3574 24.7226 10.6396 24.9971 9.7745C24.2839 10.1997 23.4964 10.5001 22.6571 10.6678C21.9799 9.94663 21.0146 9.5 19.9616 9.5C17.9186 9.5 16.2739 11.1583 16.2739 13.1911C16.2739 13.4836 16.2986 13.7649 16.3594 14.0326C13.2915 13.883 10.5769 12.4126 8.75325 10.1728C8.43487 10.7251 8.24813 11.3574 8.24813 12.038C8.24813 13.316 8.90625 14.4489 9.88725 15.1047C9.29437 15.0935 8.71275 14.9214 8.22 14.6502C8.22 14.6615 8.22 14.6761 8.22 14.6907C8.22 16.484 9.49912 17.9735 11.1765 18.3166C10.8761 18.3988 10.5487 18.4381 10.209 18.4381C9.97275 18.4381 9.73425 18.4246 9.51038 18.3751C9.9885 19.8365 11.3453 20.9109 12.9585 20.9457C11.703 21.9279 10.1089 22.5196 8.38313 22.5196C8.0805 22.5196 7.79025 22.5061 7.5 22.469C9.13462 23.5231 11.0719 24.125 13.161 24.125C19.9515 24.125 23.664 18.5 23.664 13.6242C23.664 13.4611 23.6584 13.3036 23.6505 13.1473C24.3829 12.6275 24.9982 11.9784 25.5 11.2314Z" fill="white" />
    </symbol>
    <symbol id="icon-carret-left" viewBox="0 0 7 12">
        <path fill-rule="evenodd" clip-rule="evenodd" d="M6.35355 0.646447C6.54882 0.841709 6.54882 1.15829 6.35355 1.35355L1.70711 6L6.35355 10.6464C6.54882 10.8417 6.54882 11.1583 6.35355 11.3536C6.15829 11.5488 5.84171 11.5488 5.64645 11.3536L0.646447 6.35355C0.451184 6.15829 0.451184 5.84171 0.646447 5.64645L5.64645 0.646447C5.84171 0.451184 6.15829 0.451184 6.35355 0.646447Z" />
    </symbol>
    <symbol id="icon-carret-right" viewBox="0 0 7 12">
        <path fill-rule="evenodd" clip-rule="evenodd" d="M0.646447 0.646447C0.841709 0.451184 1.15829 0.451184 1.35355 0.646447L6.35355 5.64645C6.54882 5.84171 6.54882 6.15829 6.35355 6.35355L1.35355 11.3536C1.15829 11.5488 0.841709 11.5488 0.646447 11.3536C0.451184 11.1583 0.451184 10.8417 0.646447 10.6464L5.29289 6L0.646447 1.35355C0.451184 1.15829 0.451184 0.841709 0.646447 0.646447Z" />
    </symbol>
    <symbol id="icon-arrow-down" viewBox="0 0 16 16">
        <path fill-rule="evenodd" clip-rule="evenodd" d="M8 2C8.27614 2 8.5 2.22386 8.5 2.5V13.5C8.5 13.7761 8.27614 14 8 14C7.72386 14 7.5 13.7761 7.5 13.5V2.5C7.5 2.22386 7.72386 2 8 2Z" />
        <path fill-rule="evenodd" clip-rule="evenodd" d="M3.14645 8.64645C3.34171 8.45118 3.65829 8.45118 3.85355 8.64645L8 12.7929L12.1464 8.64645C12.3417 8.45118 12.6583 8.45118 12.8536 8.64645C13.0488 8.84171 13.0488 9.15829 12.8536 9.35355L8.35355 13.8536C8.15829 14.0488 7.84171 14.0488 7.64645 13.8536L3.14645 9.35355C2.95118 9.15829 2.95118 8.84171 3.14645 8.64645Z" />
    </symbol>
    <symbol id="icon-arrow-up" viewBox="0 0 16 16">
        <path fill-rule="evenodd" clip-rule="evenodd" d="M8 2C8.27614 2 8.5 2.22386 8.5 2.5V13.5C8.5 13.7761 8.27614 14 8 14C7.72386 14 7.5 13.7761 7.5 13.5V2.5C7.5 2.22386 7.72386 2 8 2Z" />
        <path fill-rule="evenodd" clip-rule="evenodd" d="M7.64645 2.14645C7.84171 1.95118 8.15829 1.95118 8.35355 2.14645L12.8536 6.64645C13.0488 6.84171 13.0488 7.15829 12.8536 7.35355C12.6583 7.54882 12.3417 7.54882 12.1464 7.35355L8 3.20711L3.85355 7.35355C3.65829 7.54882 3.34171 7.54882 3.14645 7.35355C2.95118 7.15829 2.95118 6.84171 3.14645 6.64645L7.64645 2.14645Z" />
    </symbol>
    <symbol id="icon-close" viewBox="0 0 16 16">
        <path fill-rule="evenodd" clip-rule="evenodd" d="M15.2803 0.71967C15.5732 1.01256 15.5732 1.48744 15.2803 1.78033L1.78033 15.2803C1.48744 15.5732 1.01256 15.5732 0.71967 15.2803C0.426777 14.9874 0.426777 14.5126 0.71967 14.2197L14.2197 0.71967C14.5126 0.426777 14.9874 0.426777 15.2803 0.71967Z" />
        <path fill-rule="evenodd" clip-rule="evenodd" d="M0.71967 0.71967C1.01256 0.426777 1.48744 0.426777 1.78033 0.71967L15.2803 14.2197C15.5732 14.5126 15.5732 14.9874 15.2803 15.2803C14.9874 15.5732 14.5126 15.5732 14.2197 15.2803L0.71967 1.78033C0.426777 1.48744 0.426777 1.01256 0.71967 0.71967Z" />
    </symbol>
    <symbol id="icon-chain-quartz" viewBox="0 0 48 48">
        <path fill-rule="evenodd" clip-rule="evenodd" d="M26.2587 40.2501C26.1449 40.126 26.004 40.0299 25.8469 39.9693C25.6898 39.9088 25.5209 39.8854 25.3532 39.901C24.9278 39.901 24.4914 39.9556 24.055 39.9556C20.6739 39.9647 17.3769 38.902 14.6376 36.9201C11.8982 34.9382 9.85749 32.1391 8.80846 28.9248C7.75943 25.7105 7.7561 22.2465 8.79895 19.0302C9.84179 15.8139 11.8772 13.0109 14.6127 11.0238C17.3482 9.03662 20.6432 7.96758 24.0243 7.97019C27.4054 7.9728 30.6987 9.04693 33.4312 11.0383C36.1636 13.0297 38.1947 15.8358 39.2325 19.0537C40.2704 22.2716 40.2617 25.7356 39.2077 28.9483C39.1102 29.201 39.1102 29.481 39.2077 29.7337L42.8296 37.5228C42.8698 37.6093 42.9319 37.6836 43.0098 37.7386C43.0877 37.7935 43.1787 37.827 43.2736 37.8359C43.3685 37.8447 43.4641 37.8285 43.5508 37.7889C43.6375 37.7493 43.7123 37.6876 43.7677 37.6101C46.9871 32.9341 48.4447 27.2683 47.8816 21.6192C47.3184 15.9701 44.7709 10.7035 40.6917 6.75517C36.6125 2.8068 31.2658 0.432298 25.6013 0.053509C19.9369 -0.32528 14.3216 1.31618 9.75297 4.68625C5.18439 8.05633 1.95837 12.9368 0.648048 18.4606C-0.662271 23.9844 0.0279581 29.7939 2.59611 34.8569C5.16426 39.9199 9.44404 43.9086 14.6751 46.1144C19.9062 48.3201 25.7498 48.6001 31.1678 46.9046C31.2545 46.8769 31.3328 46.8279 31.3958 46.7622C31.4587 46.6964 31.5041 46.6159 31.528 46.5281C31.5519 46.4402 31.5534 46.3478 31.5324 46.2593C31.5114 46.1707 31.4685 46.0888 31.4078 46.021L26.2587 40.2501Z" fill="#FF4D6A" />
        <path fill-rule="evenodd" clip-rule="evenodd" d="M33.7419 26.7558L30.371 31.043C30.2429 31.2029 30.067 31.3175 29.8691 31.3703L24.6001 32.723H24.5237H24.4692C24.466 32.7013 24.466 32.6793 24.4692 32.6576C24.4641 32.6361 24.4641 32.6136 24.4692 32.5921L26.1601 26.1776C26.1822 26.0807 26.2235 25.9893 26.2816 25.9087C26.3397 25.8282 26.4133 25.7601 26.4982 25.7085C26.6617 25.5993 26.8606 25.5564 27.0546 25.5885L33.6546 26.5485H33.72C33.7247 26.5664 33.7247 26.5851 33.72 26.603C33.7251 26.6246 33.7251 26.647 33.72 26.6685C33.7304 26.6802 33.7377 26.6943 33.7415 26.7095C33.7453 26.7247 33.7454 26.7405 33.7419 26.7558V26.7558ZM25.0146 34.4576L30.9055 32.9085C31.1051 32.8595 31.282 32.7441 31.4073 32.5812L35.16 27.8249H35.2255H35.2909L42.2727 42.8357C42.3495 43.0144 42.3795 43.2096 42.36 43.403C42.3366 43.5975 42.2613 43.7822 42.1418 43.9375L40.44 46.3266C40.3302 46.462 40.1818 46.5609 40.0146 46.6103L37.1128 47.3848C36.9235 47.4368 36.7238 47.4368 36.5346 47.3848C36.3452 47.3259 36.1755 47.2166 36.0437 47.0684L24.9273 34.6648V34.6103C24.9216 34.6003 24.9186 34.5891 24.9186 34.5776C24.9186 34.5661 24.9216 34.5548 24.9273 34.5448C24.9226 34.5365 24.92 34.5271 24.92 34.5176C24.92 34.508 24.9226 34.4986 24.9273 34.4903L25.0146 34.4576Z" fill="#FF4D6A" />
    </symbol>
    <symbol id="icon-chain-opal" viewBox="0 0 48 48">
        <path fill-rule="evenodd" clip-rule="evenodd" d="M40.2378 23.4119C40.2223 19.6831 39.1282 16.3633 36.9539 13.4332L36.9528 13.4316C35.229 11.0928 32.9051 9.41345 29.9592 8.39506C29.0578 8.08339 28.3882 7.24877 28.384 6.24988L28.367 2.17402C28.3613 0.788736 29.6504 -0.325616 31.0548 0.0870188C40.8156 2.95519 47.9554 12.0006 48 22.7611L47.9879 25.2314C47.9478 35.992 40.8118 45.0404 31.0522 47.9128C29.6482 48.3259 28.3585 47.2122 28.3637 45.8269L28.3788 41.751C28.3825 40.7521 29.0518 39.9172 29.9532 39.6052C32.8986 38.5855 35.2218 36.9053 36.9446 34.5656L36.9457 34.5641C39.1187 31.6331 40.2115 28.3127 40.2253 24.5839L40.2378 23.4119ZM7.7622 23.412C7.77767 19.6832 8.87183 16.3633 11.0461 13.4333L11.0472 13.4317C12.771 11.0928 15.0949 9.41352 18.0408 8.39513C18.9422 8.08346 19.6118 7.24884 19.616 6.24995L19.633 2.17409C19.6387 0.788808 18.3496 -0.325544 16.9452 0.0870907C7.18445 2.95526 0.0446308 12.0007 0 22.7611L0.0121526 25.2316C0.0522143 35.9921 7.18819 45.0404 16.9478 47.9128C18.3518 48.326 19.6415 47.2122 19.6363 45.8269L19.6212 41.7511C19.6175 40.7522 18.9482 39.9173 18.0468 39.6053C15.1014 38.5856 12.7782 36.9053 11.0554 34.5656L11.0543 34.5642C8.88127 31.6331 7.78852 28.3128 7.77463 24.584L7.7622 23.412ZM24 15.2726C21.59 15.2726 19.6363 17.2264 19.6363 19.6363V28.3636C19.6363 30.7735 21.59 32.7272 24 32.7272C26.41 32.7272 28.3637 30.7735 28.3637 28.3636V19.6363C28.3637 17.2264 26.41 15.2726 24 15.2726Z" fill="#5942C8" />
    </symbol>
</svg>