<svg width="24" height="24" viewBox="0 0 24 24" fill="none" xmlns="http://www.w3.org/2000/svg">
<path fill-rule="evenodd" clip-rule="evenodd" d="M12 3.75C7.44365 3.75 3.75 7.44365 3.75 12C3.75 16.5563 7.44365 20.25 12 20.25C16.5563 20.25 20.25 16.5563 20.25 12C20.25 7.44365 16.5563 3.75 12 3.75ZM2.25 12C2.25 6.61522 6.61522 2.25 12 2.25C17.3848 2.25 21.75 6.61522 21.75 12C21.75 17.3848 17.3848 21.75 12 21.75C6.61522 21.75 2.25 17.3848 2.25 12Z" fill="#81858E"/>
<path fill-rule="evenodd" clip-rule="evenodd" d="M9.375 9.375C9.375 8.96079 9.71079 8.625 10.125 8.625H14.625C15.0392 8.625 15.375 8.96079 15.375 9.375V13.875C15.375 14.2892 15.0392 14.625 14.625 14.625C14.2108 14.625 13.875 14.2892 13.875 13.875V10.125H10.125C9.71079 10.125 9.375 9.78921 9.375 9.375Z" fill="#81858E"/>
<path fill-rule="evenodd" clip-rule="evenodd" d="M15.1553 8.84467C15.4482 9.13756 15.4482 9.61244 15.1553 9.90533L9.90533 15.1553C9.61244 15.4482 9.13756 15.4482 8.84467 15.1553C8.55178 14.8624 8.55178 14.3876 8.84467 14.0947L14.0947 8.84467C14.3876 8.55178 14.8624 8.55178 15.1553 8.84467Z" fill="#81858E"/>
</svg>
