<svg width="24" height="24" viewBox="0 0 24 24" fill="none" xmlns="http://www.w3.org/2000/svg">
  <path fill-rule="evenodd" clip-rule="evenodd" d="M17.4697 12.9697C17.7626 12.6768 18.2374 12.6768 18.5303 12.9697L21.5303 15.9697C21.8232 16.2626 21.8232 16.7374 21.5303 17.0303L18.5303 20.0303C18.2374 20.3232 17.7626 20.3232 17.4697 20.0303C17.1768 19.7374 17.1768 19.2626 17.4697 18.9697L19.9393 16.5L17.4697 14.0303C17.1768 13.7374 17.1768 13.2626 17.4697 12.9697Z" fill="#040B1D"/>
  <path fill-rule="evenodd" clip-rule="evenodd" d="M2.25 16.5C2.25 16.0858 2.58579 15.75 3 15.75H21C21.4142 15.75 21.75 16.0858 21.75 16.5C21.75 16.9142 21.4142 17.25 21 17.25H3C2.58579 17.25 2.25 16.9142 2.25 16.5Z" fill="#040B1D"/>
  <path fill-rule="evenodd" clip-rule="evenodd" d="M6.53033 3.96967C6.82322 4.26256 6.82322 4.73744 6.53033 5.03033L4.06066 7.5L6.53033 9.96967C6.82322 10.2626 6.82322 10.7374 6.53033 11.0303C6.23744 11.3232 5.76256 11.3232 5.46967 11.0303L2.46967 8.03033C2.17678 7.73744 2.17678 7.26256 2.46967 6.96967L5.46967 3.96967C5.76256 3.67678 6.23744 3.67678 6.53033 3.96967Z" fill="#040B1D"/>
  <path fill-rule="evenodd" clip-rule="evenodd" d="M2.25 7.5C2.25 7.08579 2.58579 6.75 3 6.75H21C21.4142 6.75 21.75 7.08579 21.75 7.5C21.75 7.91421 21.4142 8.25 21 8.25H3C2.58579 8.25 2.25 7.91421 2.25 7.5Z" fill="#040B1D"/>
</svg>
